<?xml version="1.0" encoding="UTF-8"?>
<svg id="_レイヤー_1" data-name="レイヤー_1" xmlns="http://www.w3.org/2000/svg" version="1.1" viewBox="0 0 768 256">
  <!-- Generator: Adobe Illustrator 29.4.0, SVG Export Plug-In . SVG Version: 2.1.0 Build 152)  -->
  <g>
    <g>
      <path d="M65.1944,146.3376h27.1084v6.4082H27.503v-6.4082h28.6479v-16.2715h-21.2319v-6.3359h21.2319v-14.4004h-15.3998c-2.5923,5.377-6.2215,9.8731-9.9652,14.3838l-3.7366-3.631c3.0537-4.8222,5.2252-8.6016,7.5817-13.8124,2.0963-4.6356,3.1652-9.6514,4.1204-15.1597l7.8317,1.5156c-.8169,3.6001-1.8486,7.0562-3.0962,10.3677h12.664v-12.6719h9.0435v12.6719h25.3804v6.3359h-25.3804v14.4004h22.2124v6.3359h-22.2124v16.2715Z"/>
      <path d="M113.0611,120.9938c-5.7295-3.374-10.4494-5.5335-15.1046-7.6937l3.1525-5.982c4.6428,3.0423,9.2934,6.1345,14.2562,9.9316l-2.304,3.7441ZM98.1348,150.8848c4.8477-5.9033,10.9409-12.4411,14.5888-21.8005l3.8048,2.0158c-1.5366,4.2236-2.7696,8.6261-5.0738,13.1134s-4.728,8.4355-7.272,11.8438l-6.0479-5.1725ZM116.2789,103.6423c-4.3682-2.9756-9.3255-5.3055-14.4129-7.7537l3.76-6.2933c4.937,2.9796,8.4061,6.0697,12.8385,9.701l-2.1856,4.346ZM164.411,116.4888h-20.1062l.1082,11.3448h17.0817v28.2959h-7.1276v-4.174h-26.1468v4.174h-7.3335v-28.2959l15.8868-.0698-.1082-11.3448-18.7667.0698.1082-5.2661,18.7667-.0698v-10.6049c-5.1989.4512-9.626.6544-15.4815.9894l-1.6361-4.9187c17.4617-1.7004,28.5971-4.3998,38.1493-6.6567l3.9597,7.109c-4.8486,1.2002-10.4401,1.9392-17.3521,2.7548v11.3969h20.1062l-.1082,5.2661ZM128.2203,146.8737h26.1468v-13.6881h-26.1468v13.6881Z"/>
      <path d="M169.919,124.2341c1.4873-5.375,2.3037-12.2402,2.4478-20.5918l4.8242.5039c-.144,8.6885-2.1487,15.5287-3.636,21.3363l-3.636-1.2484ZM185.4257,156.1296h-6.6664v-65.8076h6.6664v65.8076ZM217.077,112.6258l19.7297-.2581v4.2349h-45.4316v-1.6567l-2.9079,1.2322c-.3848-3.2158-.9344-7.4317-2.4203-12.1043l3.96-1.3682c.8638,2.9287,1.3569,6.5129,2.0298,9.9201h18.3991v-4.8522h-16.613v-4.4329h16.613v-4.8576h-18.1969v-4.0718h18.1969v-4.4492h6.6412v4.4492l18.8659-.5014v4.5732h-18.8659v4.8576h17.2097v4.4329h-17.2097v4.8522ZM194.9747,156.4889v-35.4951h37.8721v28.9443c0,2.207-.4443,3.7188-1.332,4.5361-.8887.8154-2.3882,1.2236-4.5,1.2236h-11.3037l-1.3682-5.4004h11.4374v-6.6953h-24.2438v12.8867h-6.5617ZM225.7802,130.1374v-4.3193h-24.2438v4.3193h24.2438ZM201.5364,134.6735v4.3926h24.2438v-4.3926h-24.2438Z"/>
      <path d="M273.0589,101.6755h-11.0024l.1082,8.3027h12.6582v4.2531h-32.1118v-4.2531h12.757l-.1082-8.3027h-10.8849v-3.668h10.8849l.1082-7.6856h6.6966l-.1082,7.6856h11.0024v3.668ZM270.359,116.818c-1.0078,3.3604-2.6723,6.8266-3.9682,9.562h7.7124v4.9773l-11.7698.0723-.0359,8.007,11.1213-.0723v4.4904l-11.1213.0723.0359,12.2748-7.0332-.0723-.0359-12.2748h-11.1492v-4.4904h11.1492l.0359-8.007h-11.8694v-4.9773h17.6401c1.4399-3.168,2.5674-7.2095,3.3838-11.2905l5.9043,1.7285ZM253.151,115.1618c1.4399,2.9287,2.0808,5.9138,2.7536,8.6501l-4.6519,1.7294c-.8215-2.312-2.2057-4.9791-3.7897-8.2916l5.688-2.0879ZM309.671,152.8625l-3.4561,3.3393c-3.5044-3.0244-6.624-6.2637-9.3599-9.7197-2.6406,3.5527-5.6411,6.7432-9,9.5752l-2.8754-4.123c3.2449-3.3795,5.7856-6.6235,8.4121-10.5551-3.168-4.8477-6.2008-10.4345-8.2169-16.6269l6.0178-2.2463c1.6313,4.752,3.2142,9.1919,5.5184,13.0317,2.5435-4.5596,3.6857-10.3256,4.4538-15.2211l-17.4893.0699-.089,35.8153-6.9659-.0361v-63.0854l31.2501-.0361v12.686c0,2.1602-.4565,3.6846-1.3677,4.5713-.9126.8896-2.4243,1.332-4.5361,1.332h-10.5122l-2.2361-5.9917,11.6172.8334.0082-8.9692-17.2496.0692-.0078,18.41,24.4283-.0723v4.3611c-1.1045,7.248-3.7962,14.4194-7.7317,21.0903,2.4458,3.7217,6.1144,8.2634,9.388,11.4981Z"/>
      <path d="M368.2071,141.0331l-17.2259.0135-.0723,8.8629,26.4422-.0135.0723,4.7942h-58.9688l-.0723-4.7942,25.226.1312.0737-9.0365-16.0111.0424v-3.4797c-3.6362,2.221-7.0349,3.9223-11.0372,5.6648l-3.4055-2.7506c6.9857-3.6675,10.509-5.7108,17.0345-13.0655h-15.2637l-.0005-5.0039h13.0317v-21.8521h-12.312v-4.9303h12.312l.0005-5.2938h6.6488l-.0005,5.2938h26.3746l.0005-5.2938h6.7208l-.0005,5.2938h12.3125v4.9303h-12.3125v21.8521h13.0322l.0005,5.0039h-16.3442c2.1113,2.1602,4.952,4.0465,7.8347,5.804,3.2536,1.9837,7.5215,3.5156,11.5527,5.1953l-4.4836,5.4167c-4.0801-1.7754-7.8008-3.7676-11.1597-5.9766v3.1916ZM343.6821,136.2874v-6.7676l7.2991.0559v6.7676l15.1375-.0135c-3.6968-2.6875-6.7925-5.6631-9.2876-8.9277h-19.1523c-2.3037,3.2646-5.1367,6.2402-8.4961,8.9277l14.4994-.0424ZM361.0542,104.6934l-.0005-4.4354h-26.3746l.0005,4.4354h26.3746ZM334.6796,113.5597h26.3746l-.0002-4.9382h-26.3746l.0002,4.9382ZM334.6794,117.4318l-.0002,5.1822h26.3746l.0002-5.1822h-26.3746Z"/>
      <path d="M387.4917,128.6627c1.2959-2.0166,2.0737-4.4629,2.7212-6.4795.6484-2.0156.8515-4.1299,1.0917-6.7217-1.8242.0967-3.1806.2384-4.1405.2384l-.4764-5.7217c1.1514,0,2.6604-.0069,4.9239,0,.0479-1.4395.0679-3.7676.0679-7.2725v-8.0635h8.9277c.623-1.4399,1.1523-3.0479,1.584-4.8242l5.6885.4321c-.3848,1.6323-1.2523,3.0957-1.7797,4.3921h10.7797v13.9492l3.0406-.3464-.1411,3.7847-2.8995.5388v12.9614c0,1.9688-.4326,3.3965-1.2959,4.2842-.8643.8887-2.2812,1.332-4.248,1.332h-5.1123l-1.9173-4.7633,6.5614.3508v-13.1509c-4.8955.5762-8.192,1.2187-12.9918,1.5068-.2881,3.5049-1.6718,6.5651-2.7505,9.0935-1.0592,2.4826-2.4857,5.0155-4.226,7.6896l-3.4074-3.21ZM393.4791,133.6657h52.5605v16.3168h6.4072v4.779h-65.0156v-4.779h6.0479v-16.3168ZM398.2359,104.0739c0,2.6885-.0187,4.4947-.0666,5.7427,4.2715-.1914,7.4656-.2222,12.698-.7027l-.0333-10.0412h-12.6315l.0333,5.0012ZM409.2644,138.0524h-8.6853l-.1612,11.93h8.6853l.1612-11.93ZM403.8472,99.7536c2.0156,2.3525,3.5996,4.6562,4.752,6.9121l-3.96,2.4482c-1.249-2.5439-2.7842-4.8477-4.6084-6.9121l3.8164-2.4482ZM401.1832,125.7458v-9.3604h4.752v9.3604h-4.752ZM423.658,149.9824l.1612-11.93h-8.2704l-.1612,11.93h8.2704ZM421.1988,109.9782h1.2557l-2.5344-3.0299c1.4504-1.4816,2.8762-2.999,3.6823-4.2897.73-1.169,1.0553-2.7414,1.1783-4.3234.1187-1.527.2188-2.7808.2188-5.5649h18.9355l.0163,9.5166c0,.4805.0957.8047.2881.9717.1914.1689.5762.252,1.1523.252h2.8799l-.3445-6.6643,4.8079,1.3958v4.3916c0,1.6807-.3721,2.8809-1.1162,3.6006s-1.9795,1.0801-3.708,1.0801h-4.1758c-1.9199,0-3.7282-.3604-4.5202-1.0801s-1.1885-1.9912-1.1885-3.8164l.0821-6.2727h-7.55c0,3.0244-1.1813,6.1888-2.505,8.2001-1.3575,2.0627-3.0029,4.0971-5.499,5.6332h27.5888v4.1035c-2.0645,3.6006-5.1602,6.8164-9.2881,9.6484,3.2158,1.4883,7.2002,2.7842,11.9521,3.8877l-1.2893,3.9235c-5.8564-1.3916-11.1229-2.6-16.003-4.819-5.0241,1.841-8.561,2.5655-13.9075,3.4387l-2.5677-3.2629c3.9834-.9111,7.6553-2.04,11.0156-3.3838-2.3525-1.6797-4.5605-3.5762-6.624-5.6885l3.96-3.2402c2.5918,2.5449,5.3027,4.6562,8.1357,6.3359,3.7442-2.0906,5.2848-4.8245,7.1569-7.1292h-21.485v-3.8142ZM429.7672,149.9824h9.4911l.1612-11.93h-9.4911l-.1612,11.93Z"/>
      <path d="M475.6354,97.4218c-.8643,5.5205-2.7403,12.3161-4.6124,17.5964h13.0322v35.9277h-13.1535v4.752h-6.3583v-28.5117c-1.3447,2.4961-2.6895,4.5605-4.0322,6.1914l-1.6171-4.9931c5.7119-7.1514,7.859-20.114,9.3473-30.9627h-8.2341v-4.6516h25.4873v4.6516h-9.8593ZM470.9018,146.2067h7.0034v-26.234h-7.0034v26.234ZM524.8072,118.9571v4.8444h-7.2725v32.3281l-6.9249-.0068v-32.3206l-8.7592-.0007c-.4805,6.8652-2.0856,12.8901-4.142,18.1162-2.1364,5.4293-3.4006,8.0648-10.3448,14.8604l-.6498-5.6337c3.1689-3.6006,4.3221-7.1409,5.8104-11.4856,1.4873-4.3438,2.0643-9.9244,1.9702-15.8573h-8.0635v-4.8444h8.3516c.0479-1.0557.0723-3.9388.0723-6.099v-15.42h-7.2002v-4.5238h36.2881v4.8523l-6.4082-.3285v21.519h7.2725ZM510.6099,118.9592v-21.5143l-8.3988-.0068v14.5558c0,2.5449-.0254,5.7152-.0723,6.9632l8.4711.0021Z"/>
      <path d="M539.4994,101.8938l.0002,9.7397h-7.1328v-14.1954h27.15v-7.1161h7.522v7.1161h28.4003v13.3321h-4.1045v3.8154c0,1.8252-.4922,3.1445-1.4756,3.96-.9844.8174-2.6279,1.2246-4.9316,1.2246h-10.2246c-2.6406,0-4.5117-.5039-5.6162-1.5127-1.1045-1.0078-1.6553-2.7832-1.6553-5.3271l-.0002-11.0365h-8.4248c-.4795,5.3281-1.538,10.7424-5.311,13.4319-4.0401,2.8799-8.5029,5.4441-16.3828,6.6119l-2.9324-2.9784c5.5542-1.6024,8.0634-2.7956,10.5156-4.2788,4.2456-2.5679,4.9976-3.8272,5.8634-6.0706.8481-2.1975,1.3405-4.3146,1.5329-6.7159h-12.7925ZM588.4098,138.1326l7.6768,1.9413v8.4238c0,2.5439-.5039,4.2949-1.5117,5.2559-1.0078.96-2.8076,1.4404-5.3994,1.4404h-6.8408c-2.208,0-5.1763-.1678-6.3999-.6463-1.2246-.4805-2.1006-1.3213-2.6279-2.5205-.5293-1.2002-.792-2.8799-.792-5.04v-15.3359l-10.1631-.0009c-.9121,5.8564-4.101,10.74-8.3491,14.7957-4.248,4.0566-9.5616,6.6602-17.4815,9.252l-3.5357-3.3626c6.96-2.3516,11.1237-4.3366,15.0941-8.3179,3.3006-3.3098,6.2229-7.9758,7.0393-12.4396h-19.7998v-4.7588h20.2324v-8.8496l7.1606.0725v8.8496l17.6792-.0725-.0178,21.21c0,1.0078.2266,1.7041.6836,2.0879.4561.3848,1.1885.5762,2.1963.5762h6.5518l-1.3953-12.5605ZM588.4098,109.7334l-.0002-7.8035-14.1849-.0361.0002,11.1282c0,.96.167,1.584.5039,1.8721.335.2881,1.0547.4316,2.1602.4316h8.1097l-.8769-6.371,4.288.7787Z"/>
      <path d="M611.1131,123.154c-.7469,4.184-.9748,5.254-2.6115,9.9165-1.1366,3.2377-1.9935,4.0387-4.4626,7.1243l-1.4402-3.3611c5.6881-11.9197,6.052-16.9197,7.6811-29.0636h-7.1369v-4.3892h7.713v-13.4188l6.2287.0356v13.4188l7.0817-.0356v4.3892l-7.0817.0356v8.9035l.1696-.0356,1.2969-1.0078c.6709-.4316,1.127-.6475,1.3672-.6475.4795,0,.8877.4561,1.2246,1.3672l2.8076,9.3604,21.1513-.0364c-1.0566-5.9043-1.584-12.9355-1.584-21.0957v-14.3281l5.5606.0364v9.8643l2.376-2.7363,2.0879,2.1602c2.0635-3.0713,3.7676-6.2642,5.1123-9.5757l4.3916,2.2319c-2.1123,4.1758-4.5546,8.0202-6.7148,11.0446l2.446,3.3191c2.0625-3.0234,3.9094-6.4683,5.0608-8.8198l4.1768,2.376c-2.9775,5.2324-8.4539,10.5692-12.6867,15.3817,4.595-.0852,7.4808-.1729,8.9213-.3653-.5293-1.9678-1.1789-4.3357-1.5627-5.2966l4.2917-1.2962c1.2607,4.3951,2.0911,8.473,2.7639,12.1683l-3.8154,1.1523-1.0067-4.1099c-2.5586.6211-4.1295,1.2263-7.922,1.8775,2.82,1.2665,4.7076,2.6355,6.772,3.8836l-1.732,2.1643h7.416v4.3276h-17.5674c.8154,2.9287,1.8467,6.5444,3.0957,8.9927,1.9678-2.0166,3.5029-4.9797,5.6162-8.2444l4.752,3.0598c-2.4014,3.7441-4.9209,6.9844-7.5605,9.7207,1.7024,2.9827,3.895,5.6397,6.5347,7.5586l-.1844-12.0141,5.6019,2.4388-.8643,9.792c-.1924,1.4404-.6113,2.5439-1.2598,3.3125-.6475.7666-1.4756,1.1514-2.4834,1.1514-1.2969,0-3.1378-.637-4.7696-1.8362-2.5449-1.8242-4.8486-4.1035-6.9121-6.8398-4.3193,3.5029-9.1237,6.4408-16.1794,9.1283l-2.2097-3.3092c3.6953-1.2959,6.6811-2.8917,9.2012-4.7789,2.4538-1.8375,4.267-3.7043,6.3802-5.4319-1.8252-3.4561-3.6078-8.3188-4.7592-12.7357l-9.768.0353v1.5767c0,3.2158-.3125,5.7598-.9355,7.6318l.2881.2158,1.0801-1.1523c.3828-.4316.8154-.6475,1.2959-.6475.4785,0,.9111.1924,1.2959.5762l5.458,5.8854-2.7428,2.9531-6.5316-5.2389c-.2881-.1914-.457-.2881-.5039-.2881-.1924,0-.3848.1689-.5762.5039-2.3525,4.8965-6.0957,9.5039-11.2314,13.8242l-2.246-3.0412c3.7008-4.0776,5.9678-7.1817,7.4802-10.4522,1.4391-3.1119,2.049-6.8582,2.049-10.8426v-1.5044h-6.42v-3.896l-2.3675,2.5243-3.767-9.1445c-.0967-.2393-.4198-.3275-.5155-.3275-.0967,0-.1436.1436-.1436.4316v36.792l-6.2287-.0356M632.208,110.0041c-2.5449-3.3125-5.9779-5.7866-8.7611-8.8101l3.2402-3.6006,2.0156,2.1602c2.0166-3.0234,3.7197-6.2388,5.1123-9.6475l4.7347,2.3289c-1.9199,4.0312-4.8206,6.7907-7.1712,10.1501.5273.624,1.3399,2.1234,1.8692,2.8431l.8495,1.3502c1.8232-2.832,3.1917-6.149,4.5365-8.9332l4.5417,2.629c-1.4893,2.7842-2.9756,5.7074-5.0049,8.3877-3.2141,4.2454-5.6005,6.3399-7.8478,8.0797,2.5918-.2871,7.2999-.5231,8.836-.7154l-.5917-2.0723c-.1445-.4795-.3008-.9834-.4678-1.5117-.1689-.5283-.3486-1.0801-.54-1.6562l4.1578-1.2797c.976,3.5489,1.7211,7.3998,2.682,12.2953l-3.6719,1.1523-.8841-3.9747c-4.9922.9609-9.8689,2.3184-14.9558,2.6065l-.5039-4.9678,2.5359.1633c1.3438-1.584,3.5602-4.529,5.2887-6.9772ZM649.0787,104.9382c0,8.3047.5283,15.2402,1.584,20.8076h9.9365c-2.7842-1.3428-4.9932-2.2559-6.624-2.7363l2.4473-3.2393c-2.7842.2881-4.9199.4805-6.4072.5752l-.5039-4.8232,2.4443.1473c1.3916-1.5352,3.2412-3.9362,4.8252-6.0963-2.209-2.7832-4.908-5.056-7.7021-7.8029v3.168Z"/>
      <path d="M682.7222,123.6553c-.2402,3.5527-.7481,5.5726-1.6114,8.5481-.8643,2.9766-3.0122,6.865-5.2538,9.3167l-1.4606-3.0841c4.2648-9.4748,7.0316-21.5002,7.7513-31.0529l-7.2909.0359-.0018-4.4252,7.8671-.0359v-13.0317l6.0274.0179v13.0317l6.5537.0179.0018,4.4252-6.5537-.0179-.0018,10.191.2178.0179,1.2959-1.0078c.5273-.4326.9824-.6484,1.3672-.6484.4795,0,.8877.457,1.2246,1.3682l3.2402,10.3682-2.6187,2.5195-4.4379-9.7197c-.0967-.2393-.0498-.3656-.1455-.3422-.0967.0254-.1436.1797-.1436.4678v35.7842l-6.0274-.0179M740.9135,139.7843l.0373,4.4654h-4.3203v6.0479c0,2.1123-.4082,3.5752-1.2236,4.3926-.8164.8154-2.2803,1.2236-4.3916,1.2236h-8.7842l-1.4404-5.1836,9.2705.8869v-7.3673h-24.3678v12.2393h-6.4301v-12.2393h-4.3926l-.0344-4.1186h4.3926l.0344-18.9937h15.2272v-3.7432h-18.0358v-4.1894h10.4404v-5.2432h-9.5039l-.0361-3.7996h9.5039v-5.7256h-10.6562l.0361-3.8663h10.6562v-4.6079h6.1045v4.6079h9.8258v-4.6079h6.2455v4.6079l10.7335-.5347-.0411,4.401h-10.7285v5.7256h9.5762l.0361,3.7996h-9.5762v5.2432h11.5205v4.1894h-19.6622v3.7432h15.7012l-.0344,18.9937,4.3174-.3469ZM714.4912,130.6974l.0361-5.688h-8.8684l-.0361,5.688h8.8684ZM714.5274,134.027h-8.8684v6.1042h8.8684v-6.1042ZM722.7893,98.4363h-9.8258v5.7256h9.8258v-5.7256ZM722.8254,107.9616h-9.8258v5.2432h9.8258v-5.2432ZM720.7152,130.6974h9.2754l.0361-5.688h-9.2754l-.0361,5.688ZM720.7513,134.027v6.1042h9.2754v-6.1042h-9.2754Z"/>
    </g>
    <g>
      <path d="M62.1344,44.4128H29.9508v-3.6001h32.1836v3.6001Z"/>
      <path d="M81.3223,42.1447c-.6719.144-1.1279.2402-1.3677.2881v13.4282c0,1.0557-.2222,1.8057-.666,2.25-.4443.4438-1.2061.666-2.2861.666h-3.2759l-.792-2.9521h4.104v-12.8521c-1.8242.312-4.0444.5884-6.6602.8281-.0962,3.4321-.3184,6.4141-.666,8.9458-.3481,2.5322-.8945,4.7935-1.6377,6.7861l-2.5923-2.1602c.624-1.7036,1.0854-3.6177,1.3862-5.7417.2998-2.124.4976-4.6499.5938-7.5781l-2.0161.1079-.252-3.0239,2.3403-.1079v-11.5562h4.1396c.5044-1.2241.876-2.3994,1.1162-3.5278l3.1318.5039c-.2881,1.0078-.6719,2.0161-1.1519,3.0239h5.1841v10.0801c.3359-.0957.7559-.1802,1.2598-.252l.1079,2.8438ZM77.0387,40.0207v-7.8838h-6.5879v8.6758c2.4956-.2393,4.6914-.5039,6.5879-.792ZM73.3306,32.965c.4795.6963.9775,1.5181,1.4941,2.4658.5156.9482.9297,1.8306,1.2417,2.646l-2.1602,1.2598c-.7441-1.8477-1.6079-3.564-2.5918-5.1479l2.0161-1.2236ZM72.4307,44.881h2.4116v8.46h-2.4116v-8.46ZM97.3067,59.3888c-2.7363-1.2725-5.1606-2.8081-7.272-4.6079-2.0884,1.8237-4.6685,3.3716-7.7402,4.644l-1.2959-2.8804c2.6396-1.0312,4.896-2.3398,6.7681-3.9238-1.5361-1.6318-3.0483-3.5757-4.5361-5.832l2.4482-1.6919c1.3916,2.1362,2.8198,3.9482,4.2837,5.436,1.5356-1.7041,2.6519-3.564,3.3481-5.5801h-10.8721v-2.8438h14.1479v2.376c-.8403,3.0723-2.3037,5.7842-4.3921,8.1357,1.8721,1.5122,3.9961,2.7964,6.3721,3.8521l-1.2598,2.916ZM86.8668,31.6686c0,2.2808-.3364,4.1763-1.0083,5.688-.6719,1.5122-1.644,2.8682-2.916,4.0684l-1.728-2.6279c1.1035-1.0562,1.8599-2.1182,2.2681-3.186.4077-1.0679.6118-2.6104.6118-4.626v-3.708h9.9004v8.8916c0,.4321.0596.7144.1797.8462.1201.1323.3721.1982.7563.1982h1.0796v-5.1484l2.3403.9722v3.9238c0,1.0801-.1621,1.8486-.4863,2.3042-.3237.4561-.9663.6841-1.9258.6841h-1.5122c-.8638,0-1.5239-.0957-1.98-.2881-.4561-.1919-.7798-.522-.9717-.9897-.1924-.4683-.2881-1.146-.2881-2.0342v-6.624h-4.3198v1.6558Z"/>
      <path d="M117.0704,48.0129l-2.124,2.0879-4.356-5.5078c-.1924-.2397-.2881-.2036-.2881.1079v14.5439h-3.0957v-13.2842c-1.3682,1.4404-2.8926,2.7847-4.5723,4.0322l-1.4399-2.8799c2.52-1.7041,4.7461-3.7441,6.6782-6.1201,1.9316-2.376,3.2695-4.5957,4.0142-6.6602h-9.7925v-2.916h5.0762v-5.0757h3.1318v5.0757h4.8604v2.4844c-.4321,1.4883-1.1045,3.0239-2.0161,4.6079-.9126,1.584-1.8604,2.9761-2.8442,4.1758v.252h.2524l.6118-.5039c.2158-.1919.4438-.2881.6841-.2881.2881,0,.5757.1685.8638.5039l4.356,5.3643ZM125.9625,40.5607v14.2563h8.5322v3.2397h-20.4121v-3.2397h8.5679v-14.2563h-7.3438v-3.2397h7.3438v-10.8721h3.312v10.8721h7.668v3.2397h-7.668Z"/>
      <path d="M138.6705,59.4606V27.4567h30.7441v32.0039h-3.312v-2.1597h-24.1201v2.1597h-3.312ZM141.9825,30.5168v23.7241h24.1201v-23.7241h-24.1201ZM164.5548,35.7726v2.8081h-4.644v10.8359c0,1.1523-.2402,1.9565-.7202,2.4121-.4805.4561-1.3203.6841-2.52.6841h-4.752l-1.0078-2.8799h5.8677v-11.0522h-13.0679v-2.8081h13.0679v-3.7437h3.1323v3.7437h4.644ZM148.3184,40.0207c.8398.8643,1.668,1.8423,2.4839,2.9341.8159,1.0923,1.5122,2.1782,2.0884,3.2583l-2.5562,1.8716c-.5039-1.0078-1.1699-2.0757-1.998-3.2036s-1.6621-2.1362-2.502-3.0244l2.4839-1.8359Z"/>
      <path d="M180.5748,42.0729c-2.2324-1.6797-4.644-3.1797-7.2363-4.5l1.7642-2.7002c1.1997.5762,2.4419,1.2603,3.7261,2.0522,1.2837.792,2.4536,1.5962,3.5098,2.4116l-1.7637,2.7363ZM182.5186,46.717c-.6963,2.0879-1.5786,4.2603-2.646,6.5156-1.0684,2.2563-2.2139,4.248-3.438,5.9761l-2.8081-2.2681c2.376-3.0718,4.3677-6.9116,5.9761-11.5195l2.916,1.2959ZM181.9425,32.965c-2.1841-1.584-4.416-2.9399-6.6958-4.0684l1.728-2.7358c2.376,1.1284,4.5957,2.4966,6.6597,4.104l-1.6919,2.7002ZM203.7945,59.5329c-.2642-.5283-.7686-1.4526-1.5117-2.772-5.4004.8877-11.9766,1.584-19.728,2.0879l-.3242-3.2041,1.2959-.0718c1.1523-.0479,2.0161-.0957,2.5923-.144.8398-1.6079,1.6558-3.3896,2.4478-5.3462.792-1.9556,1.4761-3.8818,2.0522-5.7778h-7.9204v-3.0601h9.7925v-5.9761h-8.7124v-3.0601h8.7124v-5.8677h3.2759v5.8677h9.4316v3.0601h-9.4316v5.9761h10.5117v3.0601h-12.168c-1.2002,4.0317-2.5801,7.6562-4.1396,10.8721,3.2876-.2397,6.8633-.5996,10.7275-1.0801-1.3921-2.2559-2.6636-4.1636-3.8159-5.7241l2.6641-1.8359c1.1519,1.5605,2.3638,3.3423,3.6362,5.3462,1.2715,2.0039,2.4116,3.9302,3.4199,5.7778l-2.8081,1.8721Z"/>
      <path d="M209.4464,55.717c3.8882-2.3276,6.8701-4.5181,8.9463-6.5703,2.0757-2.0518,3.5215-4.1816,4.3379-6.3896.8154-2.208,1.2241-4.8477,1.2241-7.9204v-8.0996h3.6001v8.0996c0,3.0244.4497,5.6465,1.3496,7.8662.9004,2.2202,2.4302,4.3506,4.5903,6.3901,2.1597,2.04,5.2075,4.2358,9.144,6.5879l-2.1602,3.168c-3.5044-2.2319-6.27-4.2715-8.2979-6.1201-2.0283-1.8477-3.5283-3.6899-4.5-5.5259-.9722-1.8359-1.5425-3.8701-1.71-6.1021h-.2881c-.144,2.2563-.666,4.3022-1.5659,6.1382-.9004,1.8359-2.3403,3.6782-4.3203,5.5259-1.98,1.8481-4.7104,3.8755-8.1899,6.084l-2.1602-3.1318Z"/>
    </g>
  </g>
  <g>
    <path d="M43.5708,206.1885h-8.855v11.1221h-4.7515v-24.873h4.7515v9.9707h8.855v-9.9707h4.7871v24.873h-4.7871v-11.1221Z"/>
    <path d="M69.2383,217.3105h-3.9951l-.252-2.6631c-1.4038,2.1592-3.2397,3.2031-5.8315,3.2031-3.4556,0-5.3271-2.2314-5.3271-5.9033v-13.6777h4.6074v13.1016c0,2.2324.7559,2.9883,2.3394,2.9883,1.5479,0,2.8438-1.0439,3.8516-2.7002v-13.3896h4.6074v19.041Z"/>
    <path d="M100.0171,203.5244v13.7861h-4.6074v-13.0664c0-2.375-.9355-3.0596-2.0879-3.0596-1.5835,0-2.5557,1.1162-3.5991,2.8799v13.2461h-4.6074v-13.0664c0-2.375-.9722-3.0596-2.0879-3.0596-1.6196,0-2.5918,1.1162-3.6357,2.8799v13.2461h-4.6074v-19.041h3.9956l.3599,2.4834c1.3682-1.9082,3.0957-3.0234,5.5073-3.0234,2.1958,0,3.8877,1.1514,4.6436,3.2031,1.4399-2.0156,3.1675-3.2031,5.6875-3.2031,3.0234,0,5.0391,2.1953,5.0391,5.7949Z"/>
    <path d="M120.8979,214.7188l-.9717,3.0596c-2.0879-.1797-3.4556-.8994-4.2114-2.7715-1.332,2.0156-3.4199,2.8438-5.6875,2.8438-3.8154,0-6.1553-2.4111-6.1553-5.8672,0-4.1396,3.1318-6.3711,8.6748-6.3711h2.376v-1.0801c0-2.4834-1.1157-3.3115-3.5635-3.3115-1.2959,0-3.1318.3604-5.0396,1.0078l-1.0801-3.1318c2.3398-.8994,4.7515-1.3672,6.9111-1.3672,5.0757,0,7.3071,2.3398,7.3071,6.5508v7.9912c0,1.5479.5039,2.0879,1.4399,2.4473ZM114.9229,212.1631v-3.8516h-1.9077c-2.9878,0-4.4634,1.0801-4.4634,3.3115,0,1.8359.9355,2.8799,2.6997,2.8799,1.6196,0,2.8076-.8281,3.6714-2.3398Z"/>
    <path d="M140.5898,203.5244v13.7861h-4.6074v-13.0664c0-2.375-.8999-3.0596-2.3398-3.0596-1.6558,0-2.8794,1.1162-3.9956,2.8799v13.2461h-4.6074v-19.041h3.9956l.3599,2.5195c1.4761-1.9082,3.3838-3.0596,5.7954-3.0596,3.4194,0,5.3994,2.1592,5.3994,5.7949Z"/>
    <path d="M145.0557,204.208h10.8706v3.6719h-10.8706v-3.6719Z"/>
    <path d="M160.356,212.9551v-22.3174l4.6074-.5039v22.6777c0,.8994.3237,1.332,1.0796,1.332.4321,0,.7559-.0723,1.0801-.1807l.9717,3.2402c-.792.3594-1.8716.6475-3.0596.6475-2.9155,0-4.6792-1.7637-4.6792-4.8955Z"/>
    <path d="M176.3394,191.4297c0,1.5479-1.188,2.7725-2.9155,2.7725-1.6919,0-2.8799-1.2246-2.8799-2.7725,0-1.583,1.188-2.8076,2.8799-2.8076,1.7275,0,2.9155,1.2246,2.9155,2.8076ZM175.7632,217.3105h-4.6074v-19.041h4.6074v19.041Z"/>
    <path d="M186.4551,196.2539v2.0156h4.5713l-.5039,3.3115h-4.0674v15.7295h-4.6074v-15.7295h-3.0957v-3.3115h3.0957v-2.0879c0-3.4561,2.3037-6.0479,6.6953-6.0479,1.9077,0,3.4556.4326,4.9312,1.1162l-1.3315,3.0957c-1.1519-.54-2.2319-.7197-3.1318-.7197-1.8716,0-2.5557.8281-2.5557,2.6279Z"/>
    <path d="M209.3135,209.2119h-11.9507c.3604,3.8877,2.1602,5.1475,4.6797,5.1475,1.6919,0,3.0957-.54,4.7515-1.6924l1.9077,2.6279c-1.8716,1.5117-4.1753,2.5557-7.0552,2.5557-5.9033,0-9.0708-3.9238-9.0708-9.9346,0-5.7949,3.0596-10.1865,8.459-10.1865,5.3271,0,8.3867,3.5996,8.3867,9.6104,0,.6123-.0718,1.3682-.1079,1.8721ZM204.8501,206.0078c0-3.1309-1.1157-5.0029-3.7075-5.0029-2.1597,0-3.5273,1.4395-3.7798,5.2197h7.4873v-.2168Z"/>
    <path d="M227.5664,217.3105h-4.7515v-24.873h4.7515v24.873Z"/>
    <path d="M248.8047,203.5244v13.7861h-4.6074v-13.0664c0-2.375-.8999-3.0596-2.3398-3.0596-1.6558,0-2.8794,1.1162-3.9956,2.8799v13.2461h-4.6074v-19.041h3.9956l.3599,2.5195c1.4761-1.9082,3.3838-3.0596,5.7954-3.0596,3.4194,0,5.3994,2.1592,5.3994,5.7949Z"/>
    <path d="M259.3179,196.2539v2.0156h4.5713l-.5039,3.3115h-4.0674v15.7295h-4.6074v-15.7295h-3.0957v-3.3115h3.0957v-2.0879c0-3.4561,2.3037-6.0479,6.6953-6.0479,1.9077,0,3.4556.4326,4.9312,1.1162l-1.3315,3.0957c-1.1519-.54-2.2319-.7197-3.1318-.7197-1.8716,0-2.5557.8281-2.5557,2.6279Z"/>
    <path d="M283.3638,207.7725c0,6.0107-3.3477,10.0781-8.9629,10.0781s-8.9629-3.8154-8.9629-10.0781c0-5.9756,3.3477-10.043,8.999-10.043,5.6152,0,8.9268,3.8154,8.9268,10.043ZM270.2974,207.7725c0,4.5713,1.4038,6.5869,4.1035,6.5869s4.1035-2.0518,4.1035-6.5869-1.4038-6.5518-4.0674-6.5518c-2.6997,0-4.1396,2.0518-4.1396,6.5518Z"/>
    <path d="M298.9883,198.0176l-.792,4.4629c-.5757-.1436-1.0439-.2158-1.6919-.2158-2.3394,0-3.4912,1.6914-4.2114,4.9316v10.1143h-4.6074v-19.041h3.9956l.4321,3.7432c.8999-2.7354,2.7354-4.2471,4.9673-4.2471.6841,0,1.2959.0713,1.9077.252Z"/>
    <path d="M327.1025,203.5244v13.7861h-4.6074v-13.0664c0-2.375-.936-3.0596-2.0874-3.0596-1.584,0-2.5562,1.1162-3.5996,2.8799v13.2461h-4.6074v-13.0664c0-2.375-.9722-3.0596-2.0879-3.0596-1.6196,0-2.5918,1.1162-3.6357,2.8799v13.2461h-4.6074v-19.041h3.9956l.3599,2.4834c1.3682-1.9082,3.0957-3.0234,5.5073-3.0234,2.1958,0,3.8877,1.1514,4.6436,3.2031,1.4399-2.0156,3.1675-3.2031,5.6875-3.2031,3.0234,0,5.0391,2.1953,5.0391,5.7949Z"/>
    <path d="M347.9834,214.7188l-.9717,3.0596c-2.0879-.1797-3.4556-.8994-4.2114-2.7715-1.332,2.0156-3.4199,2.8438-5.6875,2.8438-3.8154,0-6.1553-2.4111-6.1553-5.8672,0-4.1396,3.1318-6.3711,8.6748-6.3711h2.376v-1.0801c0-2.4834-1.1157-3.3115-3.5635-3.3115-1.2959,0-3.1318.3604-5.0396,1.0078l-1.0801-3.1318c2.3398-.8994,4.7515-1.3672,6.9111-1.3672,5.0757,0,7.3071,2.3398,7.3071,6.5508v7.9912c0,1.5479.5039,2.0879,1.4399,2.4473ZM342.0083,212.1631v-3.8516h-1.9077c-2.9878,0-4.4634,1.0801-4.4634,3.3115,0,1.8359.9355,2.8799,2.6992,2.8799,1.6201,0,2.8081-.8281,3.6719-2.3398Z"/>
    <path d="M363.0317,216.4111c-1.3677.9717-3.0957,1.4395-4.7871,1.4395-3.7437-.0361-5.7236-2.1592-5.7236-6.2275v-10.042h-2.9873v-3.3115h2.9873v-4.2119l4.6074-.54v4.752h4.4277l-.4683,3.3115h-3.9595v9.9346c0,1.8721.6118,2.6279,2.0156,2.6279.7202,0,1.4399-.2168,2.2681-.7207l1.6196,2.9883Z"/>
    <path d="M370.8086,191.4297c0,1.5479-1.188,2.7725-2.9155,2.7725-1.6919,0-2.8799-1.2246-2.8799-2.7725,0-1.583,1.188-2.8076,2.8799-2.8076,1.7275,0,2.9155,1.2246,2.9155,2.8076ZM370.2324,217.3105h-4.6074v-19.041h4.6074v19.041Z"/>
    <path d="M392.479,207.7725c0,6.0107-3.3477,10.0781-8.9629,10.0781s-8.9629-3.8154-8.9629-10.0781c0-5.9756,3.3477-10.043,8.999-10.043,5.6152,0,8.9268,3.8154,8.9268,10.043ZM379.4126,207.7725c0,4.5713,1.4038,6.5869,4.1035,6.5869s4.1035-2.0518,4.1035-6.5869-1.4038-6.5518-4.0674-6.5518c-2.6997,0-4.1396,2.0518-4.1396,6.5518Z"/>
    <path d="M412.3511,203.5244v13.7861h-4.6074v-13.0664c0-2.375-.8999-3.0596-2.3398-3.0596-1.6558,0-2.8794,1.1162-3.9956,2.8799v13.2461h-4.6074v-19.041h3.9956l.3599,2.5195c1.4761-1.9082,3.3838-3.0596,5.7954-3.0596,3.4194,0,5.3994,2.1592,5.3994,5.7949Z"/>
    <path d="M444.2822,200.3564c0,5.7236-4.1396,8.2793-9.7549,8.2793h-2.9155v8.6748h-4.7515v-24.873h7.3433c6.2632,0,10.0786,2.5557,10.0786,7.9189ZM439.3149,200.3564c0-3.1309-1.9077-4.4268-5.1475-4.4268h-2.5557v9.1426h2.5557c3.1675,0,5.1475-1.0801,5.1475-4.7158Z"/>
    <path d="M447.812,212.9551v-22.3174l4.6074-.5039v22.6777c0,.8994.3237,1.332,1.0796,1.332.4321,0,.7559-.0723,1.0801-.1807l.9717,3.2402c-.792.3594-1.8716.6475-3.0596.6475-2.9155,0-4.6792-1.7637-4.6792-4.8955Z"/>
    <path d="M474.126,214.7188l-.9717,3.0596c-2.0879-.1797-3.4556-.8994-4.2114-2.7715-1.332,2.0156-3.4199,2.8438-5.6875,2.8438-3.8154,0-6.1553-2.4111-6.1553-5.8672,0-4.1396,3.1318-6.3711,8.6748-6.3711h2.376v-1.0801c0-2.4834-1.1157-3.3115-3.5635-3.3115-1.2959,0-3.1318.3604-5.0396,1.0078l-1.0801-3.1318c2.3398-.8994,4.7515-1.3672,6.9111-1.3672,5.0757,0,7.3071,2.3398,7.3071,6.5508v7.9912c0,1.5479.5039,2.0879,1.4399,2.4473ZM468.1509,212.1631v-3.8516h-1.9077c-2.9878,0-4.4634,1.0801-4.4634,3.3115,0,1.8359.9355,2.8799,2.6992,2.8799,1.6201,0,2.8081-.8281,3.6719-2.3398Z"/>
    <path d="M489.1743,216.4111c-1.3677.9717-3.0957,1.4395-4.7871,1.4395-3.7437-.0361-5.7236-2.1592-5.7236-6.2275v-10.042h-2.9873v-3.3115h2.9873v-4.2119l4.6074-.54v4.752h4.4277l-.4683,3.3115h-3.9595v9.9346c0,1.8721.6118,2.6279,2.0156,2.6279.7202,0,1.4399-.2168,2.2681-.7207l1.6196,2.9883Z"/>
    <path d="M496.915,196.2539v2.0156h4.5713l-.5039,3.3115h-4.0674v15.7295h-4.6074v-15.7295h-3.0957v-3.3115h3.0957v-2.0879c0-3.4561,2.3037-6.0479,6.6953-6.0479,1.9077,0,3.4556.4326,4.9312,1.1162l-1.3315,3.0957c-1.1519-.54-2.2319-.7197-3.1318-.7197-1.8716,0-2.5557.8281-2.5557,2.6279Z"/>
    <path d="M520.9619,207.7725c0,6.0107-3.3477,10.0781-8.9634,10.0781s-8.9629-3.8154-8.9629-10.0781c0-5.9756,3.3477-10.043,8.999-10.043,5.6157,0,8.9272,3.8154,8.9272,10.043ZM507.895,207.7725c0,4.5713,1.4038,6.5869,4.1035,6.5869s4.104-2.0518,4.104-6.5869-1.4043-6.5518-4.0679-6.5518c-2.6997,0-4.1396,2.0518-4.1396,6.5518Z"/>
    <path d="M536.5859,198.0176l-.792,4.4629c-.5752-.1436-1.0439-.2158-1.6914-.2158-2.3398,0-3.4912,1.6914-4.2119,4.9316v10.1143h-4.6074v-19.041h3.9961l.4316,3.7432c.9004-2.7354,2.7354-4.2471,4.9678-4.2471.6836,0,1.2959.0713,1.9072.252Z"/>
    <path d="M564.7002,203.5244v13.7861h-4.6074v-13.0664c0-2.375-.9355-3.0596-2.0869-3.0596-1.584,0-2.5566,1.1162-3.5996,2.8799v13.2461h-4.6074v-13.0664c0-2.375-.9727-3.0596-2.0879-3.0596-1.6201,0-2.5918,1.1162-3.6357,2.8799v13.2461h-4.6074v-19.041h3.9951l.3604,2.4834c1.3682-1.9082,3.0957-3.0234,5.5068-3.0234,2.1963,0,3.8877,1.1514,4.6436,3.2031,1.4404-2.0156,3.168-3.2031,5.6875-3.2031,3.0234,0,5.0391,2.1953,5.0391,5.7949Z"/>
    <path d="M582.8457,199.9971l-1.7998,2.6992c-1.584-1.0078-3.0957-1.5479-4.7871-1.5479-1.8359,0-2.8799.7559-2.8799,1.9082,0,1.2598.7559,1.8359,3.9961,2.7354,3.8867,1.0439,6.083,2.6279,6.083,6.0117,0,3.959-3.6719,6.0469-8.0273,6.0469-3.2754,0-5.8311-1.1152-7.5947-2.6992l2.3037-2.5918c1.4756,1.1152,3.2393,1.8721,5.1836,1.8721,2.0518,0,3.3828-.8643,3.3828-2.3037,0-1.584-.7559-2.0879-4.3193-3.0957-3.9238-1.0801-5.6514-2.9521-5.6514-5.7598,0-3.168,2.916-5.543,7.3438-5.543,2.7354,0,4.9668.8633,6.7666,2.2676Z"/>
    <path d="M601.0986,217.3105h-4.751v-24.873h4.751v24.873Z"/>
    <path d="M622.3369,203.5244v13.7861h-4.6074v-13.0664c0-2.375-.8994-3.0596-2.3389-3.0596-1.6562,0-2.8799,1.1162-3.9961,2.8799v13.2461h-4.6074v-19.041h3.9961l.3594,2.5195c1.4756-1.9082,3.3838-3.0596,5.7959-3.0596,3.4189,0,5.3984,2.1592,5.3984,5.7949Z"/>
    <path d="M640.4814,199.9971l-1.7998,2.6992c-1.584-1.0078-3.0957-1.5479-4.7871-1.5479-1.8359,0-2.8799.7559-2.8799,1.9082,0,1.2598.7559,1.8359,3.9961,2.7354,3.8867,1.0439,6.083,2.6279,6.083,6.0117,0,3.959-3.6719,6.0469-8.0273,6.0469-3.2754,0-5.8311-1.1152-7.5947-2.6992l2.3037-2.5918c1.4756,1.1152,3.2393,1.8721,5.1836,1.8721,2.0518,0,3.3828-.8643,3.3828-2.3037,0-1.584-.7559-2.0879-4.3193-3.0957-3.9229-1.0801-5.6514-2.9521-5.6514-5.7598,0-3.168,2.916-5.543,7.3438-5.543,2.7354,0,4.9668.8633,6.7666,2.2676Z"/>
    <path d="M655.7461,216.4111c-1.3682.9717-3.0957,1.4395-4.7881,1.4395-3.7432-.0361-5.7227-2.1592-5.7227-6.2275v-10.042h-2.9883v-3.3115h2.9883v-4.2119l4.6074-.54v4.752h4.4268l-.4678,3.3115h-3.959v9.9346c0,1.8721.6113,2.6279,2.0156,2.6279.7197,0,1.4395-.2168,2.2676-.7207l1.6201,2.9883Z"/>
    <path d="M663.5225,191.4297c0,1.5479-1.1875,2.7725-2.916,2.7725-1.6914,0-2.8789-1.2246-2.8789-2.7725,0-1.583,1.1875-2.8076,2.8789-2.8076,1.7285,0,2.916,1.2246,2.916,2.8076ZM662.9463,217.3105h-4.6074v-19.041h4.6074v19.041Z"/>
    <path d="M679.3984,216.4111c-1.3682.9717-3.0957,1.4395-4.7881,1.4395-3.7432-.0361-5.7227-2.1592-5.7227-6.2275v-10.042h-2.9883v-3.3115h2.9883v-4.2119l4.6074-.54v4.752h4.4268l-.4678,3.3115h-3.959v9.9346c0,1.8721.6113,2.6279,2.0156,2.6279.7197,0,1.4395-.2168,2.2676-.7207l1.6201,2.9883Z"/>
    <path d="M697.2178,217.3105h-3.9961l-.252-2.6631c-1.4033,2.1592-3.2393,3.2031-5.8311,3.2031-3.4551,0-5.3271-2.2314-5.3271-5.9033v-13.6777h4.6074v13.1016c0,2.2324.7559,2.9883,2.3398,2.9883,1.5479,0,2.8438-1.0439,3.8516-2.7002v-13.3896h4.6074v19.041Z"/>
    <path d="M713.6699,216.4111c-1.3682.9717-3.0957,1.4395-4.7881,1.4395-3.7432-.0361-5.7227-2.1592-5.7227-6.2275v-10.042h-2.9883v-3.3115h2.9883v-4.2119l4.6074-.54v4.752h4.4268l-.4678,3.3115h-3.959v9.9346c0,1.8721.6113,2.6279,2.0156,2.6279.7197,0,1.4395-.2168,2.2676-.7207l1.6201,2.9883Z"/>
    <path d="M731.7773,209.2119h-11.9512c.3604,3.8877,2.1602,5.1475,4.6797,5.1475,1.6914,0,3.0957-.54,4.751-1.6924l1.9082,2.6279c-1.8721,1.5117-4.1758,2.5557-7.0547,2.5557-5.9033,0-9.0713-3.9238-9.0713-9.9346,0-5.7949,3.0596-10.1865,8.459-10.1865,5.3271,0,8.3867,3.5996,8.3867,9.6104,0,.6123-.0723,1.3682-.1074,1.8721ZM727.3135,206.0078c0-3.1309-1.1162-5.0029-3.708-5.0029-2.1592,0-3.5273,1.4395-3.7793,5.2197h7.4873v-.2168Z"/>
  </g>
</svg>