<svg xmlns="http://www.w3.org/2000/svg" version="1.1" viewBox="0 0 714 256" width="714" height="256">
  <polygon points="713.6062 256 473.6062 255.8488 473.6062 0 713.6062 0 713.6062 256" fill="#5eaf30" stroke-width="0"/>
  <g>
    <path d="M88.3164,165.9648h-15.4795l-2.1597-34.6787c-.7202-12.2393-1.3198-25.0786-1.0801-33.8384l-15.1196,59.5176h-14.999l-16.0796-59.6377c.48,11.1597.2402,22.5591-.48,34.4385l-2.04,34.1987H5.5195l6.6001-82.9165h20.3989l14.7598,58.0776,13.9189-58.0776h20.6396l6.4795,82.9165Z" fill="#1a140f" stroke-width="0"/>
    <path d="M153.4883,138.9658h-39.8384c1.1997,12.9595,7.1997,17.1597,15.5991,17.1597,5.6401,0,10.3198-1.8003,15.8398-5.6401l6.3594,8.7598c-6.2397,5.0396-13.9194,8.5195-23.519,8.5195-19.6792,0-30.2388-13.0796-30.2388-33.1187,0-19.3193,10.1997-33.9585,28.1992-33.9585,17.7588,0,27.9585,11.9995,27.9585,32.0386,0,2.04-.2397,4.5601-.3599,6.2397ZM138.6089,128.2866c0-10.4399-3.7197-16.6797-12.3594-16.6797-7.1997,0-11.7598,4.7998-12.5996,17.3994h24.959v-.7197Z" fill="#1a140f" stroke-width="0"/>
    <path d="M217.2666,120.0068v45.958h-15.3594v-43.5581c0-7.9199-3-10.1997-7.7998-10.1997-5.5195,0-9.5996,3.7197-13.3193,9.5996v44.1582h-15.3594v-63.4775h13.3193l1.2002,8.3999c4.9194-6.3599,11.2793-10.1997,19.3188-10.1997,11.3999,0,17.9995,7.1997,17.9995,19.3193Z" fill="#1a140f" stroke-width="0"/>
    <path d="M283.7939,120.0068v45.958h-15.3594v-43.5581c0-7.9199-3.1201-10.1997-7.7998-10.1997-5.3999,0-9.5996,3.7197-13.3193,9.4795v44.2783h-15.3594v-88.7964l15.3594-1.5601v34.5586c4.7998-5.9995,10.9194-9.4795,18.479-9.4795,11.2798,0,17.9995,7.3198,17.9995,19.3193Z" fill="#1a140f" stroke-width="0"/>
    <path d="M350.813,138.9658h-39.8384c1.2002,12.9595,7.1997,17.1597,15.5996,17.1597,5.6396,0,10.3193-1.8003,15.8389-5.6401l6.3599,8.7598c-6.2397,5.0396-13.9194,8.5195-23.519,8.5195-19.6792,0-30.2388-13.0796-30.2388-33.1187,0-19.3193,10.1997-33.9585,28.1987-33.9585,17.7598,0,27.959,11.9995,27.959,32.0386,0,2.04-.2397,4.5601-.3599,6.2397ZM335.9336,128.2866c0-10.4399-3.7197-16.6797-12.3594-16.6797-7.1997,0-11.7598,4.7998-12.5996,17.3994h24.959v-.7197Z" fill="#1a140f" stroke-width="0"/>
    <path d="M400.4316,101.6475l-2.6396,14.8794c-1.9199-.48-3.48-.7197-5.6396-.7197-7.7998,0-11.6396,5.6396-14.0396,16.439v33.7188h-15.3594v-63.4775h13.3193l1.4399,12.4795c3-9.1196,9.1196-14.1592,16.5596-14.1592,2.2798,0,4.3193.2397,6.3594.8398Z" fill="#1a140f" stroke-width="0"/>
    <path d="M460.0479,157.3252l-3.2402,10.1997c-6.96-.6001-11.5195-3-14.0396-9.2397-4.4399,6.7197-11.3994,9.4795-18.9595,9.4795-12.7192,0-20.519-8.0396-20.519-19.5591,0-13.7993,10.4399-21.2393,28.9189-21.2393h7.9194v-3.5996c0-8.2798-3.7197-11.0396-11.8794-11.0396-4.3198,0-10.4395,1.1997-16.7993,3.3599l-3.5996-10.4395c7.7998-3,15.8394-4.5601,23.0391-4.5601,16.9189,0,24.3584,7.7998,24.3584,21.8394v26.6387c0,5.1597,1.6807,6.96,4.8008,8.1597ZM440.1279,148.8057v-12.8394h-6.3594c-9.96,0-14.8794,3.5996-14.8794,11.0391,0,6.1201,3.1196,9.5996,8.9995,9.5996,5.3999,0,9.3594-2.7598,12.2393-7.7993Z" fill="#1a140f" stroke-width="0"/>
  </g>
  <g>
    <path d="M512.3218,156.3066c0,5.2803-4.3198,9.7197-9.8398,9.7197-5.3994,0-9.5996-4.4395-9.5996-9.7197,0-5.3994,4.2002-9.7197,9.5996-9.7197,5.52,0,9.8398,4.3203,9.8398,9.7197Z" fill="#fff" stroke-width="0"/>
    <path d="M578.583,132.4277c0,20.0391-11.1597,33.5986-29.8789,33.5986s-29.8789-12.7197-29.8789-33.5986c0-19.9189,11.1597-33.4785,29.999-33.4785,18.7192,0,29.7588,12.7197,29.7588,33.4785ZM535.0249,132.4277c0,15.2393,4.6797,21.959,13.6792,21.959s13.6792-6.8398,13.6792-21.959-4.6797-21.8389-13.5591-21.8389c-8.9995,0-13.7993,6.8398-13.7993,21.8389Z" fill="#fff" stroke-width="0"/>
    <path d="M627.9517,99.9092l-2.6396,14.8789c-1.9199-.4795-3.48-.7197-5.6396-.7197-7.7998,0-11.6396,5.6396-14.0396,16.4395v33.7188h-15.3594v-63.4775h13.3193l1.4399,12.4795c3-9.1191,9.1196-14.1592,16.5596-14.1592,2.2798,0,4.3193.2402,6.3594.8398Z" fill="#fff" stroke-width="0"/>
    <path d="M691.7788,104.1094c-4.7998,1.6797-10.7998,2.1592-18.3594,2.1592,7.6797,3.4805,11.5195,8.4004,11.5195,16.3193,0,12.3604-9.5996,21.3594-25.5591,21.3594-2.7598,0-5.1597-.2402-7.5596-.96-1.5601,1.0801-2.6401,2.7598-2.6401,4.6797,0,2.2803,1.3203,4.4404,7.6797,4.4404h9.7197c14.0396,0,23.1592,7.5596,23.1592,17.999,0,12.7197-10.9194,20.2793-31.6787,20.2793-22.5591,0-28.9189-7.2002-28.9189-19.9199h13.7998c0,6.3604,2.7598,9.1201,15.3594,9.1201,12.3594,0,15.959-3.3604,15.959-8.3994,0-4.6797-3.7197-7.5596-10.7993-7.5596h-9.5996c-12.7197,0-18.1196-5.6396-18.1196-12.2402,0-4.4395,2.7603-8.8789,7.4399-11.7588-7.7998-4.0801-11.1597-9.7197-11.1597-17.8799,0-13.7988,10.9199-22.7988,26.2793-22.7988,14.999.3604,21.959-3,29.6387-7.0801l3.8398,12.2402ZM647.5005,121.5088c0,7.6797,4.1997,12.4785,11.2793,12.4785,7.3198,0,11.2798-4.5596,11.2798-12.5986s-3.8398-12-11.5195-12c-6.9595,0-11.0396,4.7998-11.0396,12.1201Z" fill="#fff" stroke-width="0"/>
  </g>
</svg>