<?xml version="1.0" encoding="utf-8"?>
<!-- Generator: Adobe Illustrator 28.2.0, SVG Export Plug-In . SVG Version: 6.00 Build 0)  -->
<svg version="1.1" id="レイヤー_1" xmlns="http://www.w3.org/2000/svg" xmlns:xlink="http://www.w3.org/1999/xlink" x="0px"
	 y="0px" viewBox="0 0 1500 300" enable-background="new 0 0 1500 300" xml:space="preserve">
<g>
	<g>
		<path d="M573.4482,160.6323h10.3682v14.4961h30.8154v8.7358h-30.8154v18.3359h26.1123v8.4482h-26.1123v23.0396h34.0801v8.7363
			h-81.792v-8.7363h37.3438v-23.0396h-24.6719v-8.4482h24.6719v-18.3359h-21.2158c-2.8174,8.2559-5.8564,15.4243-9.1201,21.5039
			l-8.832-4.6079c6.0146-11.583,10.623-24.3843,13.8242-38.3999l9.5996,1.6318c-0.832,3.9043-1.7275,7.6172-2.6875,11.1362h18.4316
			V160.6323z"/>
		<path d="M640.5811,203.5444c-5.248-4.9277-10.9443-9.7275-17.0879-14.4004l5.7598-6.8159
			c6.4639,4.7373,12.1924,9.4409,17.1846,14.1123L640.5811,203.5444z M648.9336,213.4321
			c-3.4561,11.52-8.3525,21.9209-14.6885,31.2002l-8.0635-5.2803c5.8223-8.7676,10.5908-18.5278,14.3037-29.2798L648.9336,213.4321z
			 M627.7168,168.5044l5.7607-6.9121c5.8867,4.2886,11.0713,8.5439,15.5518,12.7681l-5.8564,7.0078
			C638.6279,177.0811,633.4775,172.7925,627.7168,168.5044z M653.8291,168.6001c20.0312,0,37.3115-2.3354,51.8398-7.0078
			l2.4004,8.6401c-5.8242,1.9199-13.3125,3.5518-22.4639,4.896v11.3276h25.1514v8.4482h-25.1514v11.3281h20.4473v38.5918h-9.8877
			v-4.7041h-31.7754v4.7041h-9.6006v-38.5918h20.4482v-11.3281H650.085v-8.4482h25.1523V176.376
			c-6.6572,0.5762-13.6318,0.8643-20.9277,0.8643L653.8291,168.6001z M696.165,232.0562v-17.856h-31.7754v17.856H696.165z"/>
		<path d="M722.4023,211.9922l-7.4883-1.4399c2.1748-11.0068,3.7441-21.855,4.7041-32.5439l7.4873,0.6719
			C726.0811,190.6489,724.5137,201.7534,722.4023,211.9922z M779.1377,189.2402h24.6719v7.584h-57.1201l-5.9512,1.248
			c-0.4492-2.9429-1.3125-7.5513-2.5928-13.8242v61.248h-9.8877v-84.6719h9.8877v15.7441l5.4727-1.248
			c0.7676,3.0088,1.791,7.6484,3.0713,13.9199h22.0801v-4.2241h-20.4473v-7.2959h20.4473v-4.2241h-23.8076v-7.7759h23.8076v-6.3359
			h10.3682v6.3359h22.752v7.7759h-22.752v4.2241h19.9678v7.2959h-19.9678V189.2402z M786.9141,244.8242
			c-2.3037,0-6.1768-0.1606-11.6162-0.48l-0.1924-8.4482c4.6719,0.2568,8.127,0.3843,10.3682,0.3843
			c1.8555,0,2.9434-0.1108,3.2646-0.3359c0.3193-0.2236,0.4795-0.9751,0.4795-2.2563v-2.1118h-32.2559v13.4399h-10.0801V200.376
			h52.416v33.312c0,5.1196-0.6572,8.2563-1.9678,9.4082C796.0176,244.248,792.5449,244.8242,786.9141,244.8242z M756.9619,212.7603
			h32.2559v-4.7041h-32.2559V212.7603z M756.9619,219.8643v4.7041h32.2559v-4.7041H756.9619z"/>
		<path d="M864.4531,204.0244l7.8721-4.2241c1.4707,5.8892,3.9668,11.8081,7.4873,17.7598
			c3.0723-5.9517,5.1846-12.6074,6.3359-19.9678h-23.8076v47.52h-9.4082v-30.2402h-16.0322v9.6963h13.9209v7.7759h-13.9209v13.6318
			h-9.792v-13.6318H812.709v-7.7759h14.3994v-9.6963h-15.8398v-8.1597h9.1201c-0.96-5.376-2.0801-10.7192-3.3594-16.0322h-6.1445
			v-8.2559h16.2236v-8.6401h-13.6318v-7.7759h13.6318v-6.624h9.792v6.624h13.4404v7.7759h-13.4404v8.6401h16.0322v-19.3921h42.624
			l-0.1914,3.936c-0.3848,5.9521-0.833,10.1611-1.3447,12.624c-0.5127,2.4644-1.1846,4.0317-2.0156,4.7041
			c-0.833,0.6719-2.2412,1.0078-4.2236,1.0078c-2.4961,0-8.2246-0.1592-17.1846-0.48l-0.1914-7.6802
			c5.1191,0.2568,9.5039,0.3843,13.1514,0.3843c0.8955,0,1.4717-0.2881,1.7285-0.8643c0.2549-0.5757,0.5107-2.4629,0.7676-5.6641
			h-23.7119v18.3364h32.832v8.2559c-1.4082,10.1758-4.6406,19.521-9.6963,28.0317c3.5195,4.2886,7.584,7.9053,12.1924,10.8481
			l-3.3604,8.7358c-5.1211-2.9443-9.8252-6.8804-14.1113-11.8076c-3.3936,4.2881-7.3613,8.127-11.9043,11.52l-4.7998-8.1602
			c4.0312-2.8799,7.6797-6.4634,10.9434-10.752C869.9561,219.2881,866.6279,211.9609,864.4531,204.0244z M828.9326,206.7124h6.5283
			c1.6631-4.9277,3.0723-10.272,4.2236-16.0322h-14.0156C826.7559,195.2881,827.8438,200.6328,828.9326,206.7124z
			 M852.9326,206.7124v-16.0322h-4.416c-1.1514,5.6323-2.5605,10.9771-4.2236,16.0322H852.9326z"/>
		<path d="M950.7471,228.312v6.8164h35.5205v7.9678h-81.4082v-7.9678h35.5195v-6.8164h-22.8477v-4.2236
			c-4.0967,2.1763-8.4482,4.0649-13.0557,5.6641l-3.2646-8.2563c9.2793-3.0718,16.5127-6.5278,21.6963-10.3677H903.707v-7.9683
			h14.3047v-28.0317H904.667v-7.9683h13.3447v-8.2559h10.1758v8.2559h34.752v-8.2559h10.1758v8.2559h13.3438v7.9683h-13.3438
			v28.0317h14.3037v7.9683h-19.2002c5.1846,3.8398,12.416,7.2959,21.6963,10.3677l-3.2637,8.2563
			c-4.7998-1.728-9.1533-3.6484-13.0557-5.7603v4.3198H950.7471z M967.835,220.5361c-4.0312-2.751-7.6484-5.8872-10.8477-9.4077
			h-22.6562c-3.2637,3.585-6.9121,6.7197-10.9434,9.4077h16.9912v-7.0078h10.3682v7.0078H967.835z M928.1875,180.1201h34.752
			v-4.9917h-34.752V180.1201z M928.1875,186.6484v4.9917h34.752v-4.9917H928.1875z M928.1875,198.2642v4.896h34.752v-4.896H928.1875
			z"/>
		<path d="M1013.0898,193.1763l-3.4561,0.2881c-0.2559,5.313-0.9287,9.6479-2.0156,13.0078
			c-1.0889,3.3599-2.7217,6.48-4.8965,9.3599l-8.4473-3.936c1.9199-2.5586,3.3594-5.1357,4.3193-7.7275
			c0.96-2.5923,1.5996-5.9043,1.9199-9.936l-5.5674,0.48v-8.064l5.8555-0.48v-1.8242v-20.2559h10.752
			c0.3193-0.8955,0.8955-2.8472,1.7285-5.856l9.8877,0.6719c-0.5762,2.1763-1.0889,3.9043-1.5361,5.1841h12.5762V183.48
			l3.8398-0.2876v7.9678l-3.8398,0.2881v12.1919c0,4.0967-0.5127,6.6406-1.5361,7.6318c-1.0244,0.9932-3.6475,1.4883-7.8721,1.4883
			c-2.4961,0-5.376-0.1274-8.6396-0.3843l-0.4805-8.2559c3.7754,0.3213,6.3682,0.48,7.7764,0.48
			c1.0225,0,1.6318-0.1274,1.8242-0.3838c0.1914-0.2549,0.2881-1.1519,0.2881-2.688v-9.312l-4.5127,0.3838v10.0801h-7.9678V193.1763
			z M1004.6416,236.0884v-20.7363h67.1992v20.7363h8.7363v7.9678h-84.6709v-7.9678H1004.6416z M1017.8896,184.8242
			c-2.2402-3.2642-4.7041-6.3989-7.3916-9.4082l5.8555-3.7437h-6.5273v13.8237L1017.8896,184.8242z M1024.6104,236.0884v-12.96
			h-10.3682v12.96H1024.6104z M1019.042,184.728l6.5283-0.5757v-12.48h-8.0645c2.3672,2.5605,4.7998,5.6011,7.2959,9.1196
			L1019.042,184.728z M1043.4258,236.0884v-12.96h-10.3682v12.96H1043.4258z M1039.874,192.312v-7.4878h38.1113v7.4878
			c-2.8164,4.2886-6.209,7.8091-10.1758,10.5601c3.9668,1.3442,8.5449,2.5293,13.7285,3.5522l-2.4004,8.064
			c-7.168-1.4072-14.0156-3.5522-20.5439-6.4321c-5.5049,2.4331-12.2881,4.4805-20.3516,6.144l-3.0723-7.7759
			c5.2471-0.7681,9.9512-1.8242,14.1123-3.168c-3.2646-1.9199-6.3047-4.1597-9.1201-6.7202l6.5283-4.2241H1039.874z
			 M1051.6816,169.0801v1.1523c0,2.8169-0.7051,5.4883-2.1113,8.0156c-1.4092,2.5293-3.3936,4.5601-5.9521,6.0962l-7.6807-4.896
			c2.4961-1.6636,4.2871-3.6001,5.376-5.8081c1.0879-2.208,1.6328-4.9756,1.6328-8.3037v-3.8403h26.7832v12.96
			c0,0.5762,0.0625,0.9121,0.1914,1.0083c0.1289,0.0957,0.543,0.144,1.248,0.144c1.4082,0,2.2402-0.2236,2.4961-0.6724
			c0.2559-0.4468,0.4473-2.0786,0.5762-4.896l7.9688,0.6724c-0.2559,3.3281-0.4805,5.6636-0.6719,7.0078
			c-0.1934,1.3442-0.7852,2.4961-1.7773,3.4561s-2.127,1.4878-3.4062,1.584c-1.2812,0.0962-3.4902,0.144-6.625,0.144
			c-4.0957,0-6.7197-0.2715-7.8711-0.8159c-1.1523-0.543-1.7285-1.6802-1.7285-3.4082v-9.6001H1051.6816z M1058.6904,199.2241
			c3.7109-2.1118,6.7188-4.416,9.0234-6.9121h-19.7764C1050.8809,194.8726,1054.4658,197.1768,1058.6904,199.2241z
			 M1051.874,236.0884h10.3682v-12.96h-10.3682V236.0884z"/>
		<path d="M1090.2256,172.1523v-8.5439h33.8877v8.5439h-14.4961c-0.8965,6.6567-2.5283,13.377-4.8955,20.1597h19.3916v43.2964
			h-18.8154v7.4878h-9.2168v-34.0801c-1.9199,3.4561-3.9688,6.5283-6.1436,9.2163l-2.8799-11.4243
			c6.9746-9.2158,11.4551-20.7676,13.4395-34.6558H1090.2256z M1105.2979,227.3521h10.0801v-26.4956h-10.0801V227.3521z
			 M1136.1133,195.1924c0.1279-5.8877,0.1924-10.8481,0.1924-14.8804v-8.1597h-8.6406v-8.5439h48.1924v8.5439h-8.9277v23.04h9.8877
			v8.4478h-9.8877v40.416h-9.8877v-40.416h-11.7129c-0.7041,11.0088-2.0967,19.4883-4.1758,25.4399
			c-2.0801,5.9521-5.2002,11.2319-9.3594,15.8403l-7.1045-7.4883c3.4561-3.7109,6.0146-7.9199,7.6797-12.624
			c1.6641-4.7041,2.7842-11.7598,3.3604-21.168h-9.3115v-8.4478H1136.1133z M1145.7139,195.1924h11.3281v-23.04h-11.04v8.1597
			C1146.002,185.688,1145.9053,190.6489,1145.7139,195.1924z"/>
		<path d="M1252.7344,235.1284c3.2646,0,5.2324-0.687,5.9043-2.064c0.6719-1.376,1.2959-6.0317,1.8721-13.9683l9.1201,1.0562
			c-0.2568,4.0962-0.4971,7.2642-0.7197,9.5039c-0.2256,2.2407-0.6572,4.3682-1.2969,6.3838
			c-0.6396,2.0161-1.2637,3.4233-1.8711,4.2241c-0.6094,0.7993-1.6973,1.5029-3.2646,2.1118
			c-1.5684,0.6079-3.1523,0.9604-4.752,1.0562c-1.6006,0.0962-3.9043,0.144-6.9121,0.144c-6.2725,0-10.2236-0.561-11.8555-1.6802
			c-1.6318-1.1201-2.4482-3.6958-2.4482-7.7275v-18.8164h-16.7041c-1.9844,7.3608-5.6973,13.4087-11.1357,18.144
			c-5.4404,4.7358-13.2168,8.7363-23.3281,12l-4.7041-7.9678c8.7676-2.688,15.3604-5.6958,19.7764-9.0239
			c4.416-3.3271,7.4873-7.7119,9.2158-13.1523h-22.5605v-8.4478h24.1924c0.1924-2.4961,0.2881-5.1509,0.2881-7.9683h10.1758
			c0,3.0723-0.1289,5.7285-0.3838,7.9683h25.248v25.6318c0,1.2812,0.2549,2.0327,0.7676,2.2559
			C1247.8701,235.0171,1249.6631,235.1284,1252.7344,235.1284z M1250.0469,201.4321c-0.5127,0-1.3438,0.0166-2.4961,0.0479
			c-1.1523,0.0332-2.0156,0.0483-2.5918,0.0483c-2.3691,0-4.0654-0.0317-5.0879-0.0962c-4.8652-0.1919-7.9199-0.687-9.168-1.4878
			c-1.248-0.7998-1.8721-2.6069-1.8721-5.4243v-17.9517h-7.9688c-0.5127,13.4399-11.9365,22.3047-34.2715,26.5918l-2.4004-7.9678
			c17.8564-3.1997,26.7842-9.4082,26.7842-18.624h-16.5117v11.04h-9.6006V168.312h34.752v-9.8877h10.3682v9.8877h34.8486v16.5122
			h-9.6963v-8.2559h-16.416v13.9199c0,1.4731,0.1436,2.3521,0.4316,2.6401c0.2881,0.2876,1.3281,0.4648,3.1201,0.5278
			c0.7686,0.0645,2.0166,0.0962,3.7441,0.0962c1.7285,0,2.9766-0.0317,3.7441-0.0962c2.6875-0.1274,4.2715-0.4634,4.752-1.0078
			c0.4805-0.5435,0.8477-2.3193,1.1035-5.3281l9.6963,1.0557c-0.1914,2.2412-0.3525,3.9526-0.4795,5.1362
			c-0.1289,1.1851-0.4326,2.3369-0.9121,3.4561c-0.4805,1.1206-0.9766,1.8887-1.4883,2.3037
			c-0.5127,0.4175-1.3916,0.8164-2.6396,1.2002c-1.248,0.3843-2.5605,0.624-3.9365,0.7202
			C1254.4775,201.2881,1252.543,201.3691,1250.0469,201.4321z"/>
		<path d="M1275.5244,176.376h9.4082v-15.5518h9.2158v15.5518h5.4727c-0.4492-0.5112-1.0244-1.1997-1.7285-2.064
			c-0.7051-0.8638-1.2158-1.4878-1.5361-1.8716l6.3359-4.896c0.2559,0.3208,0.6875,0.8325,1.2969,1.5356
			c0.6074,0.7051,1.0391,1.2168,1.2959,1.5361c1.791-3.3271,3.583-6.9751,5.376-10.9438l7.3916,2.3037
			c-2.1123,4.6729-4.7041,9.6001-7.7764,14.7842c0.3203,0.3208,0.7686,0.8638,1.3447,1.6318s0.9912,1.3125,1.248,1.6323
			c2.4961-4.416,4.8955-8.9282,7.1992-13.5361l5.1846,1.6318c-0.0645-1.5991-0.0957-4.0317-0.0957-7.2959h8.9277
			c0,2.0488,0.0625,4.9292,0.1914,8.6401l2.9766-2.3999c0.5117,0.5757,1.2793,1.5044,2.3037,2.7837
			c2.4961-4.7998,4.1592-8.1914,4.9922-10.1758l7.3916,2.3037c-2.625,5.7603-5.0557,10.4971-7.2959,14.208
			c0.2549,0.3213,0.6396,0.8159,1.1523,1.4883c0.5117,0.6719,0.8955,1.1685,1.1523,1.4878
			c1.7275-2.9429,4.1279-7.4878,7.1992-13.6318l7.3926,2.3037c-3.0088,5.9521-5.7598,11.0088-8.2559,15.168l5.1836-1.4399
			c1.8555,6.8491,3.4561,13.8569,4.7998,21.0239l-7.0078,1.9204c-0.3838-1.6636-0.6719-2.9434-0.8643-3.8403l-4.7041,0.48
			c0.8311,1.3442,2.0791,3.4248,3.7441,6.2402h8.6406v7.9678h-13.7285l5.6641,3.8403c-2.1123,3.3931-4.6084,6.624-7.4883,9.6958
			c1.2803,1.8569,2.4482,3.249,3.5039,4.1763c1.0566,0.9282,1.8398,1.3916,2.3525,1.3916c1.2793,0,2.4629-3.936,3.5518-11.8076
			l7.4883,3.8398c-1.6006,12.2236-4.7998,18.3359-9.6006,18.3359c-4.6719,0-9.3447-3.2969-14.0156-9.8882
			c-5.3125,4.1597-11.3926,7.5195-18.2402,10.0801l-3.7441-7.8721c2.0479-0.7681,3.8076-1.4712,5.2803-2.1118
			c-3.9688-1.791-7.7441-4.3828-11.3281-7.7759c-2.3037,7.4878-5.6641,13.4399-10.0801,17.856l-7.1992-5.856
			c6.0791-6.0796,9.5664-14.0479,10.4639-23.9043h-7.584v-3.3599c-0.0645-0.1919-1.4736-3.6147-4.2246-10.272v43.7759h-9.2158
			V211.896c-1.7275,5.1841-3.7441,9.9214-6.0479,14.208l-5.1836-9.312c5.4385-10.1758,9.1826-20.8315,11.2314-31.9678h-9.4082
			V176.376z M1294.6289,184.8242c0.6387,1.2808,1.5986,3.2642,2.8799,5.9521c1.2793,2.688,2.2705,4.7368,2.9756,6.144l1.7285-0.0962
			c1.4072-2.0474,3.4561-5.1841,6.1436-9.4082c-3.0088-3.9028-5.0879-6.5591-6.2393-7.9678v5.376H1294.6289z M1329.5732,207.3843
			c-0.1924-0.8311-0.417-1.9199-0.6729-3.2642l-5.0879,2.0161l-1.248-3.7441l-18.7197,1.728
			c0.1279,0.2568,0.3672,0.7529,0.7197,1.4883c0.3516,0.7363,0.624,1.3286,0.8164,1.7759H1329.5732z M1320.165,195.48
			c-0.1924-0.4468-0.6406-1.6797-1.3447-3.6958s-1.2471-3.5039-1.6318-4.4639c-1.5361,2.4961-3.4883,5.4404-5.8555,8.832
			L1320.165,195.48z M1326.8848,233.688c3.6484-1.791,6.8477-3.7754,9.5996-5.9517c-1.792-3.6479-3.3926-7.7759-4.7998-12.3843
			h-16.6074c0,0.2568-0.0166,0.5928-0.0488,1.0083c-0.0322,0.417-0.0645,0.8008-0.0957,1.1519
			c-0.0332,0.3525-0.0811,0.6885-0.1436,1.0078c3.8398,4.0967,8.6709,7.3608,14.4961,9.792L1326.8848,233.688z M1327.1729,193.9443
			c-0.8975-6.3359-1.4727-13.3755-1.7285-21.1201c-2.8164,5.2485-4.9912,9.1201-6.5273,11.6162l4.2236-1.728
			C1324.9961,187.7686,1326.3398,191.5127,1327.1729,193.9443z M1336.3887,194.9043h0.4805
			c0.7676-1.0874,2.623-3.8716,5.5674-8.3521c-3.2012-4.2241-5.8242-7.6157-7.8721-10.1763
			C1334.9492,183.5449,1335.5566,189.7202,1336.3887,194.9043z M1338.7891,207.3843h7.3916
			c-0.7676-1.2798-1.9199-3.1353-3.4561-5.5679l-5.0879,0.48C1337.8916,203.5127,1338.2754,205.209,1338.7891,207.3843z
			 M1343.3965,221.3042c1.5361-1.728,3.0723-3.7109,4.6084-5.9521h-6.9121
			C1341.9238,217.7207,1342.6914,219.7051,1343.3965,221.3042z M1353.8604,193.6562c-0.8965-3.8398-1.5684-6.5908-2.0156-8.2559
			c-1.9844,3.2637-3.9043,6.2085-5.7598,8.832L1353.8604,193.6562z"/>
		<path d="M1440.6924,236.7603c1.5361,0,2.4629-0.207,2.7842-0.624c0.3193-0.4155,0.4805-1.6802,0.4805-3.792v-3.0723h-36.4805
			v16.2241h-9.5996V229.272h-6.1445v-7.7759h6.1445v-12l-5.4727,4.0322c-1.0244-2.8799-2.1758-5.9834-3.4561-9.312v41.2798h-9.2158
			v-34.3677c-1.792,5.5679-3.9043,10.5596-6.3359,14.9756l-5.376-9.312c5.5684-10.4951,9.3438-21.1514,11.3281-31.9678h-9.2158
			v-8.4482h9.5996v-15.5518h9.2158v15.5518h7.2959v8.4482h-7.0078c3.9678,9.1528,6.8477,15.9043,8.6406,20.2559v-7.104h23.04
			v-3.5518h-26.7842v-7.4883h14.3037v-4.0317h-10.3682v-6.5283h10.3682v-4.0317h-12.96v-7.2959h12.96v-4.7041h9.8877v4.7041h15.5527
			v-4.7041h9.8877v4.7041h12.4795v7.2959h-12.4795v4.0317h11.04v6.5283h-11.04v4.0317h14.3037v7.4883h-27.4561v3.5518h23.04v23.52
			h5.5684v7.7759h-5.5684v3.0723c0,5.8228-0.4961,9.3916-1.4873,10.7041c-0.9932,1.311-3.5049,1.9678-7.5361,1.9678
			c-1.4092,0-5.6328-0.1602-12.6719-0.48l-0.3848-8.2559C1436.8838,236.6011,1439.9248,236.7603,1440.6924,236.7603z
			 M1407.4766,209.7842h13.4404v-5.1841h-13.4404V209.7842z M1407.4766,216.312v5.1841h13.4404v-5.1841H1407.4766z
			 M1418.3242,176.376h15.5527v-4.0317h-15.5527V176.376z M1418.3242,182.9043v4.0317h15.5527v-4.0317H1418.3242z
			 M1443.957,209.7842v-5.1841h-13.3447v5.1841H1443.957z M1443.957,216.312h-13.3447v5.1841h13.3447V216.312z"/>
	</g>
	<g>
		<path d="M50.1475,213.5283v-7.416h63.5039v7.416H50.1475z"/>
		<path d="M153.3955,219.0005l6.0479-3.4561c2.2559,3.312,5.3027,6.6001,9.1436,9.8638c3.3125-3.0713,5.9512-6.5991,7.9199-10.584
			h-23.4717v-6.4077h31.3203v6.4077c-2.4971,5.7603-5.8809,10.7046-10.1523,14.832c4.2236,2.833,8.6875,5.1123,13.3916,6.8403
			l-2.8076,5.9756c-5.4248-1.8716-10.7764-4.6323-16.0557-8.2798c-4.5605,3.2153-10.1768,5.9761-16.8486,8.2798l-2.5918-4.6079
			c-0.2402,2.1602-0.8281,3.5283-1.7637,4.104c-0.9365,0.5762-2.7969,0.8643-5.5801,0.8643c-0.8164,0-3.0723-0.1206-6.7686-0.3604
			l-0.1436-6.48c2.8799,0.1924,4.9434,0.2881,6.1924,0.2881c0.8633,0,1.3672-0.1553,1.5117-0.4678
			c0.1436-0.312,0.2158-1.3794,0.2158-3.2041v-17.9282l-3.0234,0.2881v18.8643h-6.4805v-18.2881l-2.376,0.2158
			c-0.1436,6.8164-0.6123,12.3008-1.4043,16.4521c-0.792,4.1523-2.0283,7.8594-3.708,11.124l-6.0479-4.1763
			c1.3916-2.8799,2.3994-5.9272,3.0244-9.144c0.623-3.2148,1.0312-7.751,1.2236-13.6079l-3.7441,0.2881l-0.0713-6.1201
			l3.8877-0.3599v-3.0239v-22.248h7.7754c0.3359-2.4951,0.624-4.7271,0.8643-6.6958l7.416,0.4316
			c-0.0479,0.3848-0.1689,1.332-0.3594,2.8442c-0.1924,1.5117-0.3369,2.6528-0.4326,3.4199h10.0078v22.9678l2.2324-0.1436
			l0.0723,6.1196l-2.3047,0.2163v18.5039c0,1.728-0.0244,2.9282-0.0713,3.6001c5.04-1.6313,9.5752-3.7676,13.6074-6.4082
			C159.2021,226.3926,155.9873,222.793,153.3955,219.0005z M131.1475,209.5684l11.8076-1.0078v-17.9282h-11.8076V209.5684z
			 M131.5791,195.3843l5.5439-2.6641c1.5361,2.7363,3.3594,6.5049,5.4717,11.3042l-5.6152,2.6641
			C134.627,201.4087,132.8271,197.6411,131.5791,195.3843z M155.2676,207.6963l-4.8965-5.04
			c2.2559-1.8721,3.8164-4.0073,4.6797-6.4077c0.8643-2.3999,1.2969-5.9761,1.2969-10.728v-4.0322h21.3838v16.9199
			c0,0.6245,0.0469,0.9844,0.1436,1.0801c0.0957,0.0967,0.4795,0.144,1.1523,0.144c1.1035,0,1.7754-0.3477,2.0156-1.0439
			c0.2402-0.6953,0.4795-3.1074,0.7197-7.2358l6.1924,0.7197c-0.0967,1.9688-0.1797,3.4683-0.252,4.5
			c-0.0723,1.0327-0.2051,2.1362-0.3955,3.312c-0.1924,1.1768-0.3604,2.0049-0.5049,2.4839
			c-0.1436,0.4805-0.4678,1.0083-0.9717,1.584c-0.5039,0.5762-0.9355,0.936-1.2959,1.0801s-1.0078,0.313-1.9443,0.5039
			c-0.9355,0.1924-1.7764,0.2881-2.5195,0.2881c-0.7451,0-1.8848,0-3.4199,0c-2.5449,0-4.1758-0.252-4.8965-0.7559
			c-0.7197-0.5039-1.0801-1.5479-1.0801-3.1318v-14.2563h-7.4873v0.8643C163.1875,197.4722,160.5469,203.8569,155.2676,207.6963z"/>
		<path d="M211.0674,190.2725h9.5039v6.6958c-1.7764,4.417-3.8408,8.3047-6.1924,11.6641
			c4.0791,3.9365,7.8955,7.8481,11.4482,11.7358l-4.9678,4.752c-3.0244-3.4072-6.3359-6.8872-9.9365-10.4399v28.5122h-7.416
			v-23.3999c-3.0723,2.5918-6.2402,4.8003-9.5039,6.624l-1.7998-7.8481c9.5039-5.4722,16.2725-12.6719,20.3037-21.6001h-18.3594
			v-6.6958h9.5039v-10.584h7.416V190.2725z M245.123,234.1924h13.6084v6.6958h-38.8086v-6.6958h17.6406v-33.6958h-14.832v-6.5522
			h14.832v-13.752h7.5596v13.752h12.5283v6.5522H245.123V234.1924z"/>
		<path d="M275.1475,240.1685v3.0239h-7.416v-62.064h60.3359v62.064h-7.416v-3.0239H275.1475z M320.6514,234.1924v-46.9438h-45.5039
			v46.9438H320.6514z M318.3477,195.7441v6.1924h-6.4805v19.0796c0,4.8491-0.3965,7.812-1.1885,8.8921s-2.9873,1.6201-6.5879,1.6201
			c-2.4004,0-6.168-0.1191-11.3037-0.3599l-0.1436-6.1201c4.5596,0.2407,7.4873,0.3599,8.7832,0.3599
			c1.584,0,2.5078-0.1675,2.7725-0.5039c0.2637-0.335,0.3955-1.4634,0.3955-3.3838v-19.584h-27.1436v-6.1924h27.1436v-6.6958h7.2725
			v6.6958H318.3477z M282.3477,207.4805l6.1191-3.5283c3.4082,4.6084,6.4805,9.5762,9.2168,14.9043l-6.1924,3.3838
			C288.8027,217.1045,285.7549,212.1851,282.3477,207.4805z"/>
		<path d="M349.0195,211.7285c-3.9365-3.6958-8.208-7.2959-12.8164-10.8003l4.3203-5.1118
			c4.8477,3.5527,9.1436,7.0806,12.8877,10.584L349.0195,211.7285z M355.2822,219.1445
			c-2.5918,8.6396-6.2627,16.4404-11.0146,23.3999l-5.9766-3.96c4.2715-6.4316,7.8232-13.752,10.6562-21.96L355.2822,219.1445z
			 M339.3711,185.4482l4.3203-5.1841c4.415,3.2168,8.3037,6.4082,11.6631,9.5762l-4.3906,5.2559
			C347.5547,191.8809,343.6914,188.6646,339.3711,185.4482z M383.8662,219.0723l6.7695-2.7358
			c4.2715,7.5845,8.2793,15.5518,12.0234,23.9038l-6.7676,2.5923c-0.5293-1.2007-1.418-3.0962-2.6641-5.688
			c-13.873,1.8232-27.1699,2.9517-39.8887,3.3838l-0.3594-6.48c4.2227-0.1914,7.4395-0.3599,9.6465-0.5039
			c2.8809-6.5757,5.5684-13.8242,8.0645-21.7441h-15.9844v-6.5518h19.4414v-11.8081h-16.416v-6.3359h16.416v-7.5601h7.5586v7.5601
			h17.4961v6.3359h-17.4961v11.8081h20.6641v6.5518h-23.6152c-2.3516,7.5366-4.8965,14.5923-7.6328,21.168
			c6.3848-0.5273,12.7441-1.1753,19.0801-1.9438C388.2334,227.0405,386.1221,223.0571,383.8662,219.0723z"/>
		<path d="M409.2832,236.1362c9.2637-4.7036,16.3682-11.1836,21.3125-19.4399c4.9434-8.2554,7.416-17.8794,7.416-28.8721v-8.1357
			h7.7754v8.1357c0,10.9927,2.4717,20.6167,7.416,28.8721c4.9434,8.2563,12.0479,14.7363,21.3125,19.4399l-4.1758,5.9761
			c-6.3369-3.0239-11.9648-7.499-16.8848-13.4277c-4.9209-5.9277-8.6758-12.6362-11.2676-20.124
			c-2.5918,7.4878-6.4082,14.1963-11.4482,20.124c-5.04,5.9287-10.7998,10.4038-17.2803,13.4277L409.2832,236.1362z"/>
	</g>
</g>
<g>
	<path d="M84.1621,78.4121H62.6318v23.4741h-6.1924V52.3457h6.1924v20.8818h21.5303V52.3457h6.2646v49.5405h-6.2646V78.4121z"/>
	<path d="M132.6895,101.8862h-5.1846l-0.5039-6.1206c-2.8086,4.6084-6.4092,6.9849-11.8809,6.9849
		c-6.6973,0-10.585-4.1768-10.585-11.5933V64.0107h6.0479v26.4985c0,5.4004,1.8721,7.4165,6.1924,7.4165
		s7.4893-2.8081,9.8652-6.7686V64.0107h6.0488V101.8862z"/>
	<path d="M194.6104,74.7397v27.1465h-6.0488V75.604c0-5.8325-2.4482-7.7046-5.5439-7.7046c-4.248,0-6.6963,2.8081-9.3613,6.9844
		v27.0024h-6.0479V75.604c0-5.8325-2.4482-7.7046-5.5449-7.7046c-4.1758,0-6.6963,2.8081-9.2891,6.9844v27.0024h-6.0479V64.0107
		h5.1846l0.5039,5.7607c2.5918-3.9604,6.1924-6.6245,11.0889-6.6245c4.6807,0,8.1367,2.5923,9.5049,6.9844
		c2.8076-4.1763,6.3359-6.9844,11.4492-6.9844C190.6504,63.147,194.6104,67.6113,194.6104,74.7397z"/>
	<path d="M236.584,98.502l-1.4404,4.2485c-3.6729-0.5044-6.0488-2.0884-7.0566-5.8325c-2.5918,4.0322-6.625,5.8325-11.377,5.8325
		c-7.4883,0-11.9531-4.6807-11.9531-11.4492c0-8.0645,6.0488-12.3853,16.417-12.3853h6.1934v-3.0239
		c0-5.6167-2.665-7.7769-8.1367-7.7769c-2.8809,0-6.3369,0.7202-10.2256,2.0884l-1.5117-4.4644
		c4.5361-1.7285,8.6406-2.5923,12.8174-2.5923c9,0,13.1045,4.6084,13.1045,12.457v17.5693
		C233.415,96.7017,234.5674,97.7817,236.584,98.502z M227.3672,92.0215v-9.0728h-5.4004c-7.0566,0-10.8018,2.6641-10.8018,8.0645
		c0,4.6084,2.377,7.1289,6.9131,7.1289C222.1826,98.1421,225.1348,96.0537,227.3672,92.0215z"/>
	<path d="M275.8232,74.7397v27.1465h-6.0488V75.604c0-5.8325-2.376-7.7046-6.2646-7.7046c-4.4639,0-7.4883,2.8081-10.0811,6.9844
		v27.0024h-6.0479V64.0107h5.1846l0.5039,5.7607c2.7363-3.9604,6.7686-6.6245,11.8809-6.6245
		C271.8623,63.147,275.8232,67.5391,275.8232,74.7397z"/>
	<path d="M286.9072,76.7559h20.0898v5.1846h-20.0898V76.7559z"/>
	<path d="M318.083,94.6855V48.7456l6.0488-0.7202v46.5161c0,2.0884,0.7197,3.1685,2.5195,3.1685
		c0.9365,0,1.7285-0.144,2.4482-0.4321l1.585,4.2485c-1.3682,0.7197-3.1689,1.2241-5.041,1.2241
		C321.0352,102.7505,318.083,99.9419,318.083,94.6855z"/>
	<path d="M346.667,50.3296c0,2.3765-1.7285,4.1768-4.3203,4.1768c-2.5205,0-4.248-1.8003-4.248-4.1768
		c0-2.376,1.7275-4.1763,4.248-4.1763C344.9385,46.1533,346.667,47.9536,346.667,50.3296z M345.4424,101.8862h-6.0479V64.0107
		h6.0479V101.8862z"/>
	<path d="M366.1064,58.5386v5.4722h9.3604l-0.6475,4.6807h-8.7129v33.1948h-6.0488V68.6914h-6.6963v-4.6807h6.6963v-5.4004
		c0-6.2646,4.1045-10.585,11.5215-10.585c3.5283,0,6.0479,0.6484,9,1.9443l-1.9434,4.3926
		c-2.4482-1.0801-4.6807-1.4404-6.6973-1.4404C367.6904,52.9219,366.1064,54.7222,366.1064,58.5386z"/>
	<path d="M411.3945,85.0366h-24.4102c0.5762,9.145,4.8965,12.7451,10.585,12.7451c3.8164,0,6.625-1.0801,9.9375-3.3843
		l2.6641,3.6006c-3.6729,2.9521-7.8486,4.7524-13.0332,4.7524c-10.4404,0-16.5615-7.417-16.5615-19.4419
		c0-11.8809,5.9043-20.1616,15.5537-20.1616c10.1523,0,15.4092,7.1284,15.4092,18.5776
		C411.5391,83.0205,411.4668,84.2446,411.3945,85.0366z M405.5625,79.9961c0-7.6323-3.0244-12.0249-9.2891-12.0249
		c-5.2559,0-8.7842,3.7446-9.2891,12.6011h18.5781V79.9961z"/>
	<path d="M448.6162,101.8862h-6.1924V52.3457h6.1924V101.8862z"/>
	<path d="M491.5293,74.7397v27.1465h-6.0479V75.604c0-5.8325-2.377-7.7046-6.2646-7.7046c-4.4648,0-7.4893,2.8081-10.0811,6.9844
		v27.0024h-6.0488V64.0107h5.1846l0.5039,5.7607c2.7363-3.9604,6.7686-6.6245,11.8809-6.6245
		C487.5693,63.147,491.5293,67.5391,491.5293,74.7397z"/>
	<path d="M511.8311,58.5386v5.4722h9.3613l-0.6484,4.6807h-8.7129v33.1948h-6.0479V68.6914h-6.6973v-4.6807h6.6973v-5.4004
		c0-6.2646,4.1035-10.585,11.5205-10.585c3.5283,0,6.0488,0.6484,9.001,1.9443l-1.9443,4.3926
		c-2.4482-1.0801-4.6807-1.4404-6.6963-1.4404C513.415,52.9219,511.8311,54.7222,511.8311,58.5386z"/>
	<path d="M559.6406,82.8765c0,11.8813-6.1211,19.874-16.7061,19.874s-16.6328-7.7051-16.6328-19.73
		c0-11.8809,6.1201-19.8735,16.7051-19.8735C553.6641,63.147,559.6406,70.7793,559.6406,82.8765z M532.7822,83.0205
		c0,10.0088,3.5996,14.8335,10.1523,14.8335s10.2256-4.8247,10.2256-14.9775c0-10.0088-3.6006-14.833-10.1533-14.833
		C536.5264,68.0435,532.7822,72.8677,532.7822,83.0205z"/>
	<path d="M590.6709,63.5791l-1.0801,5.9043c-1.1523-0.2881-1.9443-0.4321-3.3125-0.4321c-4.8965,0-7.6328,3.4565-9.2891,10.873
		v21.9619h-6.0479V64.0107h5.1846l0.5752,7.9209c2.0166-5.8325,5.5449-8.7847,10.2256-8.7847
		C588.2227,63.147,589.5908,63.291,590.6709,63.5791z"/>
	<path d="M646.4014,74.7397v27.1465h-6.0488V75.604c0-5.8325-2.4482-7.7046-5.5439-7.7046c-4.249,0-6.6973,2.8081-9.3613,6.9844
		v27.0024h-6.0488V75.604c0-5.8325-2.4482-7.7046-5.5439-7.7046c-4.1768,0-6.6963,2.8081-9.2891,6.9844v27.0024h-6.0488V64.0107
		h5.1846l0.5039,5.7607c2.5928-3.9604,6.1934-6.6245,11.0898-6.6245c4.6797,0,8.1367,2.5923,9.5049,6.9844
		c2.8076-4.1763,6.3359-6.9844,11.4482-6.9844C642.4404,63.147,646.4014,67.6113,646.4014,74.7397z"/>
	<path d="M688.375,98.502l-1.4404,4.2485c-3.6719-0.5044-6.0488-2.0884-7.0566-5.8325c-2.5918,4.0322-6.624,5.8325-11.377,5.8325
		c-7.4883,0-11.9531-4.6807-11.9531-11.4492c0-8.0645,6.0488-12.3853,16.418-12.3853h6.1924v-3.0239
		c0-5.6167-2.6641-7.7769-8.1367-7.7769c-2.8809,0-6.3369,0.7202-10.2246,2.0884l-1.5127-4.4644
		c4.5361-1.7285,8.6406-2.5923,12.8174-2.5923c9.001,0,13.1055,4.6084,13.1055,12.457v17.5693
		C685.207,96.7017,686.3584,97.7817,688.375,98.502z M679.1582,92.0215v-9.0728h-5.4004c-7.0566,0-10.8008,2.6641-10.8008,8.0645
		c0,4.6084,2.376,7.1289,6.9121,7.1289C673.9736,98.1421,676.9258,96.0537,679.1582,92.0215z"/>
	<path d="M717.8213,100.23c-2.4482,1.6562-5.1846,2.5205-8.3525,2.5205c-6.2646,0-10.0088-3.6724-10.0088-10.585V68.6914h-6.5527
		v-4.6807h6.5527v-8.7124l6.0488-0.6479v9.3604h9.1445l-0.6484,4.6807h-8.4961v23.186c0,3.9604,1.3682,5.8325,4.752,5.8325
		c1.7998,0,3.3848-0.5039,5.2568-1.6562L717.8213,100.23z"/>
	<path d="M732.0752,50.3296c0,2.3765-1.7275,4.1768-4.3203,4.1768c-2.5205,0-4.248-1.8003-4.248-4.1768
		c0-2.376,1.7275-4.1763,4.248-4.1763C730.3477,46.1533,732.0752,47.9536,732.0752,50.3296z M730.8516,101.8862h-6.0488V64.0107
		h6.0488V101.8862z"/>
	<path d="M775.4209,82.8765c0,11.8813-6.1201,19.874-16.7051,19.874s-16.6338-7.7051-16.6338-19.73
		c0-11.8809,6.1211-19.8735,16.7061-19.8735C769.4443,63.147,775.4209,70.7793,775.4209,82.8765z M748.5625,83.0205
		c0,10.0088,3.6006,14.8335,10.1533,14.8335s10.2246-4.8247,10.2246-14.9775c0-10.0088-3.5996-14.833-10.1523-14.833
		C752.3076,68.0435,748.5625,72.8677,748.5625,83.0205z"/>
	<path d="M815.165,74.7397v27.1465h-6.0488V75.604c0-5.8325-2.376-7.7046-6.2646-7.7046c-4.4639,0-7.4883,2.8081-10.0801,6.9844
		v27.0024h-6.0488V64.0107h5.1846l0.5039,5.7607c2.7363-3.9604,6.7686-6.6245,11.8809-6.6245
		C811.2051,63.147,815.165,67.5391,815.165,74.7397z"/>
	<path d="M880.1797,67.5391c0,11.3052-8.1367,15.9136-19.0098,15.9136h-6.4805v18.4336h-6.1924V52.3457h12.6729
		C872.9785,52.3457,880.1797,57.1704,880.1797,67.5391z M873.5547,67.6113c0-7.6328-4.8242-10.3691-12.457-10.3691h-6.4082v21.2422
		h6.2646C868.5146,78.4844,873.5547,76.1802,873.5547,67.6113z"/>
	<path d="M889.3916,94.6855V48.7456l6.0488-0.7202v46.5161c0,2.0884,0.7197,3.1685,2.5205,3.1685
		c0.9355,0,1.7275-0.144,2.4482-0.4321l1.584,4.2485c-1.3682,0.7197-3.1689,1.2241-5.041,1.2241
		C892.3438,102.7505,889.3916,99.9419,889.3916,94.6855z"/>
	<path d="M938.9297,98.502l-1.4404,4.2485c-3.6719-0.5044-6.0488-2.0884-7.0566-5.8325c-2.5918,4.0322-6.624,5.8325-11.377,5.8325
		c-7.4883,0-11.9531-4.6807-11.9531-11.4492c0-8.0645,6.0488-12.3853,16.418-12.3853h6.1924v-3.0239
		c0-5.6167-2.6641-7.7769-8.1367-7.7769c-2.8809,0-6.3369,0.7202-10.2246,2.0884l-1.5127-4.4644
		c4.5361-1.7285,8.6406-2.5923,12.8174-2.5923c9.001,0,13.1055,4.6084,13.1055,12.457v17.5693
		C935.7617,96.7017,936.9131,97.7817,938.9297,98.502z M929.7129,92.0215v-9.0728h-5.4004c-7.0566,0-10.8008,2.6641-10.8008,8.0645
		c0,4.6084,2.376,7.1289,6.9121,7.1289C924.5283,98.1421,927.4805,96.0537,929.7129,92.0215z"/>
	<path d="M968.376,100.23c-2.4482,1.6562-5.1846,2.5205-8.3525,2.5205c-6.2646,0-10.0088-3.6724-10.0088-10.585V68.6914h-6.5527
		v-4.6807h6.5527v-8.7124l6.0488-0.6479v9.3604h9.1445l-0.6484,4.6807h-8.4961v23.186c0,3.9604,1.3682,5.8325,4.752,5.8325
		c1.7998,0,3.3848-0.5039,5.2568-1.6562L968.376,100.23z"/>
	<path d="M981.9824,58.5386v5.4722h9.3604l-0.6484,4.6807h-8.7119v33.1948h-6.0488V68.6914h-6.6963v-4.6807h6.6963v-5.4004
		c0-6.2646,4.1045-10.585,11.5205-10.585c3.5283,0,6.0488,0.6484,9.001,1.9443l-1.9443,4.3926
		c-2.4482-1.0801-4.6797-1.4404-6.6963-1.4404C983.5664,52.9219,981.9824,54.7222,981.9824,58.5386z"/>
	<path d="M1029.791,82.8765c0,11.8813-6.1201,19.874-16.7051,19.874s-16.6338-7.7051-16.6338-19.73
		c0-11.8809,6.1211-19.8735,16.7061-19.8735C1023.8145,63.147,1029.791,70.7793,1029.791,82.8765z M1002.9326,83.0205
		c0,10.0088,3.6006,14.8335,10.1533,14.8335s10.2246-4.8247,10.2246-14.9775c0-10.0088-3.5996-14.833-10.1523-14.833
		C1006.6777,68.0435,1002.9326,72.8677,1002.9326,83.0205z"/>
	<path d="M1060.8213,63.5791l-1.0801,5.9043c-1.1523-0.2881-1.9443-0.4321-3.3125-0.4321c-4.8965,0-7.6318,3.4565-9.2881,10.873
		v21.9619h-6.0488V64.0107h5.1846l0.5762,7.9209c2.0156-5.8325,5.5439-8.7847,10.2246-8.7847
		C1058.373,63.147,1059.7412,63.291,1060.8213,63.5791z"/>
	<path d="M1116.5518,74.7397v27.1465h-6.0479V75.604c0-5.8325-2.4482-7.7046-5.5449-7.7046c-4.248,0-6.6963,2.8081-9.3604,6.9844
		v27.0024h-6.0488V75.604c0-5.8325-2.4482-7.7046-5.5449-7.7046c-4.1758,0-6.6963,2.8081-9.2881,6.9844v27.0024h-6.0488V64.0107
		h5.1846l0.5039,5.7607c2.5918-3.9604,6.1924-6.6245,11.0889-6.6245c4.6807,0,8.1367,2.5923,9.5049,6.9844
		c2.8086-4.1763,6.3369-6.9844,11.4492-6.9844C1112.5918,63.147,1116.5518,67.6113,1116.5518,74.7397z"/>
	<path d="M1152.9805,67.4673l-2.5918,3.8164c-3.3848-2.2324-6.2646-3.3125-9.8652-3.3125c-4.4639,0-7.3447,2.0884-7.3447,5.3286
		s2.1602,4.6802,8.4248,6.3364c7.9932,2.0884,12.457,5.1123,12.457,11.7373c0,7.7046-6.9844,11.377-14.6172,11.377
		c-6.4082,0-10.873-2.0884-14.1846-4.9688l3.2402-3.6724c3.0957,2.3042,6.5518,3.7446,10.8008,3.7446
		c5.04,0,8.4248-2.3042,8.4248-6.1206c0-3.9604-1.9443-5.4004-9.4336-7.4165c-8.1367-2.1602-11.377-5.5444-11.377-10.873
		c0-5.9766,5.6885-10.2969,13.3936-10.2969C1145.4922,63.147,1149.3809,64.731,1152.9805,67.4673z"/>
	<path d="M1189.6973,101.8862h-6.1924V52.3457h6.1924V101.8862z"/>
	<path d="M1232.6104,74.7397v27.1465h-6.0488V75.604c0-5.8325-2.376-7.7046-6.2646-7.7046c-4.4639,0-7.4883,2.8081-10.0801,6.9844
		v27.0024h-6.0488V64.0107h5.1846l0.5039,5.7607c2.7363-3.9604,6.7686-6.6245,11.8809-6.6245
		C1228.6504,63.147,1232.6104,67.5391,1232.6104,74.7397z"/>
	<path d="M1268.9688,67.4673l-2.5918,3.8164c-3.3848-2.2324-6.2646-3.3125-9.8652-3.3125c-4.4639,0-7.3447,2.0884-7.3447,5.3286
		s2.1602,4.6802,8.4248,6.3364c7.9932,2.0884,12.457,5.1123,12.457,11.7373c0,7.7046-6.9844,11.377-14.6172,11.377
		c-6.4082,0-10.873-2.0884-14.1846-4.9688l3.2402-3.6724c3.0957,2.3042,6.5518,3.7446,10.8008,3.7446
		c5.04,0,8.4248-2.3042,8.4248-6.1206c0-3.9604-1.9443-5.4004-9.4336-7.4165c-8.1367-2.1602-11.377-5.5444-11.377-10.873
		c0-5.9766,5.6885-10.2969,13.3936-10.2969C1261.4805,63.147,1265.3691,64.731,1268.9688,67.4673z"/>
	<path d="M1298.4873,100.23c-2.4482,1.6562-5.1846,2.5205-8.3525,2.5205c-6.2646,0-10.0088-3.6724-10.0088-10.585V68.6914h-6.5527
		v-4.6807h6.5527v-8.7124l6.0488-0.6479v9.3604h9.1445l-0.6484,4.6807h-8.4961v23.186c0,3.9604,1.3682,5.8325,4.752,5.8325
		c1.7998,0,3.3848-0.5039,5.2568-1.6562L1298.4873,100.23z"/>
	<path d="M1312.7412,50.3296c0,2.3765-1.7275,4.1768-4.3203,4.1768c-2.5205,0-4.248-1.8003-4.248-4.1768
		c0-2.376,1.7275-4.1763,4.248-4.1763C1311.0137,46.1533,1312.7412,47.9536,1312.7412,50.3296z M1311.5176,101.8862h-6.0488V64.0107
		h6.0488V101.8862z"/>
	<path d="M1344.2061,100.23c-2.4482,1.6562-5.1846,2.5205-8.3525,2.5205c-6.2646,0-10.0088-3.6724-10.0088-10.585V68.6914h-6.5527
		v-4.6807h6.5527v-8.7124l6.0488-0.6479v9.3604h9.1445l-0.6484,4.6807h-8.4961v23.186c0,3.9604,1.3682,5.8325,4.752,5.8325
		c1.7998,0,3.3848-0.5039,5.2568-1.6562L1344.2061,100.23z"/>
	<path d="M1378.9814,101.8862h-5.1836l-0.5049-6.1206c-2.8076,4.6084-6.4082,6.9849-11.8809,6.9849
		c-6.6963,0-10.585-4.1768-10.585-11.5933V64.0107h6.0488v26.4985c0,5.4004,1.8721,7.4165,6.1924,7.4165
		s7.4893-2.8081,9.8652-6.7686V64.0107h6.0479V101.8862z"/>
	<path d="M1411.6689,100.23c-2.4482,1.6562-5.1846,2.5205-8.3525,2.5205c-6.2646,0-10.0088-3.6724-10.0088-10.585V68.6914h-6.5527
		v-4.6807h6.5527v-8.7124l6.0488-0.6479v9.3604h9.1445l-0.6484,4.6807h-8.4961v23.186c0,3.9604,1.3682,5.8325,4.752,5.8325
		c1.7998,0,3.3848-0.5039,5.2568-1.6562L1411.6689,100.23z"/>
	<path d="M1446.6611,85.0366h-24.4102c0.5762,9.145,4.8965,12.7451,10.585,12.7451c3.8164,0,6.624-1.0801,9.9365-3.3843
		l2.6641,3.6006c-3.6719,2.9521-7.8486,4.7524-13.0332,4.7524c-10.4404,0-16.5615-7.417-16.5615-19.4419
		c0-11.8809,5.9053-20.1616,15.5537-20.1616c10.1533,0,15.4092,7.1284,15.4092,18.5776
		C1446.8047,83.0205,1446.7324,84.2446,1446.6611,85.0366z M1440.8281,79.9961c0-7.6323-3.0244-12.0249-9.2891-12.0249
		c-5.2559,0-8.7842,3.7446-9.2881,12.6011h18.5771V79.9961z"/>
</g>
</svg>
