<?xml version="1.0" encoding="utf-8"?>
<svg version="1.1" xmlns="http://www.w3.org/2000/svg" xmlns:xlink="http://www.w3.org/1999/xlink" x="0px"
	 y="0px" viewBox="0 0 1920 960" style="enable-background:new 0 0 1920 960;" xml:space="preserve">
<style type="text/css">
	.st0{fill:#5EAF30;}
	.st1{fill:#1A140F;}
	.st2{fill:#FFFFFF;}
</style>
<g>
	<polygon class="st0" points="731.6064,529.2297 1856.6064,529.2297 1856.6064,509.2297 478.6064,642.2297 538.6064,889.2297 
		731.6064,889.2297 	"/>
	<g>
		<g>
			<path d="M890.3604,405.9663v9.6733h-95.4448v-9.6733h42.5635v-24.7212h-30.6328v-9.5659h30.6328v-21.4966h-23.8613
				c-3.332,6.4487-6.8789,12.1455-10.6406,16.6597c-2.0425-1.7197-6.4492-4.6216-9.1362-6.019
				c8.7061-9.1357,15.4775-23.8613,19.4546-38.9087l10.3184,2.3647c-1.6123,5.4814-3.5474,10.9629-5.5894,16.1221h19.4546v-19.9917
				h10.3184v19.9917h37.4038v9.7812h-37.4038v21.4966h33.4272v9.5659h-33.4272v24.7212H890.3604z"/>
			<path d="M918.2305,369.7446c-4.4072-3.0098-13.3281-8.1689-19.7773-11.501l5.4819-7.416
				c6.1265,3.0093,15.2627,7.7388,19.7769,10.6406L918.2305,369.7446z M900.603,410.9102
				c5.6968-8.061,13.9727-21.8188,20.2065-33.9644l7.2017,6.6641c-5.4819,11.0708-12.6831,23.9688-19.0244,33.9644L900.603,410.9102
				z M923.2817,340.7241c-4.4067-3.1172-13.3276-8.2764-19.6694-11.8232l5.5894-7.0938c6.2339,3.0093,15.3701,7.8462,19.9917,10.856
				L923.2817,340.7241z M967.9941,361.0381v15.9077h22.1426v41.3809h-9.459v-3.9771h-35.5767v4.5146h-9.1362v-41.9185h22.5713
				v-15.9077h-29.8799v-9.5659h29.8799V336.21c-7.5234,1.1821-15.2622,2.042-22.3564,2.5796
				c-0.4297-2.3647-1.7197-6.1265-2.9019-8.3838c18.3794-1.9346,39.2319-5.374,51.0542-9.7808l7.8467,7.7383
				c-6.8789,2.5801-15.2627,4.6221-24.1846,6.2344v16.8745h28.4834v9.5659H967.9941z M980.6777,385.9746h-35.5767v19.3467h35.5767
				V385.9746z"/>
			<path d="M1003.668,368.7773c2.2568-7.3091,3.9766-19.2397,4.6211-27.6235l7.2012,0.8599
				c-0.3223,8.4912-2.041,21.0669-4.2988,29.1279L1003.668,368.7773z M1031.6133,353.8369
				c-1.0742-3.7617-3.332-10.1035-5.4814-15.0474v80.0747h-9.1357v-98.4546h9.1357v17.52l6.2334-2.4722
				c2.1504,4.8364,4.9453,11.1782,6.0195,15.1548L1031.6133,353.8369z M1103.3047,354.4819v7.4165h-69.6494v-7.4165h29.4502v-6.2339
				h-23.6465v-6.9863h23.6465v-5.5894h-26.2256v-7.4165h26.2256v-7.9536h9.8887v7.9536h27.1934v7.4165h-27.1934v5.5894h24.3984
				v6.9863h-24.3984v6.2339H1103.3047z M1095.458,408.6533c0,4.5142-0.9678,7.0938-4.1914,8.4912
				c-3.332,1.397-8.3838,1.5049-15.7998,1.5049c-0.4297-2.4722-1.7207-6.2344-2.9023-8.5986
				c4.9443,0.3223,10.1035,0.2148,11.5,0.2148c1.5059-0.1074,1.9355-0.5376,1.9355-1.8271v-5.8042h-35.5771v16.23h-9.2432V367.165
				h54.2783V408.6533z M1050.4229,374.6885v6.6641H1086v-6.6641H1050.4229z M1086,395.4326v-6.6636h-35.5771v6.6636H1086z"/>
			<path d="M1141.0195,348.3555h18.8105v8.4912h-9.9961l4.6211,1.1821c-1.8271,4.5142-3.7617,9.2437-5.4814,12.6831h9.5654v8.5986
				h-17.5195v10.1035h16.123v8.4907h-16.123v20.7446h-9.3506v-20.7446h-16.875v-8.4907h16.875v-10.1035h-17.8428v-8.5986h9.3516
				c-0.5371-3.6543-2.1494-8.7061-4.084-12.6831l4.4062-1.1821H1112v-8.4912h19.6689v-9.3511h-15.7998v-8.3838h15.7998v-10.1035
				h9.3506v10.1035h14.833v8.3838h-14.833V348.3555z M1141.2344,369.7446c1.5059-3.6548,3.4395-9.0288,4.5146-12.8979h-18.5947
				c1.9355,4.1914,3.7617,9.4585,4.1924,12.8979l-3.5469,0.9673h17.0898L1141.2344,369.7446z M1207.9824,363.188
				c-2.1504,12.7905-6.2344,24.8286-12.1465,35.0396c4.6221,5.374,9.9961,9.7808,16.0156,12.7905
				c-2.1504,1.8271-5.1602,5.4814-6.6641,7.9536c-5.4824-3.2246-10.4258-7.5239-14.833-12.6831
				c-3.7617,4.9443-8.1689,9.2437-13.1123,12.7905c-1.29-1.8271-3.4395-4.1919-5.4824-5.8042v5.6968h-9.0283v-93.9399h42.7783
				v20.314c0,4.6221-0.9668,7.2017-4.7295,8.5986c-3.5469,1.3975-9.0283,1.3975-17.0889,1.3975
				c-0.4307-2.5796-1.7207-6.2339-3.0098-8.5986c6.126,0.2148,11.8223,0.2148,13.4355,0.1074
				c1.6113-0.1074,2.041-0.4297,2.041-1.6123v-11.3931h-24.3984v27.5156h28.4834l1.6123-0.4302L1207.9824,363.188z
				 M1171.7598,411.4478c4.9443-3.4395,9.1367-7.8462,12.791-12.8979c-5.4824-8.4912-9.6738-18.3794-12.791-29.0205V411.4478z
				 M1180.1436,369.5293c2.3643,7.3091,5.5889,14.2954,9.5664,20.6367c3.4395-6.4487,5.9111-13.4351,7.6309-20.6367H1180.1436z"/>
			<path d="M1293.5488,379.418c6.0186,6.2339,14.4023,11.7158,22.6787,14.6177c-2.042,1.8271-5.0518,5.374-6.4492,7.7388
				c-10.3184-4.5142-20.6367-13.0054-27.1924-22.3564h-32.0303c-2.5801,3.7617-5.9111,7.5239-9.459,10.8555h19.6689v-8.061h10.1035
				v8.061h21.2822v7.9541h-21.2822v9.5659h36.1152v8.2759h-80.9355v-8.2759h34.7168v-9.5659h-20.5283v-7.0938
				c-5.374,4.8364-11.6084,8.9209-17.7354,11.8228c-1.3965-2.3647-4.2988-5.9116-6.4492-7.6313
				c8.4922-3.2241,17.0898-9.2432,23.2168-15.9072h-22.1406v-8.2764h20.8516v-33.2119h-15.5859v-8.1689h15.5859v-9.3511h9.9951
				v9.3511h36.5439v-9.2437h10.2109v9.2437h15.3711v8.1689h-15.3711v33.2119h20.207v8.2764H1293.5488z M1247.9756,337.9297v6.019
				h36.5439v-6.019H1247.9756z M1247.9756,357.3838h36.5439v-6.1265h-36.5439V357.3838z M1247.9756,371.1416h36.5439v-6.4487
				h-36.5439V371.1416z"/>
			<path d="M1340.7119,358.1362c-1.1826,9.3511-4.085,19.4546-11.2861,26.7632c-1.1826-1.6123-4.4062-4.4067-6.127-5.374
				c5.8047-6.1265,8.2764-13.6504,9.3516-20.959l-7.9541,0.4297l-0.4297-7.8462l9.0283-0.3223c0-1.0752,0-2.1499,0-3.2246v-19.562
				h11.8232c1.0752-2.687,2.2578-5.5889,2.9023-7.8462l8.7061,1.1821c-1.0752,2.3647-2.1494,4.6221-3.2246,6.6641h15.0479v21.2817
				l4.7295-0.2148l-0.2148,7.3086l-4.5146,0.2148v16.3374c0,3.9771-0.6445,6.3418-3.332,7.7388
				c-2.7949,1.29-6.7715,1.29-12.5752,1.29c-0.2148-1.9346-1.0752-4.8369-2.042-7.0938h-3.8701v-14.833h6.4492v14.2954
				c2.6875,0.1074,4.8369,0.1074,5.6963,0c1.1826,0,1.3975-0.3223,1.3975-1.5049v-15.6924L1340.7119,358.1362z M1409.6084,407.7935
				h12.3604v8.061h-97.0566v-8.061h12.2529v-23.3237h72.4434V407.7935z M1341.249,350.5049l19.0244-0.8599v-14.7251h-19.0244
				v12.7905V350.5049z M1350.3848,336.7471c2.1504,3.1172,4.4072,7.4165,5.374,10.1035l-6.126,2.4722
				c-0.9678-2.7944-3.2246-7.2017-5.1592-10.5332L1350.3848,336.7471z M1346.5156,407.7935h11.501v-15.6924h-11.501V407.7935z
				 M1367.1523,392.1011v15.6924h11.7158v-15.6924H1367.1523z M1376.1807,350.9351c-1.2891-1.8271-3.6543-4.2993-5.0518-5.3745
				c7.417-4.1914,8.5986-9.3506,8.5986-14.0801v-7.416h28.2686v14.5098c0,2.0425,0.2148,2.2573,1.6123,2.2573h3.6543
				c1.5049,0,1.9346-0.7524,2.1494-7.5239c1.6123,1.1826,4.8369,2.2573,6.9863,2.7949c-0.752,9.3506-2.9014,11.8228-7.9531,11.8228
				h-6.2344c-6.3418,0-8.2764-2.042-8.2764-9.2437v-7.3086h-12.2529v0.3223c0,6.5566-1.8271,13.8652-9.6738,19.2397h30.418
				l1.6123-0.2153l5.0518,2.2573c-2.6875,7.3091-6.9863,13.0054-12.2529,17.52c5.6963,2.4717,12.5752,4.1914,20.0996,5.0513
				c-1.9355,1.9351-4.4072,5.2671-5.375,7.7388c-8.5986-1.397-16.2295-3.9766-22.5713-7.5234
				c-5.8037,3.1167-12.2529,5.374-19.3467,6.8789c-0.8594-2.0425-3.2246-5.8042-4.8369-7.3091
				c6.127-1.0747,11.7158-2.5796,16.6602-4.729c-3.6543-3.2246-6.6641-6.8789-9.0283-11.0708l6.0186-1.6123h-8.8135v-6.9863
				H1376.1807z M1386.7139,357.9214c2.043,3.2246,4.9443,6.019,8.4912,8.3838c3.332-2.2573,6.2344-5.0518,8.3838-8.3838H1386.7139z
				 M1388.0039,392.1011v15.6924h11.7158v-15.6924H1388.0039z"/>
			<path d="M1432.877,325.7842h38.0488v9.0283h-16.1221c-1.6123,8.1689-3.6543,16.1226-6.2344,23.6465h20.7441v47.292h-21.0664
				v8.2764h-8.3838v-36.3291c-1.6123,2.687-3.2246,5.1592-5.0518,7.416c-0.4297-2.5791-2.4717-8.5986-3.9766-11.2856
				c7.0938-9.5659,11.7158-23.7534,14.5098-39.0161h-12.4678V325.7842z M1460.7148,367.3799h-12.4678v29.5576h12.4678V367.3799z
				 M1530.3643,373.5063h-11.6084v45.4653h-9.5654v-45.4653h-15.2627c-0.5381,16.1226-3.332,33.9644-14.9404,46.0024
				c-1.7197-1.6118-5.374-4.5142-7.6309-5.8037c10.2109-10.6411,12.6826-26.4409,13.2197-40.1987h-11.0703v-9.4585h11.1777v-28.8057
				h-8.2754v-9.3506h51.8066v9.3506h-9.459v28.8057h11.6084V373.5063z M1509.1904,364.0479v-28.8057h-15.1553v28.8057H1509.1904z"/>
			<path d="M1623.8311,408.4385c2.6865,0,3.1172-1.8271,3.5469-15.585c2.1494,1.8271,6.6641,3.5469,9.458,4.2988
				c-0.9668,16.7676-3.6543,21.0669-11.8232,21.0669h-10.4258c-9.2432,0-11.9307-2.9019-11.9307-13.2202v-19.3472h-18.0566
				c-2.2568,12.5757-10.9639,25.7959-39.7686,33.6421c-1.5049-2.3643-4.4072-6.019-6.7715-8.1685
				c24.8281-6.5566,33.3193-16.3374,36.0068-25.4736h-28.376v-9.3511h29.5576v-12.3604h9.9961v12.3604h27.8379v28.5908
				c0,3.1167,0.5381,3.5469,3.1172,3.5469H1623.8311z M1579.333,338.7896c-2.2578,17.0894-8.7061,27.0854-34.1797,32.3521
				c-0.8604-2.3643-3.2246-6.2339-5.2666-8.061c22.1416-3.8696,27.1934-11.2856,29.0205-24.291h-17.0898v11.2856h-9.9961v-20.207
				h40.1982v-9.6733h10.2109v9.6733h40.9512v19.2397h-10.5332v-10.3184h-18.917v16.8745c0,2.7949,0.5371,3.1172,4.084,3.1172
				h11.2861c2.7949,0,3.332-0.9673,3.6543-7.7388c2.042,1.5049,6.127,3.0093,8.8135,3.4395
				c-1.0742,10.4258-3.7617,13.1128-11.2852,13.1128h-13.7578c-10.3184,0-12.6836-2.687-12.6836-11.8232v-16.9819H1579.333z"/>
			<path d="M1735.9355,386.5117c-3.1172,6.4492-7.2012,12.0381-12.3604,16.9824c2.6865,4.6216,5.8037,7.0938,9.2432,7.0938
				c2.9023,0,3.9775-2.3647,4.5146-11.3931c1.7197,1.8271,4.7295,3.5469,6.6641,4.4067
				c-1.5049,12.0381-4.2998,15.4775-11.8232,15.4775c-6.2344,0-11.1787-3.6543-15.1553-9.9961
				c-5.2666,3.8696-11.0703,7.2017-17.5195,9.7812c-1.1826-1.7197-3.5469-4.8369-5.374-6.4492
				c7.3086-2.687,13.7578-6.2339,19.2393-10.748c-2.2568-5.374-3.9766-11.8232-5.374-19.1318h-14.6182
				c-0.2148,1.8271-0.4297,3.5469-0.6445,5.2666c5.0518,3.2241,10.748,7.2012,13.7578,10.103l-5.2666,6.8789
				c-2.2568-2.2568-6.2344-5.4814-10.2109-8.3833c-2.2568,9.0283-6.4492,16.7671-14.0801,22.3564
				c-1.29-2.0425-3.7627-5.2666-5.9121-6.5566c9.5664-6.6641,12.3604-17.8423,13.4355-29.665h-7.2012v-5.3745l-3.6543,5.1592
				c-1.29-3.332-3.9775-9.1357-6.5566-14.1875v50.7319h-9.0283v-45.2505c-2.9023,9.8887-6.4492,19.2397-10.3184,25.3662
				c-1.0752-2.5796-3.2246-6.3418-4.6221-8.3838c5.8037-8.9214,11.2861-24.8286,14.0801-38.479h-11.8232v-9.1357h12.6836v-22.6792
				h9.0283v22.6792h10.6406v9.1357h-10.6406v4.6221c2.6865,3.8691,8.9209,14.0801,11.0703,17.8418h28.5908
				c-2.2568-15.6924-3.1172-34.2871-3.2246-54.1714h8.8135c-0.1074,6.2339,0,12.3608,0.1074,18.272l3.4395-4.729
				c0.7529,0.5376,1.3975,1.0747,2.1504,1.6123c2.2568-4.4067,4.6211-10.2109,6.0186-14.4028l7.7393,2.9023
				c-3.0098,5.2666-6.2344,11.2856-8.8145,15.585c1.3975,1.397,2.7949,2.687,3.7627,3.9766c2.3643-4.084,4.5137-8.061,6.126-11.5005
				l7.0938,3.332c-4.4062,7.3086-9.8877,15.9072-14.832,22.5713l9.1357-0.645c-0.752-1.8271-1.5049-3.6543-2.3643-5.2666
				l5.8037-2.3647c2.7949,5.0518,5.4814,11.501,6.127,15.6929l-6.127,2.7944c-0.2148-1.29-0.6445-2.7944-1.0752-4.2993
				c-3.7617,0.4297-7.416,0.7524-10.8555,1.1821c3.5469,2.0425,7.8467,5.0518,9.9961,7.3091l-2.2568,2.1494h8.5986v7.9541h-25.3662
				c0.9668,4.729,2.042,9.0283,3.332,12.6826c3.1172-3.6543,5.5889-7.6313,7.5234-11.8232L1735.9355,386.5117z M1679.6143,359.9634
				c2.2578-2.9019,4.5146-6.3413,6.8789-9.9956c-2.6865-3.332-7.2012-7.5239-11.0703-10.5337l3.9766-5.4814
				c0.7529,0.5376,1.3975,1.0747,2.1494,1.7197c2.2578-4.6216,4.5146-10.3184,6.0195-14.5103l7.6309,3.0098
				c-2.9014,5.2666-6.0186,11.2856-8.7061,15.585c1.3975,1.2896,2.6875,2.687,3.7617,3.8691
				c2.3652-4.084,4.5146-8.061,6.127-11.5005l7.0938,3.332c-4.6221,7.7388-10.4258,16.8745-15.6924,23.9688l8.2764-0.5376
				c-0.6455-2.042-1.5049-4.0845-2.2578-5.9116l5.8047-2.042c2.5791,4.9438,4.9443,11.6079,5.4814,15.6924l-6.2344,2.5796
				c-0.1074-1.0747-0.4297-2.2573-0.752-3.5469c-7.416,0.8599-14.4023,1.6123-20.7441,2.1494l-1.3975-7.6309L1679.6143,359.9634z
				 M1716.9111,358.5664c1.9346-2.4722,3.9766-5.4819,6.0186-8.5986c-2.5791-3.1172-6.6631-7.0942-10.4258-10.1035
				c0.3232,12.8979,1.29,24.6133,2.7949,34.7168h12.1455c-2.1494-1.8271-4.8369-3.8691-7.2012-5.2666l4.5137-4.1919l-9.6729,1.0747
				l-1.5049-7.416L1716.9111,358.5664z"/>
			<path d="M1781.6582,384.8994c-1.3975-3.4395-4.5146-9.3511-7.3086-14.4023v48.3672h-9.2432v-45.4653
				c-3.2246,10.2109-7.2021,19.6694-11.501,25.7959c-0.9678-2.687-3.332-6.4492-4.7295-8.5986
				c6.3418-8.8135,12.4678-24.7212,15.3701-38.3716h-13.1133v-9.2432h13.9736v-22.6792h9.2432v22.6792h11.501v9.2432h-11.501v6.3418
				c3.0098,3.9766,10.9629,16.1221,12.6826,19.0244L1781.6582,384.8994z M1849.3721,401.7744h-6.3408v7.0938
				c0,4.5142-0.9678,6.7715-4.085,8.2764c-3.1162,1.1821-7.9531,1.2896-14.832,1.2896c-0.4297-2.3647-1.6123-5.8042-2.6875-8.061
				c4.5146,0.2148,9.1367,0.2148,10.5332,0.1074c1.29,0,1.7197-0.4297,1.7197-1.7197v-6.9863h-33.6416v16.6597h-9.1367v-16.6597
				h-6.8789v-7.5239h6.8789v-26.8706h21.0674v-5.2666h-26.1182v-7.4165h14.0801v-6.019h-9.459v-6.9863h9.459v-5.9116h-11.7158
				v-7.2012h11.7158v-8.2764h9.3506v8.2764h14.7256v-8.2764h9.3506v8.2764h12.791v7.2012h-12.791v5.9116h11.1787v6.9863h-11.1787
				v6.019h14.9404v7.4165h-27.3008v5.2666h22.0342v26.8706h6.3408V401.7744z M1800.0381,374.5811v6.1265h11.9307v-6.1265H1800.0381z
				 M1800.0381,394.2505h11.9307v-6.6641h-11.9307V394.2505z M1809.2812,341.6914h14.7256v-5.9116h-14.7256V341.6914z
				 M1809.2812,354.6968h14.7256v-6.019h-14.7256V354.6968z M1820.9971,374.5811v6.1265h12.6826v-6.1265H1820.9971z
				 M1833.6797,394.2505v-6.6641h-12.6826v6.6641H1833.6797z"/>
		</g>
		<g>
			<path d="M862.4185,203.7026v5.8325h-65.3813v-5.8325H862.4185z"/>
			<path d="M895.3911,208.6714v26.0659c0,2.4482-0.5039,3.8164-2.1602,4.6084c-1.6562,0.7202-4.1763,0.7925-8.2808,0.7925
				c-0.2158-1.1523-0.936-3.1685-1.584-4.3208h6.3364c0.8643,0,1.2241-0.2158,1.2241-1.0801v-25.562
				c-4.4644,0.5039-8.8569,1.0083-12.8892,1.4399c0,9.145-0.792,21.5303-5.9766,29.5229c-0.7202-0.7925-2.6641-1.9443-3.7441-2.4482
				c4.7524-7.561,5.3286-18.1455,5.3286-26.6426l-4.6807,0.5044l-0.5762-4.4648l5.2568-0.5039v-22.25h6.2642
				c1.0083-3.0239,2.1602-7.0566,2.5923-9.8647l5.7607,1.1523c-1.1523,2.9521-2.3765,6.1201-3.4565,8.7124h10.585v20.0181
				l3.3125-0.3604l0.0718,4.2485L895.3911,208.6714z M878.0376,206.1509c3.9604-0.3599,8.3525-0.8638,12.8892-1.2959v-16.2017
				h-12.8892V206.1509z M883.9424,191.606c1.9438,2.8799,3.6001,6.9126,4.1763,9.5767l-3.6724,1.5122
				c-0.5039-2.7363-2.0884-6.7686-3.8164-9.793L883.9424,191.606z M885.7422,229.0488h-3.4561v-16.8491h3.4561V229.0488z
				 M931.1782,206.7271c-2.2319,8.7129-6.2646,15.6973-11.377,21.0977c4.3926,3.6006,9.6489,6.3369,15.6973,7.9209
				c-1.0801,1.0083-2.5923,3.0962-3.312,4.3926c-6.1929-1.8726-11.5933-4.8965-16.0576-8.9292
				c-4.7524,4.0327-10.2969,7.0566-16.2012,9.0732c-0.5044-1.2964-1.8726-3.3843-2.8804-4.4648
				c5.6162-1.6558,10.9448-4.4644,15.4814-8.2803c-3.9604-4.5366-7.0566-9.937-9.2891-16.1294l4.0322-0.936h-6.7686v-4.8247h26.4263
				l0.936-0.144L931.1782,206.7271z M909.2163,186.6372c0,5.5444-1.2241,12.5293-6.9844,17.1377
				c-0.7925-0.936-2.7363-2.5923-3.8164-3.1685c5.1841-4.0322,5.9766-9.5049,5.9766-14.1133v-9.2168h20.7378v16.4897
				c0,1.3682,0,2.1602,0.2881,2.376c0.2876,0.2881,0.7197,0.3604,1.2236,0.3604h1.9443c0.6479,0,1.2964-0.0723,1.584-0.2881
				c0.2881-0.144,0.5762-0.6484,0.7202-1.5122c0.144-1.0083,0.2163-3.0962,0.2881-5.8325c0.936,0.8638,2.6641,1.6562,3.8882,2.0879
				c0,2.5923-0.2158,5.689-0.6479,6.6968c-0.4321,1.2241-1.1519,1.9443-2.0879,2.3765c-0.7925,0.4316-2.1606,0.5757-3.2407,0.5757
				h-3.6001c-1.2959,0-2.8804-0.2881-3.8882-1.1519c-0.936-0.936-1.2964-2.0884-1.2964-5.9766v-11.521h-11.0889V186.6372z
				 M907.5601,210.4717c1.9443,5.1841,4.8247,9.8647,8.4971,13.8252c3.6724-3.8164,6.6245-8.4971,8.5684-13.8252H907.5601z"/>
			<path d="M967.4629,219.4722c-1.8721-2.0884-5.832-6.1206-9.0728-9.1445v29.8105h-5.2563v-27.9385
				c-3.6001,3.6001-7.3447,6.6245-11.0166,9.0005c-0.5762-1.3682-1.9443-3.8164-2.8086-4.8242
				c8.5688-4.9683,17.5698-14.041,22.5381-23.6182h-20.0176v-4.8965h11.3047v-13.3931h5.2563v13.3931h6.2642l0.9365-0.2158
				l3.0244,2.0161c-2.2324,5.5444-5.5449,10.873-9.3608,15.6973c3.3843,2.6646,9.7202,8.209,11.521,9.793L967.4629,219.4722z
				 M1007.1387,232.8652v5.2568h-40.3242v-5.2568h18.2188v-29.8823H969.623v-5.1846h15.4102v-22.8262h5.3281v22.8262h15.3369v5.1846
				h-15.3369v29.8823H1007.1387z"/>
			<path d="M1075.6104,177.7808v62.3574h-5.4727v-3.2402h-49.1084v3.2402h-5.3281v-62.3574H1075.6104z M1070.1377,231.7852v-48.8921
				h-49.1084v48.8921H1070.1377z M1067.1855,199.3823h-9.793v23.3301c0,2.8804-0.7197,4.3203-2.8799,5.1123
				c-2.0166,0.7925-5.4727,0.7925-10.9453,0.7925c-0.2158-1.3682-0.9365-3.3125-1.6562-4.6807
				c4.1045,0.144,7.9209,0.144,9.001,0.0723c1.0801,0,1.4395-0.2881,1.4395-1.3682v-23.2583h-27.5059v-4.6802h27.5059v-9.145h5.041
				v9.145h9.793V199.3823z M1034.0625,202.9106c3.6719,3.8887,7.417,9.2891,8.8574,13.0332l-4.1768,2.3042
				c-1.3682-3.7441-4.9688-9.3608-8.5693-13.3213L1034.0625,202.9106z"/>
			<path d="M1098.79,205.647c-3.0244-2.3042-9.2168-5.3286-14.1846-7.0566l2.8076-4.1045
				c4.8242,1.5845,11.0889,4.3208,14.2568,6.625L1098.79,205.647z M1104.0469,216.1602
				c-3.6006,7.5605-8.3535,16.417-12.3848,23.1138l-4.5371-3.4565c3.6719-5.6162,9.001-14.9053,12.8896-23.1138L1104.0469,216.1602z
				 M1102.3906,186.7095c-2.9521-2.5205-9.001-5.9048-13.9688-7.8486l2.8789-3.9604c4.9688,1.8003,11.0898,4.8242,14.1143,7.4165
				L1102.3906,186.7095z M1146.0264,240.2822c-0.7207-1.8003-1.7285-3.8887-3.0244-6.1206
				c-13.8975,1.0801-28.3701,2.0161-38.3076,2.6641l-0.792-5.3286l5.9766-0.2881c3.0244-6.1201,6.4805-14.833,8.6406-21.6738
				h-14.6895v-5.1123h20.0186v-13.1772h-16.418v-5.04h16.418v-11.7373h5.4717v11.7373h17.0654v5.04h-17.0654v13.1772h20.4502v5.1123
				h-24.9141c-2.6641,6.8408-6.0488,15.0493-9.2168,21.314c7.416-0.3599,15.9854-0.8638,24.4824-1.4399
				c-2.3047-3.5283-4.8965-7.1289-7.417-10.2251l4.5361-2.376c5.4004,6.3364,11.3047,14.9771,13.7529,20.6655L1146.0264,240.2822z"
				/>
			<path d="M1191.8164,176.6284c-0.0723,0.936-0.0723,2.0884-0.1445,3.3125c0.6484,9.5049,4.5371,42.7715,31.6113,55.1567
				c-1.5127,1.1519-3.168,2.9521-3.9609,4.3921c-18.5771-8.7847-26.498-27.2183-29.9541-41.6196
				c-3.168,14.4014-10.585,31.7549-28.8027,41.6196c-0.9355-1.2959-2.6641-3.0239-4.3203-4.104
				c29.1631-14.9053,29.1631-49.2524,29.667-58.7573H1191.8164z"/>
		</g>
	</g>
	<g>
		<path d="M819.041,686.1016h-20.8818v23.2578h-6.8403v-49.6123h6.8403v20.7383h20.8818v-20.7383h6.8408v49.6123h-6.8408V686.1016z"
			/>
		<path d="M865.5674,709.3594h-5.6885l-0.5049-5.9043c-2.8799,4.6084-6.4082,6.7686-11.8086,6.7686
			c-6.625,0-10.585-4.1768-10.585-11.5928v-27.2188h6.625v26.498c0,5.1846,1.7275,7.1289,5.832,7.1289s7.2012-2.7363,9.5049-6.5527
			v-27.0742h6.625V709.3594z"/>
		<path d="M924.8662,682.1416v27.2178h-6.624v-26.2822c0-5.6885-2.4482-7.3447-5.3291-7.3447c-4.1035,0-6.3359,2.6641-8.9287,6.6973
			v26.9297h-6.624v-26.2822c0-5.6885-2.4482-7.3447-5.3291-7.3447c-4.1035,0-6.4082,2.6641-8.9287,6.6973v26.9297h-6.624v-37.9473
			h5.6885l0.5762,5.5449c2.5195-3.8164,5.9766-6.4092,10.9443-6.4092c4.6807,0,8.1367,2.5205,9.5771,6.8408
			c2.7363-4.1045,6.1924-6.8408,11.3047-6.8408C920.7617,670.5479,924.8662,675.0127,924.8662,682.1416z"/>
		<path d="M964.8252,705.6152l-1.5127,4.6084c-3.8164-0.4316-6.2646-1.9443-7.416-5.6885c-2.6641,3.96-6.6973,5.6885-11.3057,5.6885
			c-7.5605,0-12.0967-4.6807-12.0967-11.4492c0-8.1367,6.1201-12.5283,16.7051-12.5283h5.833v-2.8086
			c0-5.4727-2.6641-7.4893-7.9209-7.4893c-2.8086,0-6.3369,0.7207-10.2246,2.0166l-1.6562-4.8242
			c4.6807-1.7285,8.8564-2.5928,13.1055-2.5928c9.1445,0,13.3203,4.6807,13.3203,12.6016v17.3535
			C961.6562,703.8154,962.8809,704.8955,964.8252,705.6152z M955.0322,699.3506v-8.7129h-4.9688
			c-6.9844,0-10.5127,2.5928-10.5127,7.7773c0,4.4639,2.2324,6.8398,6.5527,6.8398
			C949.9912,705.2549,952.8721,703.3115,955.0322,699.3506z"/>
		<path d="M1001.5732,682.1416v27.2178h-6.624v-26.2822c0-5.6885-2.3047-7.3447-5.9766-7.3447c-4.249,0-7.1289,2.6641-9.6494,6.6973
			v26.9297h-6.624v-37.9473h5.6885l0.5762,5.6172c2.5918-3.8887,6.624-6.4814,11.5928-6.4814
			C997.541,670.5479,1001.5732,674.9404,1001.5732,682.1416z"/>
		<path d="M1010.4053,684.0137h20.3779v5.6162h-20.3779V684.0137z"/>
		<path d="M1039.5723,701.8711v-45.7236l6.625-0.793v46.3721c0,2.0166,0.6475,3.0244,2.376,3.0244
			c0.9355,0,1.7285-0.1436,2.4482-0.4316l1.7275,4.6084c-1.4395,0.792-3.3115,1.2959-5.2559,1.2959
			C1042.6689,710.2236,1039.5723,707.2715,1039.5723,701.8711z"/>
		<path d="M1067.3291,657.7314c0,2.5195-1.873,4.4639-4.6807,4.4639c-2.7363,0-4.6084-1.9443-4.6084-4.4639
			c0-2.5928,1.8721-4.5371,4.6084-4.5371C1065.4561,653.1943,1067.3291,655.1387,1067.3291,657.7314z M1066.0322,709.3594h-6.624
			v-37.9473h6.624V709.3594z"/>
		<path d="M1085.7607,666.1562v5.2559h9.2168l-0.7197,5.1123h-8.4971v32.835h-6.625v-32.835h-6.7686v-5.1123h6.7686v-5.1846
			c0-6.3359,4.1768-10.873,11.8818-10.873c3.5996,0,6.0479,0.6484,9.0723,1.9443l-2.0879,4.8242
			c-2.4482-1.0801-4.6807-1.4395-6.625-1.4395C1087.2012,660.6836,1085.7607,662.4834,1085.7607,666.1562z"/>
		<path d="M1129.2998,692.6543h-24.1943c0.6475,8.7842,4.752,12.1689,10.2246,12.1689c3.7441,0,6.5527-1.0078,9.8652-3.3125
			l2.8799,3.9609c-3.7441,2.9521-7.9922,4.752-13.249,4.752c-10.585,0-16.7773-7.417-16.7773-19.4414
			c0-11.8096,5.9766-20.2344,15.7695-20.2344c10.2246,0,15.625,7.1289,15.625,18.7217
			C1129.4434,690.5664,1129.3711,691.79,1129.2998,692.6543z M1122.8906,687.3262c0-7.417-2.9521-11.5215-8.9287-11.5215
			c-5.04,0-8.3525,3.5283-8.8564,11.9531h17.7852V687.3262z"/>
		<path d="M798.1592,795.7598h-6.8403v-49.6123h6.8403V795.7598z"/>
		<path d="M838.207,768.541v27.2188h-6.624v-26.2822c0-5.6885-2.3047-7.3447-5.9771-7.3447c-4.248,0-7.1284,2.6641-9.6484,6.6963
			v26.9307h-6.6245v-37.9473h5.6885l0.5757,5.6162c2.5923-3.8887,6.6245-6.4805,11.5933-6.4805
			C834.1748,756.9482,838.207,761.3408,838.207,768.541z"/>
		<path d="M857.5303,752.5557v5.2568h9.2168l-0.7197,5.1123h-8.4971v32.835h-6.625v-32.835h-6.7686v-5.1123h6.7686v-5.1846
			c0-6.3369,4.1768-10.873,11.8818-10.873c3.5996,0,6.0479,0.6484,9.0723,1.9443l-2.0879,4.8242
			c-2.4482-1.0801-4.6807-1.4404-6.625-1.4404C858.9707,747.083,857.5303,748.8838,857.5303,752.5557z"/>
		<path d="M903.626,776.75c0,11.7373-6.1924,19.874-16.9219,19.874c-10.8008,0-16.9209-7.7773-16.9209-19.8018
			c0-11.7373,6.1924-19.874,16.9932-19.874S903.626,764.7246,903.626,776.75z M876.9121,776.8223
			c0,9.8643,3.4561,14.4727,9.792,14.4727c6.3369,0,9.793-4.6084,9.793-14.5449c0-9.8652-3.4561-14.4736-9.7207-14.4736
			C880.4404,762.2764,876.9121,766.8848,876.9121,776.8223z"/>
		<path d="M932.6475,757.3799l-1.2236,6.4805c-1.1523-0.2881-1.9443-0.4316-3.3125-0.4316c-4.7529,0-7.4893,3.3848-9.0732,10.6572
			v21.6738h-6.624v-37.9473h5.6885l0.6475,7.7041c2.0166-5.6885,5.5449-8.5684,10.1533-8.5684
			C930.127,756.9482,931.4951,757.0918,932.6475,757.3799z"/>
		<path d="M987.4053,768.541v27.2188h-6.624v-26.2822c0-5.6885-2.4482-7.3447-5.3291-7.3447c-4.1035,0-6.3359,2.6641-8.9287,6.6963
			v26.9307h-6.624v-26.2822c0-5.6885-2.4482-7.3447-5.3291-7.3447c-4.1035,0-6.4082,2.6641-8.9287,6.6963v26.9307h-6.624v-37.9473
			h5.6885l0.5762,5.5439c2.5195-3.8164,5.9766-6.4082,10.9443-6.4082c4.6807,0,8.1367,2.5205,9.5771,6.8408
			c2.7363-4.1045,6.1924-6.8408,11.3047-6.8408C983.3008,756.9482,987.4053,761.4121,987.4053,768.541z"/>
		<path d="M1027.3643,792.0156l-1.5127,4.6084c-3.8164-0.4326-6.2646-1.9443-7.416-5.6885
			c-2.6641,3.96-6.6973,5.6885-11.3057,5.6885c-7.5605,0-12.0967-4.6807-12.0967-11.4492c0-8.1367,6.1201-12.5293,16.7051-12.5293
			h5.833v-2.8086c0-5.4717-2.6641-7.4883-7.9209-7.4883c-2.8086,0-6.3369,0.7197-10.2246,2.0166l-1.6562-4.8252
			c4.6807-1.7275,8.8564-2.5918,13.1055-2.5918c9.1445,0,13.3203,4.6807,13.3203,12.6006v17.3535
			C1024.1953,790.2148,1025.4199,791.2949,1027.3643,792.0156z M1017.5713,785.751v-8.7129h-4.9688
			c-6.9844,0-10.5127,2.5918-10.5127,7.7764c0,4.4648,2.2324,6.8408,6.5527,6.8408
			C1012.5303,791.6553,1015.4111,789.7109,1017.5713,785.751z"/>
		<path d="M1055.4561,794.0312c-2.5205,1.7285-5.2559,2.5928-8.4971,2.5928c-6.4082,0-10.2246-3.7451-10.2246-10.8018v-22.8975
			h-6.624v-5.1123h6.624v-8.5693l6.625-0.792v9.3613h9.001l-0.7207,5.1123h-8.2803v22.6094c0,3.8164,1.2236,5.6172,4.5361,5.6172
			c1.6562,0,3.168-0.5039,5.04-1.6562L1055.4561,794.0312z"/>
		<path d="M1069.4307,744.1309c0,2.5205-1.873,4.4648-4.6807,4.4648c-2.7363,0-4.6084-1.9443-4.6084-4.4648
			c0-2.5918,1.8721-4.5361,4.6084-4.5361C1067.5576,739.5947,1069.4307,741.5391,1069.4307,744.1309z M1068.1338,795.7598h-6.624
			v-37.9473h6.624V795.7598z"/>
		<path d="M1110.5439,776.75c0,11.7373-6.1924,19.874-16.9219,19.874c-10.8008,0-16.9209-7.7773-16.9209-19.8018
			c0-11.7373,6.1924-19.874,16.9932-19.874S1110.5439,764.7246,1110.5439,776.75z M1083.8301,776.8223
			c0,9.8643,3.4561,14.4727,9.792,14.4727c6.3369,0,9.793-4.6084,9.793-14.5449c0-9.8652-3.4561-14.4736-9.7207-14.4736
			C1087.3584,762.2764,1083.8301,766.8848,1083.8301,776.8223z"/>
		<path d="M1148.2061,768.541v27.2188h-6.624v-26.2822c0-5.6885-2.3047-7.3447-5.9766-7.3447c-4.249,0-7.1289,2.6641-9.6494,6.6963
			v26.9307h-6.624v-37.9473h5.6885l0.5762,5.6162c2.5918-3.8887,6.624-6.4805,11.5928-6.4805
			C1144.1738,756.9482,1148.2061,761.3408,1148.2061,768.541z"/>
		<path d="M1213.2939,761.4844c0,11.377-8.2803,16.0576-19.2256,16.0576h-6.2646v18.2178h-6.8408v-49.6123h13.0332
			C1205.9492,746.1475,1213.2939,751.0439,1213.2939,761.4844z M1206.0215,761.5566c0-7.417-4.752-10.0811-12.0967-10.0811h-6.1211
			v20.666h5.9766C1201.125,772.1416,1206.0215,769.9814,1206.0215,761.5566z"/>
		<path d="M1220.1748,788.2705v-45.7236l6.625-0.792v46.3721c0,2.0156,0.6475,3.0244,2.376,3.0244
			c0.9355,0,1.7285-0.1445,2.4482-0.4326l1.7275,4.6084c-1.4395,0.792-3.3115,1.2969-5.2559,1.2969
			C1223.2715,796.624,1220.1748,793.6709,1220.1748,788.2705z"/>
		<path d="M1269.418,792.0156l-1.5127,4.6084c-3.8164-0.4326-6.2646-1.9443-7.416-5.6885c-2.6641,3.96-6.6973,5.6885-11.3057,5.6885
			c-7.5605,0-12.0967-4.6807-12.0967-11.4492c0-8.1367,6.1201-12.5293,16.7051-12.5293h5.833v-2.8086
			c0-5.4717-2.6641-7.4883-7.9209-7.4883c-2.8086,0-6.3359,0.7197-10.2246,2.0166l-1.6562-4.8252
			c4.6807-1.7275,8.8564-2.5918,13.1055-2.5918c9.1445,0,13.3203,4.6807,13.3203,12.6006v17.3535
			C1266.249,790.2148,1267.4736,791.2949,1269.418,792.0156z M1259.625,785.751v-8.7129h-4.9688
			c-6.9844,0-10.5127,2.5918-10.5127,7.7764c0,4.4648,2.2324,6.8408,6.5527,6.8408
			C1254.585,791.6553,1257.4648,789.7109,1259.625,785.751z"/>
		<path d="M1297.5098,794.0312c-2.5205,1.7285-5.2568,2.5928-8.4971,2.5928c-6.4082,0-10.2246-3.7451-10.2246-10.8018v-22.8975
			h-6.624v-5.1123h6.624v-8.5693l6.625-0.792v9.3613h9.001l-0.7207,5.1123h-8.2803v22.6094c0,3.8164,1.2236,5.6172,4.5361,5.6172
			c1.6562,0,3.168-0.5039,5.04-1.6562L1297.5098,794.0312z"/>
		<path d="M1312.499,752.5557v5.2568h9.2168l-0.7197,5.1123h-8.4971v32.835h-6.625v-32.835h-6.7686v-5.1123h6.7686v-5.1846
			c0-6.3369,4.1768-10.873,11.8818-10.873c3.5996,0,6.0479,0.6484,9.0723,1.9443l-2.0879,4.8242
			c-2.4482-1.0801-4.6807-1.4404-6.625-1.4404C1313.9395,747.083,1312.499,748.8838,1312.499,752.5557z"/>
		<path d="M1358.5947,776.75c0,11.7373-6.1924,19.874-16.9219,19.874c-10.8008,0-16.9209-7.7773-16.9209-19.8018
			c0-11.7373,6.1924-19.874,16.9932-19.874S1358.5947,764.7246,1358.5947,776.75z M1331.8809,776.8223
			c0,9.8643,3.4561,14.4727,9.792,14.4727c6.3369,0,9.793-4.6084,9.793-14.5449c0-9.8652-3.4561-14.4736-9.7207-14.4736
			C1335.4092,762.2764,1331.8809,766.8848,1331.8809,776.8223z"/>
		<path d="M1387.6162,757.3799l-1.2236,6.4805c-1.1523-0.2881-1.9443-0.4316-3.3125-0.4316c-4.7529,0-7.4893,3.3848-9.0732,10.6572
			v21.6738h-6.624v-37.9473h5.6885l0.6475,7.7041c2.0166-5.6885,5.5449-8.5684,10.1533-8.5684
			C1385.0957,756.9482,1386.4639,757.0918,1387.6162,757.3799z"/>
		<path d="M1442.374,768.541v27.2188h-6.624v-26.2822c0-5.6885-2.4482-7.3447-5.3291-7.3447c-4.1035,0-6.3359,2.6641-8.9287,6.6963
			v26.9307h-6.624v-26.2822c0-5.6885-2.4482-7.3447-5.3291-7.3447c-4.1035,0-6.4082,2.6641-8.9287,6.6963v26.9307h-6.624v-37.9473
			h5.6885l0.5762,5.5439c2.5195-3.8164,5.9766-6.4082,10.9443-6.4082c4.6807,0,8.1367,2.5205,9.5771,6.8408
			c2.7363-4.1045,6.1924-6.8408,11.3047-6.8408C1438.2695,756.9482,1442.374,761.4121,1442.374,768.541z"/>
		<path d="M1477.4141,761.2686l-2.8076,4.1768c-3.3848-2.1602-6.3369-3.2402-9.8652-3.2402c-4.3203,0-6.9844,1.9434-6.9844,4.9678
			c0,3.0967,2.0156,4.5361,8.1367,6.1211c7.9922,2.0156,12.6006,5.1836,12.6006,11.8086c0,7.9209-7.2725,11.5215-14.9775,11.5215
			c-6.4082,0-11.0166-2.0889-14.3291-4.9688l3.5283-4.0322c3.0244,2.3037,6.5527,3.6719,10.6572,3.6719
			c4.9688,0,8.1367-2.1602,8.1367-5.7607c0-3.7441-1.8721-5.1836-9.2168-7.1279c-8.209-2.1602-11.4492-5.6885-11.4492-11.0176
			c0-6.0479,5.833-10.4404,13.6816-10.4404C1469.8535,756.9482,1473.8145,758.5322,1477.4141,761.2686z"/>
		<path d="M798.1592,882.1592h-6.8403v-49.6123h6.8403V882.1592z"/>
		<path d="M838.207,854.9414v27.2178h-6.624V855.877c0-5.6885-2.3047-7.3447-5.9771-7.3447c-4.248,0-7.1284,2.6641-9.6484,6.6973
			v26.9297h-6.6245v-37.9473h5.6885l0.5757,5.6172c2.5923-3.8887,6.6245-6.4814,11.5933-6.4814
			C834.1748,843.3477,838.207,847.7402,838.207,854.9414z"/>
		<path d="M873.1699,847.668l-2.8076,4.1768c-3.3848-2.1602-6.3369-3.2402-9.8652-3.2402c-4.3203,0-6.9844,1.9443-6.9844,4.9688
			c0,3.0957,2.0156,4.5361,8.1367,6.1201c7.9922,2.0166,12.6006,5.1846,12.6006,11.8096c0,7.9199-7.2725,11.5205-14.9775,11.5205
			c-6.4082,0-11.0166-2.0879-14.3291-4.9688l3.5283-4.0322c3.0244,2.3047,6.5527,3.6729,10.6572,3.6729
			c4.9688,0,8.1367-2.1602,8.1367-5.7607c0-3.7441-1.8721-5.1846-9.2168-7.1289c-8.209-2.1602-11.4492-5.6885-11.4492-11.0166
			c0-6.0488,5.833-10.4414,13.6816-10.4414C865.6094,843.3477,869.5703,844.9326,873.1699,847.668z"/>
		<path d="M903.3955,880.4316c-2.5205,1.7275-5.2559,2.5918-8.4971,2.5918c-6.4082,0-10.2246-3.7441-10.2246-10.8008v-22.8984
			h-6.624v-5.1123h6.624v-8.5684l6.625-0.792v9.3604h9.001l-0.7207,5.1123h-8.2803v22.6104c0,3.8164,1.2236,5.6162,4.5361,5.6162
			c1.6562,0,3.168-0.5039,5.04-1.6562L903.3955,880.4316z"/>
		<path d="M917.3691,830.5312c0,2.5195-1.873,4.4639-4.6807,4.4639c-2.7363,0-4.6084-1.9443-4.6084-4.4639
			c0-2.5928,1.8721-4.5371,4.6084-4.5371C915.4961,825.9941,917.3691,827.9385,917.3691,830.5312z M916.0723,882.1592h-6.624
			v-37.9473h6.624V882.1592z"/>
		<path d="M947.7178,880.4316c-2.5205,1.7275-5.2559,2.5918-8.4971,2.5918c-6.4082,0-10.2246-3.7441-10.2246-10.8008v-22.8984
			h-6.624v-5.1123h6.624v-8.5684l6.625-0.792v9.3604h9.001l-0.7207,5.1123h-8.2803v22.6104c0,3.8164,1.2236,5.6162,4.5361,5.6162
			c1.6562,0,3.168-0.5039,5.04-1.6562L947.7178,880.4316z"/>
		<path d="M981.126,882.1592h-5.6885l-0.5049-5.9043c-2.8799,4.6084-6.4082,6.7686-11.8086,6.7686
			c-6.625,0-10.585-4.1768-10.585-11.5928v-27.2188h6.625v26.498c0,5.1846,1.7275,7.1289,5.832,7.1289s7.2012-2.7363,9.5049-6.5527
			v-27.0742h6.625V882.1592z"/>
		<path d="M1012.8467,880.4316c-2.5205,1.7275-5.2559,2.5918-8.4971,2.5918c-6.4082,0-10.2246-3.7441-10.2246-10.8008v-22.8984
			h-6.624v-5.1123h6.624v-8.5684l6.625-0.792v9.3604h9.001l-0.7207,5.1123h-8.2803v22.6104c0,3.8164,1.2236,5.6162,4.5361,5.6162
			c1.6562,0,3.168-0.5039,5.04-1.6562L1012.8467,880.4316z"/>
		<path d="M1046.2988,865.4541h-24.1943c0.6475,8.7842,4.752,12.1689,10.2246,12.1689c3.7441,0,6.5527-1.0078,9.8652-3.3125
			l2.8799,3.9609c-3.7441,2.9521-7.9922,4.752-13.249,4.752c-10.585,0-16.7773-7.417-16.7773-19.4414
			c0-11.8096,5.9766-20.2344,15.7695-20.2344c10.2246,0,15.625,7.1289,15.625,18.7217
			C1046.4424,863.3662,1046.3701,864.5898,1046.2988,865.4541z M1039.8896,860.126c0-7.417-2.9521-11.5215-8.9287-11.5215
			c-5.04,0-8.3525,3.5283-8.8564,11.9531h17.7852V860.126z"/>
	</g>
	<g>
		<g>
			<path class="st0" d="M397.1693,52.2303c-148.8783,0-270,121.1205-270,269.9987s121.1217,270,270,270s270-121.1217,270-270
				S546.0475,52.2303,397.1693,52.2303z M397.1693,550.6906c-125.9743,0-228.4615-102.4872-228.4615-228.4615
				c0-125.9731,102.4872-228.4603,228.4615-228.4603S625.6308,196.256,625.6308,322.229
				C625.6308,448.2033,523.1436,550.6906,397.1693,550.6906z"/>
			<path class="st0" d="M569.309,247.1408c-3.9361-5.0415-9.9752-7.9875-16.3705-7.9875H428.7567
				c-0.3017-0.0063-0.6009-0.0063-0.8975,0H312.31l-14.6858-14.6858c-8.1104-8.1104-21.2611-8.1104-29.3715,0
				c-8.1117,8.1104-8.1117,21.2611,0,29.3715l12.4534,12.4547l-38.6862,154.7437c-2.7812,11.1274,3.9842,22.4045,15.1117,25.1857
				c11.1338,2.7888,22.4058-3.983,25.187-15.1104l37.6049-150.421h81.7991l-35.0874,140.3457
				c-2.7812,11.1274,3.9843,22.4045,15.1117,25.1857c11.1325,2.7888,22.4058-3.983,25.187-15.1104l37.6049-150.421h81.7991
				l-35.0874,140.3457c-2.7812,11.1274,3.9843,22.4045,15.1117,25.1857c1.691,0.4234,3.3859,0.6262,5.0529,0.6262
				c9.3059,0,17.7751-6.3002,20.1341-15.7367l41.5385-166.1526C574.6382,258.7551,573.2451,252.1823,569.309,247.1408z"/>
		</g>
		<g>
			<path class="st1" d="M143.7139,738.1875h-14.0781l-1.9639-31.5391c-0.6553-11.1318-1.2007-22.8086-0.9824-30.7754
				L112.939,730.002H99.2979l-14.624-54.2373c0.4365,10.1484,0.2188,20.5166-0.4365,31.3203l-1.855,31.1025H68.4136l6.0024-75.4102
				h18.5518l13.4233,52.8193l12.6592-52.8193h18.7705L143.7139,738.1875z"/>
			<path class="st1" d="M202.9785,713.6328h-36.2314c1.0913,11.7861,6.5479,15.6055,14.187,15.6055
				c5.1294,0,9.3853-1.6367,14.4053-5.1289l5.7837,7.9668c-5.6748,4.583-12.6592,7.748-21.3896,7.748
				c-17.8975,0-27.501-11.8955-27.501-30.1201c0-17.5703,9.2764-30.8838,25.646-30.8838c16.1514,0,25.4272,10.9131,25.4272,29.1377
				C203.3057,709.8135,203.0879,712.1045,202.9785,713.6328z M189.4463,703.9199c0-9.4941-3.3828-15.1689-11.2402-15.1689
				c-6.5479,0-10.6953,4.3652-11.459,15.8242h22.6992V703.9199z"/>
			<path class="st1" d="M260.9775,696.3896v41.7979h-13.9688v-39.6152c0-7.2021-2.728-9.2754-7.0933-9.2754
				c-5.02,0-8.7305,3.3828-12.1138,8.7305v40.1602H213.833V680.457h12.1138l1.0913,7.6387
				c4.4746-5.7832,10.2583-9.2754,17.5703-9.2754C254.9756,678.8203,260.9775,685.3682,260.9775,696.3896z"/>
			<path class="st1" d="M321.4766,696.3896v41.7979h-13.9688v-39.6152c0-7.2021-2.8369-9.2754-7.0933-9.2754
				c-4.9106,0-8.7305,3.3828-12.1138,8.6211v40.2695H274.332v-80.7568l13.9688-1.4189v31.4297
				c4.3652-5.457,9.9312-8.6211,16.8066-8.6211C315.3652,678.8203,321.4766,685.4766,321.4766,696.3896z"/>
			<path class="st1" d="M382.4233,713.6328h-36.2314c1.0913,11.7861,6.5479,15.6055,14.187,15.6055
				c5.1289,0,9.3853-1.6367,14.4053-5.1289l5.7842,7.9668c-5.6748,4.583-12.6592,7.748-21.3896,7.748
				c-17.8975,0-27.501-11.8955-27.501-30.1201c0-17.5703,9.2759-30.8838,25.6455-30.8838c16.1514,0,25.4277,10.9131,25.4277,29.1377
				C382.751,709.8135,382.5322,712.1045,382.4233,713.6328z M368.8911,703.9199c0-9.4941-3.3833-15.1689-11.2407-15.1689
				c-6.5479,0-10.6943,4.3652-11.4585,15.8242h22.6992V703.9199z"/>
			<path class="st1" d="M427.5449,679.6934l-2.4004,13.5322c-1.7461-0.4365-3.165-0.6553-5.1294-0.6553
				c-7.0933,0-10.5854,5.1289-12.7681,14.9512v30.666h-13.9688V680.457h12.1133l1.3096,11.3496
				c2.7285-8.2939,8.2939-12.8779,15.0601-12.8779C423.835,678.9287,425.6899,679.1475,427.5449,679.6934z"/>
			<path class="st1" d="M481.7598,730.3301l-2.9463,9.2754c-6.3301-0.5449-10.4766-2.7275-12.7686-8.4023
				c-4.0381,6.1113-10.3672,8.6211-17.2427,8.6211c-11.5679,0-18.6616-7.3115-18.6616-17.7881
				c0-12.5508,9.4946-19.3164,26.3008-19.3164h7.2026v-3.2744c0-7.5293-3.3833-10.04-10.8042-10.04
				c-3.9287,0-9.4941,1.0918-15.2783,3.0557l-3.2734-9.4941c7.0933-2.7285,14.4053-4.1465,20.9531-4.1465
				c15.3872,0,22.1533,7.0928,22.1533,19.8613v24.2275C477.3945,727.6016,478.9224,729.2383,481.7598,730.3301z M463.644,722.5811
				v-11.6768h-5.7837c-9.0581,0-13.5322,3.2744-13.5322,10.04c0,5.5654,2.8369,8.7305,8.1846,8.7305
				C457.4238,729.6748,461.0249,727.165,463.644,722.5811z"/>
		</g>
		<g>
			<path class="st2" d="M537.5317,731.2461c0,4.8008-3.9287,8.8389-8.9492,8.8389c-4.9106,0-8.7305-4.0381-8.7305-8.8389
				c0-4.9111,3.8198-8.8398,8.7305-8.8398C533.603,722.4062,537.5317,726.335,537.5317,731.2461z"/>
			<path class="st2" d="M597.7915,709.5283c0,18.2256-10.1489,30.5566-27.1733,30.5566s-27.1733-11.5674-27.1733-30.5566
				c0-18.1152,10.1489-30.4473,27.2822-30.4473C587.7515,679.0811,597.7915,690.6484,597.7915,709.5283z M558.1772,709.5283
				c0,13.8604,4.2559,19.9717,12.4409,19.9717s12.4409-6.2207,12.4409-19.9717c0-13.75-4.2559-19.8613-12.332-19.8613
				C562.5425,689.667,558.1772,695.8867,558.1772,709.5283z"/>
			<path class="st2" d="M642.6851,679.9541l-2.4004,13.5322c-1.7461-0.4365-3.165-0.6543-5.1294-0.6543
				c-7.0933,0-10.5854,5.1289-12.7681,14.9502v30.666h-13.9688v-57.7305h12.1133l1.3096,11.3496
				c2.7285-8.2939,8.2939-12.877,15.0601-12.877C638.9751,679.1904,640.8301,679.4082,642.6851,679.9541z"/>
			<path class="st2" d="M700.73,683.7734c-4.3652,1.5283-9.8213,1.9648-16.6968,1.9648
				c6.9844,3.1641,10.4766,7.6387,10.4766,14.8418c0,11.2402-8.7305,19.4248-23.2446,19.4248c-2.5103,0-4.6929-0.2178-6.8755-0.873
				c-1.4185,0.9824-2.4009,2.5107-2.4009,4.2568c0,2.0732,1.2002,4.0371,6.9844,4.0371h8.8398
				c12.7681,0,21.062,6.875,21.062,16.3701c0,11.5674-9.9312,18.4424-28.8105,18.4424c-20.5166,0-26.3003-6.5469-26.3003-18.1152
				h12.5498c0,5.7842,2.5098,8.2939,13.9688,8.2939c11.2402,0,14.5146-3.0557,14.5146-7.6396c0-4.2559-3.3833-6.875-9.8223-6.875
				h-8.7305c-11.5674,0-16.4785-5.1289-16.4785-11.1309c0-4.0381,2.5098-8.0762,6.7661-10.6953
				c-7.0933-3.71-10.1489-8.8398-10.1489-16.2598c0-12.5508,9.9307-20.7354,23.8994-20.7354
				c13.6416,0.3271,19.9707-2.7285,26.9551-6.4385L700.73,683.7734z M660.4609,699.5977c0,6.9844,3.8198,11.3496,10.2583,11.3496
				c6.6572,0,10.2583-4.1465,10.2583-11.459c0-7.3115-3.4922-10.9131-10.4766-10.9131
				C664.1714,688.5752,660.4609,692.9404,660.4609,699.5977z"/>
		</g>
	</g>
</g>
</svg>
