<?xml version="1.0" encoding="UTF-8"?>
<svg id="_レイヤー_1" data-name="レイヤー 1" xmlns="http://www.w3.org/2000/svg" version="1.1" viewBox="0 0 3200 1800">
  <rect width="3200" height="1800" fill="#e1f0dd" stroke-width="0"/>
  <path d="M521.6102,152.3239c13.8868,32,27.7736,64,43.5924,64,15.8189-.0006,29.7057-32,43.5924-64,13.8868-32,27.7736-64,43.5924-64,15.8189.0006,29.7057,32,43.5924,64,13.8868,31.9999,27.7736,64,43.5924,64s29.7057-32,43.5924-64c13.8868-32,27.7736-64,43.5924-64,15.8189.0006,29.7057,32,43.5924,64,13.8868,31.9999,27.7736,64,43.5924,64,15.8189-.0006,29.7056-32,43.5925-64,13.8868-32,27.7736-64,43.5925-64,15.8189.0006,29.7056,32,43.5925,64,13.8868,31.9999,27.7736,64,43.5925,64s29.7056-32,43.5925-64c13.8868-32,27.7736-64,43.5925-64s29.7056,32,43.5925,64c13.8868,31.9999,27.7736,64,43.5925,64,15.8189-.0006,29.7056-32,43.5925-64,13.8868-32,27.7736-64,43.5925-64,15.8189.0006,29.7056,32,43.5925,64,13.8868,31.9999,27.7736,64,43.5925,64,15.8189-.0006,29.7056-32,43.5925-64,13.8868-32,27.7736-64,43.5925-64,15.8188.0006,29.7056,32,43.5925,64,13.8868,31.9999,27.7736,64,43.5925,64,15.8188-.0006,29.7056-32,43.5925-64,13.8868-32,27.7736-64,43.5925-64s29.7056,32,43.5925,64c13.8868,31.9999,27.7736,64,43.5925,64s29.7056-32,43.5925-64c13.8868-32,27.7736-64,43.5925-64,15.8188.0006,29.7056,32,43.6528,64,13.8868,32,27.7736,64,43.5925,64s29.7056-32,43.5925-64c13.8868-32,27.7736-64,43.5925-64,15.8188.0006,29.7056,32,43.5925,64,13.8868,31.9999,27.7736,64,43.5925,64,15.8188-.0006,29.7056-32,43.5925-64,13.8868-32,27.7736-64,43.5925-64,15.8188.0006,29.7056,32,43.5925,64,13.8869,31.9999,27.7736,64,43.5925,64,15.8188-.0006,29.7057-32,43.5925-64,13.8867-32,27.7736-64,43.5925-64,15.8188.0006,29.7057,32,43.5925,64,13.8867,31.9999,27.7736,64,43.5925,64,15.8188-.0006,29.7057-32,43.5925-64,13.8867-32,27.7736-64,43.5925-64,15.8188.0006,29.7057,32,43.5925,64,13.8867,31.9999,27.7736,64,43.5925,64s29.7057-32,43.5925-64c13.8867-32,27.7736-64,43.5925-64,15.8188.0006,29.7057,32,43.5925,64,13.8867,31.9999,27.7736,64,43.5925,64,15.8188-.0006,29.7057-32,43.5925-64,13.8867-32,27.7736-64,43.5925-64,15.8188.0006,29.7057,32,43.5925,64,13.8867,31.9999,27.7736,64,43.5925,64,15.8188-.0006,29.7057-32,43.5925-64,13.8867-32,27.7736-64,43.5925-64,15.8188.0006,29.7057,32,43.5925,64,13.8867,31.9999,27.7736,64,43.5925,64,15.8188-.0006,29.7057-32,43.5925-64,13.8867-32,27.7736-64,43.5925-64,15.8188.0006,29.7057,32,43.5925,64" fill="none" stroke="#fff" stroke-width="40"/>
  <circle cx="240" cy="676" r="400" fill="#aedf9d" stroke="#fff" stroke-width="64"/>
  <path d="M-204.2128,1253.2909c27.7736,64,55.5472,128,87.1849,128,31.6377-.0011,59.4113-64,87.1849-128,27.7736-64,55.5472-128,87.1849-128,31.6377.0011,59.4113,64,87.1849,128,27.7736,63.9998,55.5472,128,87.1849,128s59.4113-64,87.1849-128c27.7736-64,55.5472-128,87.1849-128,31.6377.0011,59.4113,64,87.1849,128,27.7736,63.9998,55.5472,128,87.1849,128,31.6377-.0011,59.4113-64,87.1849-128,27.7736-64,55.5471-128,87.1849-128,31.6377.0011,59.4113,64,87.1849,128,27.7736,63.9998,55.5471,128,87.1849,128s59.4113-64,87.1849-128c27.7736-64,55.5471-128,87.1849-128s59.4113,64,87.1849,128c27.7736,63.9998,55.5471,128,87.1849,128,31.6378-.0011,59.4113-64,87.1849-128,27.7736-64,55.5471-128,87.1849-128,31.6378.0011,59.4113,64,87.1849,128,27.7736,63.9998,55.5471,128,87.1849,128,31.6378-.0011,59.4113-64,87.1849-128,27.7736-64,55.5472-128,87.1849-128,31.6377.0011,59.4113,64,87.1849,128,27.7736,63.9998,55.5472,128,87.1849,128,31.6377-.0011,59.4113-64,87.1849-128,27.7736-64,55.5472-128,87.1849-128s59.4113,64,87.1849,128c27.7736,63.9998,55.5472,128,87.1849,128s59.4113-64,87.1849-128c27.7736-64,55.5472-128,87.1849-128,31.6377.0011,59.4113,64,87.3056,128,27.7736,64,55.5472,128,87.1849,128s59.4113-64,87.1849-128c27.7736-64,55.5472-128,87.1849-128,31.6377.0011,59.4113,64,87.1849,128,27.7736,63.9998,55.5472,128,87.1849,128,31.6377-.0011,59.4113-64,87.1849-128,27.7736-64,55.5472-128,87.1849-128,31.6377.0011,59.4113,64,87.1849,128,27.7738,63.9998,55.5472,128,87.1849,128,31.6377-.0011,59.4115-64,87.1849-128,27.7734-64,55.5472-128,87.1849-128,31.6377.0011,59.4115,64,87.1849,128,27.7734,63.9998,55.5472,128,87.1849,128,31.6377-.0011,59.4115-64,87.1849-128,27.7734-64,55.5472-128,87.1849-128,31.6377.0011,59.4115,64,87.1849,128,27.7734,63.9998,55.5472,128,87.1849,128s59.4115-64,87.1849-128c27.7734-64,55.5472-128,87.1849-128,31.6377.0011,59.4115,64,87.1849,128,27.7734,63.9998,55.5472,128,87.1849,128,31.6377-.0011,59.4115-64,87.1849-128,27.7734-64,55.5472-128,87.1849-128,31.6377.0011,59.4115,64,87.1849,128,27.7734,63.9998,55.5472,128,87.1849,128,31.6377-.0011,59.4115-64,87.1849-128,27.7734-64,55.5472-128,87.1849-128,31.6377.0011,59.4115,64,87.1849,128,27.7734,63.9998,55.5472,128,87.1849,128,31.6377-.0011,59.4115-64,87.1849-128,27.7734-64,55.5472-128,87.1849-128,31.6377.0011,59.4115,64,87.1849,128" fill="none" stroke="#aedf9d" stroke-width="64"/>
  <path d="M42.7872,895.2909c20.8302,48,41.6604,96,65.3887,96,23.7283-.0008,44.5585-48,65.3887-96,20.8302-48,41.6604-96,65.3887-96,23.7283.0008,44.5585,48,65.3887,96,20.8302,47.9999,41.6604,96,65.3887,96s44.5585-48,65.3887-96c20.8302-48,41.6604-96,65.3887-96,23.7283.0008,44.5585,48,65.3887,96,20.8302,47.9999,41.6604,96,65.3887,96,23.7283-.0008,44.5585-48,65.3887-96,20.8302-48,41.6604-96,65.3887-96,23.7283.0008,44.5585,48,65.3887,96,20.8302,47.9999,41.6604,96,65.3887,96s44.5585-48,65.3887-96c20.8302-48,41.6604-96,65.3887-96s44.5585,48,65.3887,96c20.8302,47.9999,41.6604,96,65.3887,96,23.7283-.0008,44.5585-48,65.3887-96,20.8302-48,41.6604-96,65.3887-96,23.7283.0008,44.5585,48,65.3887,96,20.8302,47.9999,41.6604,96,65.3887,96,23.7283-.0008,44.5585-48,65.3887-96,20.8302-48,41.6604-96,65.3887-96,23.7283.0008,44.5585,48,65.3887,96,20.8302,47.9999,41.6604,96,65.3887,96,23.7283-.0008,44.5585-48,65.3887-96,20.8302-48,41.6604-96,65.3887-96s44.5585,48,65.3887,96c20.8302,47.9999,41.6604,96,65.3887,96s44.5585-48,65.3887-96c20.8302-48,41.6604-96,65.3887-96,23.7283.0008,44.5585,48,65.4792,96,20.8302,48,41.6604,96,65.3887,96s44.5585-48,65.3887-96c20.8302-48,41.6604-96,65.3887-96,23.7283.0008,44.5585,48,65.3887,96,20.8302,47.9999,41.6604,96,65.3887,96,23.7283-.0008,44.5585-48,65.3887-96,20.8302-48,41.6604-96,65.3887-96,23.7283.0008,44.5585,48,65.3887,96,20.8304,47.9999,41.6604,96,65.3887,96,23.7283-.0008,44.5586-48,65.3887-96,20.8301-48,41.6604-96,65.3887-96,23.7283.0008,44.5586,48,65.3887,96,20.8301,47.9999,41.6604,96,65.3887,96,23.7283-.0008,44.5586-48,65.3887-96,20.8301-48,41.6604-96,65.3887-96,23.7283.0008,44.5586,48,65.3887,96,20.8301,47.9999,41.6604,96,65.3887,96s44.5586-48,65.3887-96c20.8301-48,41.6604-96,65.3887-96,23.7283.0008,44.5586,48,65.3887,96,20.8301,47.9999,41.6604,96,65.3887,96,23.7283-.0008,44.5586-48,65.3887-96,20.8301-48,41.6604-96,65.3887-96,23.7283.0008,44.5586,48,65.3887,96,20.8301,47.9999,41.6604,96,65.3887,96,23.7283-.0008,44.5586-48,65.3887-96,20.8301-48,41.6604-96,65.3887-96,23.7283.0008,44.5586,48,65.3887,96,20.8301,47.9999,41.6604,96,65.3887,96,23.7283-.0008,44.5586-48,65.3887-96,20.8301-48,41.6604-96,65.3887-96,23.7283.0008,44.5586,48,65.3887,96" fill="none" stroke="#aedf9d" stroke-width="48"/>
  <circle cx="2586" cy="1352" r="400" fill="#aedf9d" stroke="#fff" stroke-width="40"/>
  <circle cx="2499" cy="502" r="128" fill="#aedf9d" stroke="#fff" stroke-width="32"/>
  <circle cx="1013" cy="1352" r="200" fill="#e1f0dd" stroke="#fff" stroke-width="40"/>
  <path d="M42.7872,253.2909c13.8868,32,27.7736,64,43.5924,64,15.8189-.0006,29.7057-32,43.5924-64,13.8868-32,27.7736-64,43.5924-64,15.8189.0006,29.7057,32,43.5924,64,13.8868,31.9999,27.7736,64,43.5924,64s29.7057-32,43.5924-64c13.8868-32,27.7736-64,43.5924-64,15.8189.0006,29.7057,32,43.5924,64,13.8868,31.9999,27.7736,64,43.5924,64,15.8189-.0006,29.7056-32,43.5925-64,13.8868-32,27.7736-64,43.5925-64,15.8189.0006,29.7056,32,43.5925,64,13.8868,31.9999,27.7736,64,43.5925,64s29.7056-32,43.5925-64c13.8868-32,27.7736-64,43.5925-64s29.7056,32,43.5925,64c13.8868,31.9999,27.7736,64,43.5925,64,15.8189-.0006,29.7056-32,43.5925-64,13.8868-32,27.7736-64,43.5925-64,15.8189.0006,29.7056,32,43.5925,64,13.8868,31.9999,27.7736,64,43.5925,64,15.8189-.0006,29.7056-32,43.5925-64,13.8868-32,27.7736-64,43.5925-64,15.8188.0006,29.7056,32,43.5925,64,13.8868,31.9999,27.7736,64,43.5925,64,15.8188-.0006,29.7056-32,43.5925-64,13.8868-32,27.7736-64,43.5925-64s29.7056,32,43.5925,64c13.8868,31.9999,27.7736,64,43.5925,64s29.7056-32,43.5925-64c13.8868-32,27.7736-64,43.5925-64,15.8188.0006,29.7056,32,43.6528,64,13.8868,32,27.7736,64,43.5925,64s29.7056-32,43.5925-64c13.8868-32,27.7736-64,43.5925-64,15.8188.0006,29.7056,32,43.5925,64,13.8868,31.9999,27.7736,64,43.5925,64,15.8188-.0006,29.7056-32,43.5925-64,13.8868-32,27.7736-64,43.5925-64,15.8188.0006,29.7056,32,43.5925,64,13.8869,31.9999,27.7736,64,43.5925,64,15.8188-.0006,29.7057-32,43.5925-64,13.8867-32,27.7736-64,43.5925-64,15.8188.0006,29.7057,32,43.5925,64,13.8867,31.9999,27.7736,64,43.5925,64,15.8188-.0006,29.7057-32,43.5925-64,13.8867-32,27.7736-64,43.5925-64,15.8188.0006,29.7057,32,43.5925,64,13.8867,31.9999,27.7736,64,43.5925,64s29.7057-32,43.5925-64c13.8867-32,27.7736-64,43.5925-64,15.8188.0006,29.7057,32,43.5925,64,13.8867,31.9999,27.7736,64,43.5925,64,15.8188-.0006,29.7057-32,43.5925-64,13.8867-32,27.7736-64,43.5925-64,15.8188.0006,29.7057,32,43.5925,64,13.8867,31.9999,27.7736,64,43.5925,64,15.8188-.0006,29.7057-32,43.5925-64,13.8867-32,27.7736-64,43.5925-64,15.8188.0006,29.7057,32,43.5925,64,13.8867,31.9999,27.7736,64,43.5925,64,15.8188-.0006,29.7057-32,43.5925-64,13.8867-32,27.7736-64,43.5925-64,15.8188.0006,29.7057,32,43.5925,64" fill="none" stroke="#aedf9d" stroke-width="32"/>
  <circle cx="1226" cy="339" r="150" fill="#e1f0dd" stroke="#fff" stroke-width="32"/>
  <path d="M1480.1909,739.5641c13.8868,32,27.7736,64,43.5924,64,15.8189-.0006,29.7057-32,43.5924-64,13.8868-32,27.7736-64,43.5924-64,15.8189.0006,29.7057,32,43.5924,64,13.8868,31.9999,27.7736,64,43.5924,64s29.7057-32,43.5924-64c13.8868-32,27.7736-64,43.5924-64,15.8189.0006,29.7057,32,43.5924,64,13.8868,31.9999,27.7736,64,43.5924,64,15.8189-.0006,29.7056-32,43.5925-64,13.8868-32,27.7736-64,43.5925-64,15.8189.0006,29.7056,32,43.5925,64,13.8868,31.9999,27.7736,64,43.5925,64s29.7056-32,43.5925-64c13.8868-32,27.7736-64,43.5925-64s29.7056,32,43.5925,64c13.8868,31.9999,27.7736,64,43.5925,64,15.8189-.0006,29.7056-32,43.5925-64,13.8868-32,27.7736-64,43.5925-64,15.8189.0006,29.7056,32,43.5925,64,13.8868,31.9999,27.7736,64,43.5925,64,15.8189-.0006,29.7056-32,43.5925-64,13.8868-32,27.7736-64,43.5925-64,15.8188.0006,29.7056,32,43.5925,64,13.8868,31.9999,27.7736,64,43.5925,64,15.8188-.0006,29.7056-32,43.5925-64,13.8868-32,27.7736-64,43.5925-64s29.7056,32,43.5925,64c13.8868,31.9999,27.7736,64,43.5925,64s29.7056-32,43.5925-64c13.8868-32,27.7736-64,43.5925-64,15.8188.0006,29.7056,32,43.6528,64,13.8868,32,27.7736,64,43.5925,64s29.7056-32,43.5925-64c13.8868-32,27.7736-64,43.5925-64,15.8188.0006,29.7056,32,43.5925,64,13.8868,31.9999,27.7736,64,43.5925,64,15.8188-.0006,29.7056-32,43.5925-64,13.8868-32,27.7736-64,43.5925-64,15.8188.0006,29.7056,32,43.5925,64,13.8869,31.9999,27.7736,64,43.5925,64,15.8188-.0006,29.7057-32,43.5925-64,13.8867-32,27.7736-64,43.5925-64,15.8188.0006,29.7057,32,43.5925,64,13.8867,31.9999,27.7736,64,43.5925,64,15.8188-.0006,29.7057-32,43.5925-64,13.8867-32,27.7736-64,43.5925-64,15.8188.0006,29.7057,32,43.5925,64,13.8867,31.9999,27.7736,64,43.5925,64s29.7057-32,43.5925-64c13.8867-32,27.7736-64,43.5925-64,15.8188.0006,29.7057,32,43.5925,64,13.8867,31.9999,27.7736,64,43.5925,64,15.8188-.0006,29.7057-32,43.5925-64,13.8867-32,27.7736-64,43.5925-64,15.8188.0006,29.7057,32,43.5925,64,13.8867,31.9999,27.7736,64,43.5925,64,15.8188-.0006,29.7057-32,43.5925-64,13.8867-32,27.7736-64,43.5925-64,15.8188.0006,29.7057,32,43.5925,64,13.8867,31.9999,27.7736,64,43.5925,64,15.8188-.0006,29.7057-32,43.5925-64,13.8867-32,27.7736-64,43.5925-64,15.8188.0006,29.7057,32,43.5925,64" fill="none" stroke="#aedf9d" stroke-width="32"/>
  <circle cx="1687" cy="476" r="200" fill="#5eaf30" stroke="#fff" stroke-width="40"/>
  <circle cx="725" cy="826" r="150" fill="#5eaf30" stroke="#fff" stroke-width="32"/>
  <path d="M-879.8091,832.5641c10.4151,24,20.8302,48,32.6943,48,11.8642-.0004,22.2792-24,32.6943-48,10.4151-24,20.8302-48,32.6943-48,11.8641.0004,22.2792,24,32.6943,48,10.4151,23.9999,20.8302,48,32.6943,48s22.2792-24,32.6943-48c10.4151-24,20.8302-48,32.6943-48,11.8641.0004,22.2792,24,32.6943,48,10.4151,23.9999,20.8302,48,32.6943,48,11.8641-.0004,22.2792-24,32.6943-48,10.4151-24,20.8302-48,32.6943-48,11.8641.0004,22.2792,24,32.6943,48,10.4151,23.9999,20.8302,48,32.6943,48s22.2792-24,32.6943-48,20.8302-48,32.6943-48,22.2792,24,32.6943,48c10.4151,23.9999,20.8302,48,32.6943,48,11.8642-.0004,22.2792-24,32.6943-48,10.4151-24,20.8302-48,32.6943-48,11.8642.0004,22.2792,24,32.6943,48,10.4151,23.9999,20.8302,48,32.6943,48,11.8642-.0004,22.2792-24,32.6943-48,10.4151-24,20.8302-48,32.6943-48,11.8641.0004,22.2792,24,32.6943,48,10.4151,23.9999,20.8302,48,32.6943,48,11.8641-.0004,22.2792-24,32.6943-48,10.4151-24,20.8302-48,32.6943-48s22.2792,24,32.6943,48c10.4151,23.9999,20.8302,48,32.6943,48s22.2792-24,32.6943-48,20.8302-48,32.6943-48c11.8641.0004,22.2792,24,32.7396,48,10.4151,24,20.8302,48,32.6943,48s22.2792-24,32.6943-48,20.8302-48,32.6943-48c11.8641.0004,22.2792,24,32.6943,48,10.4151,23.9999,20.8302,48,32.6943,48,11.8641-.0004,22.2792-24,32.6943-48s20.8302-48,32.6943-48c11.8641.0004,22.2792,24,32.6943,48,10.4152,23.9999,20.8302,48,32.6943,48,11.8641-.0004,22.2793-24,32.6943-48,10.415-24,20.8302-48,32.6943-48,11.8641.0004,22.2793,24,32.6943,48,10.415,23.9999,20.8302,48,32.6943,48,11.8641-.0004,22.2793-24,32.6943-48,10.415-24,20.8302-48,32.6943-48,11.8641.0004,22.2793,24,32.6943,48,10.415,23.9999,20.8302,48,32.6943,48s22.2793-24,32.6943-48c10.415-24,20.8302-48,32.6943-48,11.8641.0004,22.2793,24,32.6943,48,10.415,23.9999,20.8302,48,32.6943,48,11.8641-.0004,22.2793-24,32.6943-48,10.415-24,20.8302-48,32.6943-48,11.8641.0004,22.2793,24,32.6943,48,10.415,23.9999,20.8302,48,32.6943,48,11.8641-.0004,22.2793-24,32.6943-48s20.8302-48,32.6943-48c11.8641.0004,22.2793,24,32.6943,48,10.415,23.9999,20.8302,48,32.6943,48,11.8641-.0004,22.2793-24,32.6943-48s20.8302-48,32.6943-48c11.8641.0004,22.2793,24,32.6943,48" fill="none" stroke="#fff" stroke-width="32"/>
  <path d="M-101.8655,475.5641c13.8868,32,27.7736,64,43.5924,64,15.8189-.0006,29.7057-32,43.5924-64,13.8868-32,27.7736-64,43.5924-64,15.8189.0006,29.7057,32,43.5924,64,13.8868,31.9999,27.7736,64,43.5924,64s29.7057-32,43.5924-64c13.8868-32,27.7736-64,43.5924-64,15.8189.0006,29.7057,32,43.5924,64,13.8868,31.9999,27.7736,64,43.5924,64,15.8189-.0006,29.7056-32,43.5925-64,13.8868-32,27.7736-64,43.5925-64,15.8189.0006,29.7056,32,43.5925,64,13.8868,31.9999,27.7736,64,43.5925,64s29.7056-32,43.5925-64c13.8868-32,27.7736-64,43.5925-64s29.7056,32,43.5925,64c13.8868,31.9999,27.7736,64,43.5925,64,15.8189-.0006,29.7056-32,43.5925-64,13.8868-32,27.7736-64,43.5925-64,15.8189.0006,29.7056,32,43.5925,64,13.8868,31.9999,27.7736,64,43.5925,64,15.8189-.0006,29.7056-32,43.5925-64,13.8868-32,27.7736-64,43.5925-64,15.8188.0006,29.7056,32,43.5925,64,13.8868,31.9999,27.7736,64,43.5925,64,15.8188-.0006,29.7056-32,43.5925-64,13.8868-32,27.7736-64,43.5925-64s29.7056,32,43.5925,64c13.8868,31.9999,27.7736,64,43.5925,64s29.7056-32,43.5925-64c13.8868-32,27.7736-64,43.5925-64,15.8188.0006,29.7056,32,43.6528,64,13.8868,32,27.7736,64,43.5925,64s29.7056-32,43.5925-64c13.8868-32,27.7736-64,43.5925-64,15.8188.0006,29.7056,32,43.5925,64,13.8868,31.9999,27.7736,64,43.5925,64,15.8188-.0006,29.7056-32,43.5925-64,13.8868-32,27.7736-64,43.5925-64,15.8188.0006,29.7056,32,43.5925,64,13.8869,31.9999,27.7736,64,43.5925,64,15.8188-.0006,29.7057-32,43.5925-64,13.8867-32,27.7736-64,43.5925-64,15.8188.0006,29.7057,32,43.5925,64,13.8867,31.9999,27.7736,64,43.5925,64,15.8188-.0006,29.7057-32,43.5925-64,13.8867-32,27.7736-64,43.5925-64,15.8188.0006,29.7057,32,43.5925,64,13.8867,31.9999,27.7736,64,43.5925,64s29.7057-32,43.5925-64c13.8867-32,27.7736-64,43.5925-64,15.8188.0006,29.7057,32,43.5925,64,13.8867,31.9999,27.7736,64,43.5925,64,15.8188-.0006,29.7057-32,43.5925-64,13.8867-32,27.7736-64,43.5925-64,15.8188.0006,29.7057,32,43.5925,64,13.8867,31.9999,27.7736,64,43.5925,64,15.8188-.0006,29.7057-32,43.5925-64,13.8867-32,27.7736-64,43.5925-64,15.8188.0006,29.7057,32,43.5925,64,13.8867,31.9999,27.7736,64,43.5925,64,15.8188-.0006,29.7057-32,43.5925-64,13.8867-32,27.7736-64,43.5925-64,15.8188.0006,29.7057,32,43.5925,64" fill="none" stroke="#fff" stroke-width="40"/>
  <path d="M-1530.8091,373.5641c13.8868,32,27.7736,64,43.5924,64,15.8189-.0006,29.7057-32,43.5924-64,13.8868-32,27.7736-64,43.5924-64,15.8189.0006,29.7057,32,43.5924,64,13.8868,31.9999,27.7736,64,43.5924,64s29.7057-32,43.5924-64c13.8868-32,27.7736-64,43.5924-64,15.8189.0006,29.7057,32,43.5924,64,13.8868,31.9999,27.7736,64,43.5924,64,15.8189-.0006,29.7056-32,43.5925-64,13.8868-32,27.7736-64,43.5925-64,15.8189.0006,29.7056,32,43.5925,64,13.8868,31.9999,27.7736,64,43.5925,64s29.7056-32,43.5925-64c13.8868-32,27.7736-64,43.5925-64s29.7056,32,43.5925,64c13.8868,31.9999,27.7736,64,43.5925,64,15.8189-.0006,29.7056-32,43.5925-64,13.8868-32,27.7736-64,43.5925-64,15.8189.0006,29.7056,32,43.5925,64,13.8868,31.9999,27.7736,64,43.5925,64,15.8189-.0006,29.7056-32,43.5925-64,13.8868-32,27.7736-64,43.5925-64,15.8188.0006,29.7056,32,43.5925,64,13.8868,31.9999,27.7736,64,43.5925,64,15.8188-.0006,29.7056-32,43.5925-64,13.8868-32,27.7736-64,43.5925-64s29.7056,32,43.5925,64c13.8868,31.9999,27.7736,64,43.5925,64s29.7056-32,43.5925-64c13.8868-32,27.7736-64,43.5925-64,15.8188.0006,29.7056,32,43.6528,64,13.8868,32,27.7736,64,43.5925,64s29.7056-32,43.5925-64c13.8868-32,27.7736-64,43.5925-64,15.8188.0006,29.7056,32,43.5925,64,13.8868,31.9999,27.7736,64,43.5925,64,15.8188-.0006,29.7056-32,43.5925-64,13.8868-32,27.7736-64,43.5925-64,15.8188.0006,29.7056,32,43.5925,64,13.8869,31.9999,27.7736,64,43.5925,64,15.8188-.0006,29.7057-32,43.5925-64,13.8867-32,27.7736-64,43.5925-64,15.8188.0006,29.7057,32,43.5925,64,13.8867,31.9999,27.7736,64,43.5925,64,15.8188-.0006,29.7057-32,43.5925-64,13.8867-32,27.7736-64,43.5925-64,15.8188.0006,29.7057,32,43.5925,64,13.8867,31.9999,27.7736,64,43.5925,64s29.7057-32,43.5925-64c13.8867-32,27.7736-64,43.5925-64,15.8188.0006,29.7057,32,43.5925,64,13.8867,31.9999,27.7736,64,43.5925,64,15.8188-.0006,29.7057-32,43.5925-64,13.8867-32,27.7736-64,43.5925-64,15.8188.0006,29.7057,32,43.5925,64,13.8867,31.9999,27.7736,64,43.5925,64,15.8188-.0006,29.7057-32,43.5925-64,13.8867-32,27.7736-64,43.5925-64,15.8188.0006,29.7057,32,43.5925,64,13.8867,31.9999,27.7736,64,43.5925,64,15.8188-.0006,29.7057-32,43.5925-64,13.8867-32,27.7736-64,43.5925-64,15.8188.0006,29.7057,32,43.5925,64" fill="none" stroke="#aedf9d" stroke-width="32"/>
  <circle cx="1566" cy="996" r="128" fill="#aedf9d" stroke="#fff" stroke-width="32"/>
  <path d="M-478.8091,1087.5641c13.8868,32,27.7736,64,43.5924,64,15.8189-.0006,29.7057-32,43.5924-64,13.8868-32,27.7736-64,43.5924-64,15.8189.0006,29.7057,32,43.5924,64,13.8868,31.9999,27.7736,64,43.5924,64s29.7057-32,43.5924-64c13.8868-32,27.7736-64,43.5924-64,15.8189.0006,29.7057,32,43.5924,64,13.8868,31.9999,27.7736,64,43.5924,64,15.8189-.0006,29.7056-32,43.5925-64,13.8868-32,27.7736-64,43.5925-64,15.8189.0006,29.7056,32,43.5925,64,13.8868,31.9999,27.7736,64,43.5925,64s29.7056-32,43.5925-64c13.8868-32,27.7736-64,43.5925-64s29.7056,32,43.5925,64c13.8868,31.9999,27.7736,64,43.5925,64,15.8189-.0006,29.7056-32,43.5925-64,13.8868-32,27.7736-64,43.5925-64,15.8189.0006,29.7056,32,43.5925,64,13.8868,31.9999,27.7736,64,43.5925,64,15.8189-.0006,29.7056-32,43.5925-64,13.8868-32,27.7736-64,43.5925-64,15.8188.0006,29.7056,32,43.5925,64,13.8868,31.9999,27.7736,64,43.5925,64,15.8188-.0006,29.7056-32,43.5925-64,13.8868-32,27.7736-64,43.5925-64s29.7056,32,43.5925,64c13.8868,31.9999,27.7736,64,43.5925,64s29.7056-32,43.5925-64c13.8868-32,27.7736-64,43.5925-64,15.8188.0006,29.7056,32,43.6528,64,13.8868,32,27.7736,64,43.5925,64s29.7056-32,43.5925-64c13.8868-32,27.7736-64,43.5925-64,15.8188.0006,29.7056,32,43.5925,64,13.8868,31.9999,27.7736,64,43.5925,64,15.8188-.0006,29.7056-32,43.5925-64,13.8868-32,27.7736-64,43.5925-64,15.8188.0006,29.7056,32,43.5925,64,13.8869,31.9999,27.7736,64,43.5925,64,15.8188-.0006,29.7057-32,43.5925-64,13.8867-32,27.7736-64,43.5925-64,15.8188.0006,29.7057,32,43.5925,64,13.8867,31.9999,27.7736,64,43.5925,64,15.8188-.0006,29.7057-32,43.5925-64,13.8867-32,27.7736-64,43.5925-64,15.8188.0006,29.7057,32,43.5925,64,13.8867,31.9999,27.7736,64,43.5925,64s29.7057-32,43.5925-64c13.8867-32,27.7736-64,43.5925-64,15.8188.0006,29.7057,32,43.5925,64,13.8867,31.9999,27.7736,64,43.5925,64,15.8188-.0006,29.7057-32,43.5925-64,13.8867-32,27.7736-64,43.5925-64,15.8188.0006,29.7057,32,43.5925,64,13.8867,31.9999,27.7736,64,43.5925,64,15.8188-.0006,29.7057-32,43.5925-64,13.8867-32,27.7736-64,43.5925-64,15.8188.0006,29.7057,32,43.5925,64,13.8867,31.9999,27.7736,64,43.5925,64,15.8188-.0006,29.7057-32,43.5925-64,13.8867-32,27.7736-64,43.5925-64,15.8188.0006,29.7057,32,43.5925,64" fill="none" stroke="#aedf9d" stroke-width="32"/>
  <path d="M975.7872,1352.2909c13.8868,32,27.7736,64,43.5924,64,15.8189-.0006,29.7057-32,43.5924-64,13.8868-32,27.7736-64,43.5924-64,15.8189.0006,29.7057,32,43.5924,64,13.8868,31.9999,27.7736,64,43.5924,64s29.7057-32,43.5924-64c13.8868-32,27.7736-64,43.5924-64,15.8189.0006,29.7057,32,43.5924,64,13.8868,31.9999,27.7736,64,43.5924,64,15.8189-.0006,29.7056-32,43.5925-64,13.8868-32,27.7736-64,43.5925-64,15.8189.0006,29.7056,32,43.5925,64,13.8868,31.9999,27.7736,64,43.5925,64s29.7056-32,43.5925-64,27.7736-64,43.5925-64,29.7056,32,43.5925,64c13.8868,31.9999,27.7736,64,43.5925,64,15.8189-.0006,29.7056-32,43.5925-64,13.8868-32,27.7736-64,43.5925-64,15.8189.0006,29.7056,32,43.5925,64,13.8868,31.9999,27.7736,64,43.5925,64,15.8189-.0006,29.7056-32,43.5925-64s27.7736-64,43.5925-64c15.8188.0006,29.7056,32,43.5925,64,13.8868,31.9999,27.7736,64,43.5925,64,15.8188-.0006,29.7056-32,43.5925-64,13.8868-32,27.7736-64,43.5925-64s29.7056,32,43.5925,64c13.8868,31.9999,27.7736,64,43.5925,64s29.7056-32,43.5925-64,27.7736-64,43.5925-64c15.8188.0006,29.7056,32,43.6528,64,13.8868,32,27.7736,64,43.5925,64s29.7056-32,43.5925-64,27.7736-64,43.5925-64c15.8188.0006,29.7056,32,43.5925,64,13.8868,31.9999,27.7736,64,43.5925,64,15.8188-.0006,29.7056-32,43.5925-64,13.8868-32,27.7736-64,43.5925-64,15.8188.0006,29.7056,32,43.5925,64,13.8869,31.9999,27.7736,64,43.5925,64,15.8188-.0006,29.7057-32,43.5925-64,13.8867-32,27.7736-64,43.5925-64,15.8188.0006,29.7057,32,43.5925,64,13.8867,31.9999,27.7736,64,43.5925,64,15.8188-.0006,29.7057-32,43.5925-64,13.8867-32,27.7736-64,43.5925-64,15.8188.0006,29.7057,32,43.5925,64,13.8867,31.9999,27.7736,64,43.5925,64s29.7057-32,43.5925-64c13.8867-32,27.7736-64,43.5925-64,15.8188.0006,29.7057,32,43.5925,64,13.8867,31.9999,27.7736,64,43.5925,64,15.8188-.0006,29.7057-32,43.5925-64,13.8867-32,27.7736-64,43.5925-64,15.8188.0006,29.7057,32,43.5925,64,13.8867,31.9999,27.7736,64,43.5925,64,15.8188-.0006,29.7057-32,43.5925-64,13.8867-32,27.7736-64,43.5925-64,15.8188.0006,29.7057,32,43.5925,64,13.8867,31.9999,27.7736,64,43.5925,64,15.8188-.0006,29.7057-32,43.5925-64,13.8867-32,27.7736-64,43.5925-64,15.8188.0006,29.7057,32,43.5925,64" fill="none" stroke="#fff" stroke-width="40"/>
  <path d="M-1228.3898,1672.3239c13.8868,32,27.7736,64,43.5924,64,15.8189-.0006,29.7057-32,43.5924-64,13.8868-32,27.7736-64,43.5924-64,15.8189.0006,29.7057,32,43.5924,64,13.8868,31.9999,27.7736,64,43.5924,64s29.7057-32,43.5924-64c13.8868-32,27.7736-64,43.5924-64,15.8189.0006,29.7057,32,43.5924,64,13.8868,31.9999,27.7736,64,43.5924,64,15.8189-.0006,29.7056-32,43.5925-64,13.8868-32,27.7736-64,43.5925-64,15.8189.0006,29.7056,32,43.5925,64,13.8868,31.9999,27.7736,64,43.5925,64s29.7056-32,43.5925-64c13.8868-32,27.7736-64,43.5925-64s29.7056,32,43.5925,64c13.8868,31.9999,27.7736,64,43.5925,64,15.8189-.0006,29.7056-32,43.5925-64,13.8868-32,27.7736-64,43.5925-64,15.8189.0006,29.7056,32,43.5925,64,13.8868,31.9999,27.7736,64,43.5925,64,15.8189-.0006,29.7056-32,43.5925-64,13.8868-32,27.7736-64,43.5925-64,15.8188.0006,29.7056,32,43.5925,64,13.8868,31.9999,27.7736,64,43.5925,64,15.8188-.0006,29.7056-32,43.5925-64,13.8868-32,27.7736-64,43.5925-64s29.7056,32,43.5925,64c13.8868,31.9999,27.7736,64,43.5925,64s29.7056-32,43.5925-64c13.8868-32,27.7736-64,43.5925-64,15.8188.0006,29.7056,32,43.6528,64,13.8868,32,27.7736,64,43.5925,64s29.7056-32,43.5925-64c13.8868-32,27.7736-64,43.5925-64,15.8188.0006,29.7056,32,43.5925,64,13.8868,31.9999,27.7736,64,43.5925,64,15.8188-.0006,29.7056-32,43.5925-64,13.8868-32,27.7736-64,43.5925-64,15.8188.0006,29.7056,32,43.5925,64,13.8869,31.9999,27.7736,64,43.5925,64,15.8188-.0006,29.7057-32,43.5925-64,13.8867-32,27.7736-64,43.5925-64,15.8188.0006,29.7057,32,43.5925,64,13.8867,31.9999,27.7736,64,43.5925,64,15.8188-.0006,29.7057-32,43.5925-64,13.8867-32,27.7736-64,43.5925-64,15.8188.0006,29.7057,32,43.5925,64,13.8867,31.9999,27.7736,64,43.5925,64s29.7057-32,43.5925-64c13.8867-32,27.7736-64,43.5925-64,15.8188.0006,29.7057,32,43.5925,64,13.8867,31.9999,27.7736,64,43.5925,64,15.8188-.0006,29.7057-32,43.5925-64,13.8867-32,27.7736-64,43.5925-64,15.8188.0006,29.7057,32,43.5925,64,13.8867,31.9999,27.7736,64,43.5925,64,15.8188-.0006,29.7057-32,43.5925-64,13.8867-32,27.7736-64,43.5925-64,15.8188.0006,29.7057,32,43.5925,64,13.8867,31.9999,27.7736,64,43.5925,64,15.8188-.0006,29.7057-32,43.5925-64,13.8867-32,27.7736-64,43.5925-64,15.8188.0006,29.7057,32,43.5925,64" fill="none" stroke="#5eaf30" stroke-width="32"/>
</svg>