<?xml version="1.0" encoding="utf-8"?>
<!-- Generator: Adobe Illustrator 28.2.0, SVG Export Plug-In . SVG Version: 6.00 Build 0)  -->
<svg version="1.1" id="レイヤー_1" xmlns="http://www.w3.org/2000/svg" xmlns:xlink="http://www.w3.org/1999/xlink" x="0px"
	 y="0px" viewBox="0 0 1080 360" enable-background="new 0 0 1080 360" xml:space="preserve">
<g>
	<g>
		<polygon fill="#5EAF30" points="1040,308 800,307.8488 800,52 1040,52 		"/>
		<g>
			<path fill="#1A140F" d="M414.71,217.9648h-15.4795l-2.1597-34.6787c-0.7202-12.2393-1.3198-25.0786-1.0801-33.8384
				l-15.1196,59.5176h-14.999l-16.0796-59.6377c0.48,11.1597,0.2402,22.5591-0.48,34.4385l-2.04,34.1987h-15.3594l6.6001-82.9165
				h20.3989l14.7598,58.0776l13.9189-58.0776h20.6396L414.71,217.9648z"/>
			<path fill="#1A140F" d="M479.8818,190.9658h-39.8384c1.1997,12.9595,7.1997,17.1597,15.5991,17.1597
				c5.6401,0,10.3198-1.8003,15.8398-5.6401l6.3594,8.7598c-6.2397,5.0396-13.9194,8.5195-23.519,8.5195
				c-19.6792,0-30.2388-13.0796-30.2388-33.1187c0-19.3193,10.1997-33.9585,28.1992-33.9585
				c17.7588,0,27.9585,11.9995,27.9585,32.0386C480.2417,186.7661,480.002,189.2861,479.8818,190.9658z M465.0024,180.2866
				c0-10.4399-3.7197-16.6797-12.3594-16.6797c-7.1997,0-11.7598,4.7998-12.5996,17.3994h24.959V180.2866z"/>
			<path fill="#1A140F" d="M543.6602,172.0068v45.958h-15.3594v-43.5581c0-7.9199-3-10.1997-7.7998-10.1997
				c-5.5195,0-9.5996,3.7197-13.3193,9.5996v44.1582h-15.3594v-63.4775h13.3193l1.2002,8.3999
				c4.9194-6.3599,11.2793-10.1997,19.3188-10.1997C537.0605,152.6875,543.6602,159.8872,543.6602,172.0068z"/>
			<path fill="#1A140F" d="M610.1875,172.0068v45.958h-15.3594v-43.5581c0-7.9199-3.1201-10.1997-7.7998-10.1997
				c-5.3999,0-9.5996,3.7197-13.3193,9.4795v44.2783h-15.3594v-88.7964l15.3594-1.5601v34.5586
				c4.7998-5.9995,10.9194-9.4795,18.479-9.4795C603.4678,152.6875,610.1875,160.0073,610.1875,172.0068z"/>
			<path fill="#1A140F" d="M677.2065,190.9658h-39.8384c1.2002,12.9595,7.1997,17.1597,15.5996,17.1597
				c5.6396,0,10.3193-1.8003,15.8389-5.6401l6.3599,8.7598c-6.2397,5.0396-13.9194,8.5195-23.519,8.5195
				c-19.6792,0-30.2388-13.0796-30.2388-33.1187c0-19.3193,10.1997-33.9585,28.1987-33.9585
				c17.7598,0,27.959,11.9995,27.959,32.0386C677.5664,186.7661,677.3267,189.2861,677.2065,190.9658z M662.3271,180.2866
				c0-10.4399-3.7197-16.6797-12.3594-16.6797c-7.1997,0-11.7598,4.7998-12.5996,17.3994h24.959V180.2866z"/>
			<path fill="#1A140F" d="M726.8252,153.6475l-2.6396,14.8794c-1.9199-0.48-3.4795-0.7197-5.6396-0.7197
				c-7.7998,0-11.6396,5.6396-14.0391,16.439v33.7188h-15.3594v-63.4775h13.3193l1.4395,12.4795
				c3-9.1196,9.1201-14.1592,16.5596-14.1592C722.7461,152.8076,724.7852,153.0474,726.8252,153.6475z"/>
			<path fill="#1A140F" d="M786.4414,209.3252l-3.2402,10.1997c-6.96-0.6001-11.5195-3-14.0391-9.2397
				c-4.4404,6.7197-11.3994,9.4795-18.96,9.4795c-12.7188,0-20.5186-8.0396-20.5186-19.5591
				c0-13.7993,10.4395-21.2393,28.9189-21.2393h7.9189v-3.5996c0-8.2798-3.7197-11.0396-11.8789-11.0396
				c-4.3203,0-10.4395,1.1997-16.7998,3.3599l-3.5996-10.4395c7.7998-3,15.8398-4.5601,23.0391-4.5601
				c16.9189,0,24.3584,7.7998,24.3584,21.8394v26.6387C781.6406,206.3252,783.3213,208.1255,786.4414,209.3252z M766.5215,200.8057
				v-12.8394h-6.3594c-9.96,0-14.8789,3.5996-14.8789,11.0391c0,6.1201,3.1191,9.5996,8.999,9.5996
				C759.6826,208.605,763.6416,205.8452,766.5215,200.8057z"/>
		</g>
		<g>
			<path fill="#FFFFFF" d="M838.7158,208.3066c0,5.2803-4.3203,9.7197-9.8398,9.7197c-5.3994,0-9.5996-4.4395-9.5996-9.7197
				c0-5.3994,4.2002-9.7197,9.5996-9.7197C834.3955,198.5869,838.7158,202.9072,838.7158,208.3066z"/>
			<path fill="#FFFFFF" d="M904.9766,184.4277c0,20.0391-11.1592,33.5986-29.8789,33.5986
				c-18.7188,0-29.8789-12.7197-29.8789-33.5986c0-19.9189,11.1602-33.4785,29.999-33.4785
				C893.9375,150.9492,904.9766,163.6689,904.9766,184.4277z M861.4189,184.4277c0,15.2393,4.6797,21.959,13.6787,21.959
				c9,0,13.6797-6.8398,13.6797-21.959s-4.6797-21.8389-13.5596-21.8389C866.2188,162.5889,861.4189,169.4287,861.4189,184.4277z"/>
			<path fill="#FFFFFF" d="M954.3457,151.9092l-2.6396,14.8789c-1.9199-0.4795-3.4805-0.7197-5.6396-0.7197
				c-7.7998,0-11.6396,5.6396-14.04,16.4395v33.7188H916.667V152.749h13.3193l1.4404,12.4795
				c3-9.1191,9.1191-14.1592,16.5596-14.1592C950.2656,151.0693,952.3057,151.3096,954.3457,151.9092z"/>
			<path fill="#FFFFFF" d="M1018.1729,156.1094c-4.7998,1.6797-10.7998,2.1592-18.3594,2.1592
				c7.6797,3.4805,11.5195,8.4004,11.5195,16.3193c0,12.3604-9.5996,21.3594-25.5596,21.3594c-2.7598,0-5.1592-0.2402-7.5596-0.96
				c-1.5596,1.0801-2.6396,2.7598-2.6396,4.6797c0,2.2803,1.3203,4.4404,7.6797,4.4404h9.7197
				c14.0391,0,23.1592,7.5596,23.1592,17.999c0,12.7197-10.9199,20.2793-31.6787,20.2793c-22.5596,0-28.9189-7.2002-28.9189-19.9199
				h13.7998c0,6.3604,2.7598,9.1201,15.3594,9.1201c12.3594,0,15.959-3.3604,15.959-8.3994c0-4.6797-3.7197-7.5596-10.7998-7.5596
				h-9.5996c-12.7197,0-18.1191-5.6396-18.1191-12.2402c0-4.4395,2.7598-8.8789,7.4395-11.7588
				c-7.7998-4.0801-11.1592-9.7197-11.1592-17.8799c0-13.7988,10.9199-22.7988,26.2793-22.7988
				c14.999,0.3604,21.959-3,29.6387-7.0801L1018.1729,156.1094z M973.8945,173.5088c0,7.6797,4.1992,12.4785,11.2793,12.4785
				c7.3193,0,11.2793-4.5596,11.2793-12.5986c0-8.04-3.8398-12-11.5195-12C977.9746,161.3887,973.8945,166.1885,973.8945,173.5088z"
				/>
		</g>
	</g>
	<g>
		<g>
			<path fill="#5EAF30" d="M168,52C97.3075,52,40,109.3075,40,180s57.3075,128,128,128s128-57.3075,128-128S238.6925,52,168,52z
				 M168,286.6667c-58.9104,0-106.6667-47.7563-106.6667-106.6667c0-58.9104,47.7563-106.6667,106.6667-106.6667
				S274.6667,121.0896,274.6667,180C274.6667,238.9103,226.9104,286.6667,168,286.6667z"/>
		</g>
		<g>
			<path fill="#5EAF30" d="M94.2109,175.7539c8.7871-20.2487,16.3763-37.7357,31.1152-37.7357
				c14.7383,0,22.3275,17.487,31.1146,37.7357c3.1113,7.1693,7.9694,18.3633,11.5443,23.2565
				c3.5749-4.8906,8.4303-16.082,11.5423-23.2494c8.7891-20.2559,16.3776-37.7428,31.1172-37.7428
				c14.6979,0.0013,22.2825,17.4017,31.0638,37.5488l0.0742,0.1712c2.6694,6.1526,6.6126,15.2288,9.9373,20.7865
				c1.0497-5.3477,1.6135-10.8696,1.6135-16.5248c0-47.1283-38.205-85.3333-85.3333-85.3333S82.6667,132.8717,82.6667,180
				c0,5.6554,0.5639,11.1775,1.6136,16.5253C87.6042,190.9686,91.5463,181.8952,94.2109,175.7539z"/>
			<path fill="#5EAF30" d="M222.2188,184.2461l-0.0677-0.155c-3.1029-7.1204-7.9466-18.2331-11.5065-23.1016
				c-3.5755,4.8919-8.4323,16.0866-11.5443,23.2565c-8.7904,20.2526-16.3776,37.7357-31.1152,37.7357
				c-14.7383,0-22.3275-17.487-31.1146-37.7357c-3.1113-7.1699-7.9694-18.3639-11.5443-23.2565
				c-3.5755,4.8926-8.4336,16.0866-11.5449,23.2565c-6.6718,15.3754-12.6558,29.1499-21.6016,34.8937
				c14.19,27.4317,42.8051,46.1935,75.8203,46.1935s61.6303-18.762,75.8204-46.1937
				C234.8748,213.3958,228.8905,199.6214,222.2188,184.2461z"/>
		</g>
	</g>
</g>
</svg>
