<?xml version="1.0" encoding="utf-8"?>
<svg version="1.1" xmlns="http://www.w3.org/2000/svg" xmlns:xlink="http://www.w3.org/1999/xlink" x="0px"
	 y="0px" width="240" height="160" viewBox="0 0 240 160" style="enable-background:new 0 0 240 160;" xml:space="preserve">
<style type="text/css">
	.st0{fill:#FFFFFF;}
	.st1{clip-path:url(#SVGID_00000123426255979349233960000004806242573314122939_);fill:#009DDA;}
	.st2{clip-path:url(#SVGID_00000123426255979349233960000004806242573314122939_);fill:#5FBA46;}
	.st3{clip-path:url(#SVGID_00000123426255979349233960000004806242573314122939_);fill:#D19F2A;}
	.st4{clip-path:url(#SVGID_00000123426255979349233960000004806242573314122939_);fill:#C22033;}
	.st5{clip-path:url(#SVGID_00000123426255979349233960000004806242573314122939_);fill:#2D9A47;}
	.st6{clip-path:url(#SVGID_00000123426255979349233960000004806242573314122939_);fill:#48773C;}
	.st7{clip-path:url(#SVGID_00000123426255979349233960000004806242573314122939_);fill:#FDB714;}
	.st8{clip-path:url(#SVGID_00000123426255979349233960000004806242573314122939_);fill:#EF412A;}
	.st9{clip-path:url(#SVGID_00000123426255979349233960000004806242573314122939_);fill:#F99D25;}
	.st10{clip-path:url(#SVGID_00000123426255979349233960000004806242573314122939_);fill:#007DBB;}
	.st11{clip-path:url(#SVGID_00000123426255979349233960000004806242573314122939_);fill:#8F1838;}
	.st12{clip-path:url(#SVGID_00000123426255979349233960000004806242573314122939_);fill:#00ADD8;}
	.st13{clip-path:url(#SVGID_00000123426255979349233960000004806242573314122939_);fill:#F36E24;}
	.st14{clip-path:url(#SVGID_00000123426255979349233960000004806242573314122939_);fill:#EA1D2D;}
	.st15{clip-path:url(#SVGID_00000123426255979349233960000004806242573314122939_);fill:#E01A83;}
	.st16{clip-path:url(#SVGID_00000123426255979349233960000004806242573314122939_);fill:#1B3668;}
	.st17{clip-path:url(#SVGID_00000123426255979349233960000004806242573314122939_);fill:#CD8B2A;}
	.st18{clip-path:url(#SVGID_00000123426255979349233960000004806242573314122939_);fill:#00558A;}
</style>
<rect x="1" y="0" class="st0" width="239" height="160"/>
<g>
	<defs>
		<rect id="SVGID_1_" x="21.6025" y="21.788" width="196.795" height="116.424"/>
	</defs>
	<clipPath id="SVGID_00000096055082044020651680000011068965833793779096_">
		<use xlink:href="#SVGID_1_"  style="overflow:visible;"/>
	</clipPath>
	<path style="clip-path:url(#SVGID_00000096055082044020651680000011068965833793779096_);fill:#009DDA;" d="M63.683,121.5592
		c-1.535,1.864-3.713,3.317-6.534,4.358c-2.822,1.042-5.952,1.575-9.391,1.598c-3.612,0.025-6.785-0.742-9.518-2.3
		c-2.734-1.558-4.852-3.832-6.353-6.822c-1.502-2.989-2.285-6.51-2.351-10.561l-0.019-2.838c-0.029-4.165,0.649-7.777,2.033-10.834
		c1.384-3.057,3.393-5.402,6.029-7.036c2.635-1.632,5.73-2.461,9.284-2.485c4.949-0.034,8.827,1.12,11.633,3.461
		c2.806,2.341,4.482,5.765,5.029,10.27l-8.37,0.057c-0.399-2.385-1.256-4.128-2.572-5.228c-1.317-1.099-3.121-1.641-5.415-1.625
		c-2.923,0.02-5.142,1.134-6.655,3.342c-1.515,2.208-2.266,5.481-2.256,9.818l0.019,2.666c0.03,4.376,0.883,7.676,2.561,9.9
		c1.678,2.225,4.122,3.326,7.332,3.304c3.229-0.022,5.527-0.725,6.894-2.111l-0.049-7.194l-7.825,0.053l-0.044-6.334l16.425-0.113
		L63.683,121.5592z"/>
	<path style="clip-path:url(#SVGID_00000096055082044020651680000011068965833793779096_);fill:#009DDA;" d="M134.6945,117.7496
		l-15.077,0.103l-2.808,8.618l-9.144,0.063l15.251-41.84l7.969-0.054l15.906,41.627l-9.144,0.062L134.6945,117.7496z
		 M121.8915,110.8716l10.433-0.071l-5.351-15.586L121.8915,110.8716z"/>
	<polygon style="clip-path:url(#SVGID_00000096055082044020651680000011068965833793779096_);fill:#009DDA;" points="
		157.9498,119.2823 176.2078,119.1583 176.2548,126.0653 149.3978,126.2493 149.1138,84.5153 157.7128,84.4563 	"/>
	<path style="clip-path:url(#SVGID_00000096055082044020651680000011068965833793779096_);fill:#009DDA;" d="M201.4605,114.9439
		c-0.011-1.624-0.593-2.867-1.746-3.729c-1.152-0.861-3.222-1.765-6.209-2.71c-2.988-0.944-5.355-1.879-7.1-2.803
		c-4.757-2.528-7.149-5.961-7.179-10.299c-0.015-2.255,0.606-4.27,1.865-6.046s3.074-3.17,5.446-4.18
		c2.373-1.009,5.04-1.525,8.001-1.545c2.982-0.02,5.641,0.502,7.98,1.565c2.339,1.064,4.16,2.576,5.463,4.535
		c1.303,1.96,1.963,4.191,1.98,6.694l-8.599,0.059c-0.013-1.911-0.625-3.393-1.836-4.445s-2.905-1.571-5.084-1.556
		c-2.102,0.014-3.733,0.469-4.892,1.366c-1.16,0.896-1.734,2.071-1.725,3.523c0.009,1.357,0.7,2.489,2.073,3.397
		c1.372,0.908,3.389,1.754,6.051,2.538c4.902,1.439,8.478,3.239,10.729,5.402c2.251,2.163,3.387,4.87,3.409,8.118
		c0.024,3.611-1.322,6.454-4.041,8.526c-2.719,2.073-6.39,3.125-11.014,3.157c-3.211,0.022-6.138-0.546-8.783-1.703
		c-2.645-1.157-4.668-2.753-6.067-4.788c-1.399-2.036-2.108-4.4-2.126-7.095l8.627-0.059c0.032,4.606,2.799,6.889,8.302,6.852
		c2.045-0.014,3.637-0.441,4.779-1.28C200.9055,117.5989,201.4705,116.4339,201.4605,114.9439"/>
	<path style="clip-path:url(#SVGID_00000096055082044020651680000011068965833793779096_);fill:#5FBA46;" d="M78.9508,100.0445
		c0.521-0.887,1.154-1.699,1.88-2.419l-6.165-6.76c-1.551,1.482-2.873,3.201-3.914,5.095L78.9508,100.0445z"/>
	<path style="clip-path:url(#SVGID_00000096055082044020651680000011068965833793779096_);fill:#D19F2A;" d="M94.0635,95.2689
		c0.933,0.427,1.802,0.973,2.585,1.62l6.183-6.75c-1.629-1.404-3.475-2.563-5.479-3.418L94.0635,95.2689z"/>
	<path style="clip-path:url(#SVGID_00000096055082044020651680000011068965833793779096_);fill:#C22033;" d="M108.2217,97.3013
		l-8.194,4.085c0.392,0.913,0.67,1.883,0.82,2.895l9.116-0.861C109.6947,101.2623,109.0967,99.2053,108.2217,97.3013"/>
	<path style="clip-path:url(#SVGID_00000096055082044020651680000011068965833793779096_);fill:#2D9A47;" d="M99.44,100.2018
		l8.193-4.084c-1.015-1.886-2.309-3.599-3.829-5.084l-6.182,6.749C98.326,98.5058,98.938,99.3188,99.44,100.2018"/>
	<path style="clip-path:url(#SVGID_00000096055082044020651680000011068965833793779096_);fill:#48773C;" d="M77.3222,106.0246
		c0-0.184,0.006-0.369,0.014-0.552l-9.117-0.816c-0.028,0.452-0.046,0.908-0.046,1.368c0,1.748,0.217,3.447,0.621,5.071l8.805-2.526
		C77.4192,107.7496,77.3222,106.8986,77.3222,106.0246"/>
	<path style="clip-path:url(#SVGID_00000096055082044020651680000011068965833793779096_);fill:#FDB714;" d="M98.2925,113.5179
		c-0.648,0.789-1.396,1.492-2.224,2.091l4.814,7.794c1.787-1.21,3.377-2.689,4.714-4.377L98.2925,113.5179z"/>
	<path style="clip-path:url(#SVGID_00000096055082044020651680000011068965833793779096_);fill:#EF412A;" d="M100.9756,106.0246
		c0,0.863-0.093,1.705-0.271,2.515l8.804,2.53c0.402-1.616,0.616-3.307,0.616-5.045c0-0.432-0.015-0.861-0.041-1.287l-9.116,0.86
		C100.9726,105.7406,100.9756,105.8816,100.9756,106.0246"/>
	<path style="clip-path:url(#SVGID_00000096055082044020651680000011068965833793779096_);fill:#F99D25;" d="M80.153,113.6921
		l-7.287,5.538c1.356,1.669,2.961,3.124,4.759,4.311l4.813-7.785C81.59,115.1701,80.822,114.4751,80.153,113.6921"/>
	<path style="clip-path:url(#SVGID_00000096055082044020651680000011068965833793779096_);fill:#007DBB;" d="M77.4699,104.1574
		c0.163-1.03,0.462-2.015,0.873-2.937l-8.19-4.081c-0.905,1.926-1.526,4.011-1.808,6.2L77.4699,104.1574z"/>
	<path style="clip-path:url(#SVGID_00000096055082044020651680000011068965833793779096_);fill:#8F1838;" d="M99.763,124.1083
		l-4.807-7.784c-0.873,0.494-1.814,0.88-2.805,1.14l1.696,9.004C95.958,125.9833,97.948,125.1783,99.763,124.1083"/>
	<path style="clip-path:url(#SVGID_00000096055082044020651680000011068965833793779096_);fill:#00ADD8;" d="M100.3538,109.8148
		c-0.319,0.936-0.75,1.82-1.28,2.635l7.311,5.514c1.187-1.707,2.125-3.597,2.766-5.621L100.3538,109.8148z"/>
	<path style="clip-path:url(#SVGID_00000096055082044020651680000011068965833793779096_);fill:#F36E24;" d="M90.8547,117.7274
		c-0.556,0.08-1.126,0.124-1.706,0.124c-0.466,0-0.925-0.029-1.377-0.081l-1.695,9.004c1.004,0.147,2.029,0.225,3.072,0.225
		c1.158,0,2.294-0.095,3.401-0.276L90.8547,117.7274z"/>
	<path style="clip-path:url(#SVGID_00000096055082044020651680000011068965833793779096_);fill:#EA1D2D;" d="M89.9048,94.2213
		c1.016,0.065,1.997,0.258,2.927,0.565l3.288-8.546c-1.956-0.691-4.043-1.1-6.215-1.176V94.2213z"/>
	<path style="clip-path:url(#SVGID_00000096055082044020651680000011068965833793779096_);fill:#E01A83;" d="M86.469,117.5448
		c-1.025-0.239-2-0.611-2.903-1.098l-4.816,7.79c1.852,1.06,3.878,1.845,6.025,2.303L86.469,117.5448z"/>
	<path style="clip-path:url(#SVGID_00000096055082044020651680000011068965833793779096_);fill:#1B3668;" d="M85.5943,94.7441
		c0.95-0.3,1.951-0.483,2.988-0.531v-9.156c-2.201,0.058-4.316,0.459-6.299,1.147L85.5943,94.7441z"/>
	<path style="clip-path:url(#SVGID_00000096055082044020651680000011068965833793779096_);fill:#CD8B2A;" d="M79.3511,112.6399
		c-0.581-0.858-1.055-1.798-1.395-2.797l-8.799,2.525c0.666,2.099,1.653,4.055,2.906,5.81L79.3511,112.6399z"/>
	<path style="clip-path:url(#SVGID_00000096055082044020651680000011068965833793779096_);fill:#00558A;" d="M81.8213,96.7481
		c0.773-0.613,1.624-1.129,2.536-1.535l-3.309-8.535c-1.97,0.827-3.786,1.947-5.396,3.305L81.8213,96.7481z"/>
	<path style="clip-path:url(#SVGID_00000096055082044020651680000011068965833793779096_);fill:#009DDA;" d="M40.4791,47.2598
		c0-0.672-0.238-1.195-0.713-1.57c-0.476-0.375-1.311-0.763-2.506-1.165c-1.196-0.401-2.173-0.789-2.931-1.165
		c-2.469-1.212-3.704-2.879-3.704-4.998c0-1.056,0.308-1.987,0.923-2.794c0.615-0.807,1.485-1.435,2.61-1.885
		c1.126-0.449,2.39-0.673,3.796-0.673c1.369,0,2.597,0.244,3.683,0.732c1.086,0.489,1.93,1.185,2.532,2.087
		c0.602,0.904,0.903,1.935,0.903,3.095h-4.58c0-0.776-0.238-1.378-0.713-1.805c-0.476-0.428-1.119-0.642-1.93-0.642
		c-0.821,0-1.468,0.181-1.944,0.544c-0.475,0.361-0.713,0.822-0.713,1.38c0,0.489,0.262,0.931,0.785,1.328
		c0.524,0.397,1.444,0.807,2.761,1.23c1.317,0.423,2.4,0.879,3.246,1.368c2.059,1.186,3.088,2.822,3.088,4.907
		c0,1.666-0.628,2.975-1.884,3.926c-1.257,0.95-2.98,1.426-5.169,1.426c-1.544,0-2.943-0.277-4.194-0.831
		c-1.252-0.554-2.194-1.313-2.826-2.277c-0.633-0.964-0.95-2.074-0.95-3.33h4.607c0,1.021,0.264,1.772,0.792,2.257
		c0.527,0.484,1.384,0.726,2.571,0.726c0.759,0,1.359-0.164,1.8-0.49C40.2591,48.3128,40.4791,47.8528,40.4791,47.2598"/>
	<path style="clip-path:url(#SVGID_00000096055082044020651680000011068965833793779096_);fill:#009DDA;" d="M62.6395,33.271v12.471
		c0,1.413-0.301,2.637-0.903,3.67c-0.602,1.034-1.465,1.822-2.591,2.362c-1.125,0.542-2.456,0.812-3.991,0.812
		c-2.321,0-4.148-0.602-5.483-1.806c-1.335-1.204-2.015-2.853-2.041-4.947V33.271h4.619v12.654c0.052,2.085,1.021,3.127,2.905,3.127
		c0.951,0,1.671-0.261,2.159-0.785c0.489-0.523,0.733-1.374,0.733-2.551V33.271H62.6395z"/>
	<path style="clip-path:url(#SVGID_00000096055082044020651680000011068965833793779096_);fill:#009DDA;" d="M75.601,47.2598
		c0-0.672-0.238-1.195-0.713-1.57c-0.476-0.375-1.311-0.763-2.506-1.165c-1.196-0.401-2.173-0.789-2.931-1.165
		c-2.469-1.212-3.704-2.879-3.704-4.998c0-1.056,0.308-1.987,0.923-2.794c0.615-0.807,1.485-1.435,2.61-1.885
		c1.126-0.449,2.39-0.673,3.796-0.673c1.369,0,2.597,0.244,3.683,0.732c1.086,0.489,1.93,1.185,2.532,2.087
		c0.602,0.904,0.903,1.935,0.903,3.095h-4.58c0-0.776-0.238-1.378-0.713-1.805c-0.476-0.428-1.119-0.642-1.93-0.642
		c-0.821,0-1.468,0.181-1.944,0.544c-0.475,0.361-0.713,0.822-0.713,1.38c0,0.489,0.262,0.931,0.785,1.328
		c0.524,0.397,1.444,0.807,2.761,1.23s2.4,0.879,3.246,1.368c2.059,1.186,3.088,2.822,3.088,4.907c0,1.666-0.628,2.975-1.884,3.926
		c-1.257,0.95-2.98,1.426-5.169,1.426c-1.544,0-2.943-0.277-4.194-0.831c-1.252-0.554-2.194-1.313-2.826-2.277
		c-0.633-0.964-0.95-2.074-0.95-3.33h4.607c0,1.021,0.264,1.772,0.792,2.257c0.527,0.484,1.384,0.726,2.571,0.726
		c0.759,0,1.359-0.164,1.8-0.49C75.381,48.3128,75.601,47.8528,75.601,47.2598"/>
	<polygon style="clip-path:url(#SVGID_00000096055082044020651680000011068965833793779096_);fill:#009DDA;" points="
		97.7744,36.8173 92.0554,36.8173 92.0554,52.3243 87.4624,52.3243 87.4624,36.8173 81.8494,36.8173 81.8494,33.2713 
		97.7744,33.2713 	"/>
	<path style="clip-path:url(#SVGID_00000096055082044020651680000011068965833793779096_);fill:#009DDA;" d="M109.2308,48.7644
		h-6.294l-1.099,3.56h-4.907l6.987-19.053h4.319l7.04,19.053h-4.933L109.2308,48.7644z M104.0358,45.2184h4.096l-2.054-6.608
		L104.0358,45.2184z"/>
	
		<rect x="117.2455" y="33.271" style="clip-path:url(#SVGID_00000096055082044020651680000011068965833793779096_);fill:#009DDA;" width="4.58" height="19.053"/>
	<polygon style="clip-path:url(#SVGID_00000096055082044020651680000011068965833793779096_);fill:#009DDA;" points="
		141.1984,52.3239 136.6314,52.3239 129.8794,40.4679 129.8794,52.3239 125.2864,52.3239 125.2864,33.2709 129.8794,33.2709 
		136.6184,45.1269 136.6184,33.2709 141.1984,33.2709 	"/>
	<path style="clip-path:url(#SVGID_00000096055082044020651680000011068965833793779096_);fill:#009DDA;" d="M155.4289,48.7644
		h-6.294l-1.099,3.56h-4.907l6.987-19.053h4.319l7.04,19.053h-4.933L155.4289,48.7644z M150.2339,45.2184h4.096l-2.054-6.608
		L150.2339,45.2184z"/>
	<path style="clip-path:url(#SVGID_00000096055082044020651680000011068965833793779096_);fill:#009DDA;" d="M163.1299,52.3238
		v-19.053h6.844c2.451,0,4.316,0.45,5.594,1.348c1.278,0.899,1.917,2.203,1.917,3.913c0,0.986-0.227,1.827-0.681,2.525
		c-0.453,0.699-1.121,1.213-2.002,1.544c0.995,0.262,1.758,0.751,2.291,1.466c0.531,0.715,0.798,1.588,0.798,2.617
		c0,1.867-0.591,3.269-1.773,4.207c-1.183,0.938-2.934,1.416-5.255,1.433H163.1299z M167.7229,41.2138h2.395
		c1.003-0.008,1.718-0.192,2.146-0.551c0.427-0.358,0.641-0.888,0.641-1.588c0-0.805-0.231-1.384-0.694-1.739
		c-0.462-0.354-1.208-0.532-2.237-0.532h-2.251V41.2138z M167.7229,44.2238v4.567h3.01c0.828,0,1.465-0.19,1.91-0.569
		c0.445-0.38,0.668-0.914,0.668-1.603c0-1.588-0.79-2.386-2.369-2.395H167.7229z"/>
	<polygon style="clip-path:url(#SVGID_00000096055082044020651680000011068965833793779096_);fill:#009DDA;" points="
		185.2771,48.7908 193.2721,48.7908 193.2721,52.3238 180.6841,52.3238 180.6841,33.2708 185.2771,33.2708 	"/>
	<polygon style="clip-path:url(#SVGID_00000096055082044020651680000011068965833793779096_);fill:#009DDA;" points="
		207.2943,44.2369 200.0713,44.2369 200.0713,48.7909 208.6033,48.7909 208.6033,52.3239 195.4773,52.3239 195.4773,33.2709 
		208.6283,33.2709 208.6283,36.8169 200.0713,36.8169 200.0713,40.8349 207.2943,40.8349 	"/>
	<path style="clip-path:url(#SVGID_00000096055082044020651680000011068965833793779096_);fill:#009DDA;" d="M30.6325,78.0931
		v-18.668h6.014c1.65,0,3.132,0.374,4.449,1.121c1.316,0.748,2.344,1.804,3.083,3.167c0.739,1.364,1.114,2.891,1.122,4.584v0.859
		c0,1.709-0.361,3.242-1.083,4.597c-0.723,1.354-1.739,2.414-3.051,3.179c-1.313,0.765-2.777,1.152-4.392,1.161H30.6325z
		 M35.1335,62.8991v11.731h1.564c1.29,0,2.282-0.459,2.974-1.378c0.693-0.919,1.039-2.284,1.039-4.096v-0.808
		c0-1.803-0.346-3.162-1.039-4.077c-0.692-0.915-1.7-1.372-3.025-1.372H35.1335z"/>
	<polygon style="clip-path:url(#SVGID_00000096055082044020651680000011068965833793779096_);fill:#009DDA;" points="
		58.1994,70.1691 51.5914,70.1691 51.5914,74.6311 59.4814,74.6311 59.4814,78.0931 47.0914,78.0931 47.0914,59.4251 
		59.5074,59.4251 59.5074,62.8991 51.5914,62.8991 51.5914,66.8351 58.1994,66.8351 	"/>
	<polygon style="clip-path:url(#SVGID_00000096055082044020651680000011068965833793779096_);fill:#009DDA;" points="
		69.3501,73.0153 73.0681,59.4253 78.0951,59.4253 71.8121,78.0923 66.8881,78.0923 60.6571,59.4253 65.6451,59.4253 	"/>
	<polygon style="clip-path:url(#SVGID_00000096055082044020651680000011068965833793779096_);fill:#009DDA;" points="
		90.4977,70.1691 83.9537,70.1691 83.9537,74.6311 91.7797,74.6311 91.7797,78.0931 79.4537,78.0931 79.4537,59.4251 
		91.8057,59.4251 91.8057,62.8991 83.9537,62.8991 83.9537,66.8351 90.4977,66.8351 	"/>
	<polygon style="clip-path:url(#SVGID_00000096055082044020651680000011068965833793779096_);fill:#009DDA;" points="
		97.8271,74.6307 104.9491,74.6307 104.9491,78.0927 93.3271,78.0927 93.3271,59.4247 97.8271,59.4247 	"/>
	<path style="clip-path:url(#SVGID_00000096055082044020651680000011068965833793779096_);fill:#009DDA;" d="M121.6923,69.143
		c0,1.821-0.338,3.432-1.013,4.834c-0.675,1.402-1.635,2.481-2.878,3.237c-1.244,0.757-2.661,1.135-4.251,1.135
		c-1.589,0-3-0.365-4.231-1.096c-1.23-0.731-2.19-1.776-2.878-3.135c-0.688-1.359-1.05-2.919-1.083-4.68v-1.051
		c0-1.829,0.335-3.443,1.006-4.84c0.671-1.398,1.632-2.477,2.885-3.238c1.252-0.76,2.677-1.141,4.276-1.141
		c1.581,0,2.991,0.376,4.231,1.128c1.239,0.752,2.203,1.823,2.891,3.212s1.036,2.981,1.045,4.776V69.143z M117.1153,68.361
		c0-1.854-0.31-3.263-0.93-4.224c-0.62-0.962-1.506-1.443-2.66-1.443c-2.257,0-3.449,1.693-3.578,5.078l-0.012,1.371
		c0,1.83,0.303,3.236,0.91,4.219c0.607,0.983,1.509,1.474,2.705,1.474c1.137,0,2.014-0.483,2.629-1.449
		c0.615-0.966,0.927-2.355,0.936-4.167V68.361z"/>
	<path style="clip-path:url(#SVGID_00000096055082044020651680000011068965833793779096_);fill:#009DDA;" d="M127.98,71.7582v6.335
		h-4.5v-18.669h7.449c1.427,0,2.69,0.263,3.789,0.789c1.098,0.525,1.948,1.273,2.551,2.243c0.603,0.971,0.904,2.071,0.904,3.302
		c0,1.821-0.652,3.276-1.955,4.366c-1.303,1.089-3.093,1.634-5.366,1.634H127.98z M127.98,68.2842h2.949
		c0.872,0,1.536-0.218,1.994-0.654c0.457-0.436,0.686-1.051,0.686-1.846c0-0.872-0.236-1.568-0.706-2.09
		c-0.47-0.521-1.111-0.786-1.923-0.795h-3V68.2842z"/>
	<polygon style="clip-path:url(#SVGID_00000096055082044020651680000011068965833793779096_);fill:#009DDA;" points="
		145.7345,59.4247 149.9015,72.4127 154.0555,59.4247 159.9795,59.4247 159.9795,78.0927 155.4655,78.0927 155.4655,73.7337 
		155.9015,64.8097 151.3885,78.0927 148.4145,78.0927 143.8885,64.7967 144.3245,73.7337 144.3245,78.0927 139.8235,78.0927 
		139.8235,59.4247 	"/>
	<polygon style="clip-path:url(#SVGID_00000096055082044020651680000011068965833793779096_);fill:#009DDA;" points="
		173.1114,70.1691 166.4844,70.1691 166.4844,74.6311 174.3934,74.6311 174.3934,78.0931 161.9844,78.0931 161.9844,59.4251 
		174.4194,59.4251 174.4194,62.8991 166.4844,62.8991 166.4844,66.8351 173.1114,66.8351 	"/>
	<polygon style="clip-path:url(#SVGID_00000096055082044020651680000011068965833793779096_);fill:#009DDA;" points="
		191.4987,78.0927 187.0237,78.0927 180.4087,66.4767 180.4087,78.0927 175.9077,78.0927 175.9077,59.4247 180.4087,59.4247 
		187.0117,71.0407 187.0117,59.4247 191.4987,59.4247 	"/>
	<polygon style="clip-path:url(#SVGID_00000096055082044020651680000011068965833793779096_);fill:#009DDA;" points="
		208.6281,62.8991 203.0251,62.8991 203.0251,78.0931 198.5241,78.0931 198.5241,62.8991 193.0241,62.8991 193.0241,59.4251 
		208.6281,59.4251 	"/>
</g>
</svg>
