<?xml version="1.0" encoding="UTF-8"?>
<svg id="_レイヤー_1" data-name="レイヤー 1" xmlns="http://www.w3.org/2000/svg" version="1.1" viewBox="0 0 768 256">
  <g>
    <polygon points="724 128 634 127.9433 634 32 724 32 724 128" fill="#5eaf30" stroke-width="0"/>
    <g>
      <path d="M489.5163,94.2368h-5.8048l-.8099-13.0045c-.2701-4.5897-.4949-9.4045-.405-12.6894l-5.6698,22.3191h-5.6246l-6.0298-22.3641c.18,4.1849.0901,8.4597-.18,12.9144l-.765,12.8245h-5.7598l2.475-31.0937h7.6496l5.5349,21.7791,5.2196-21.7791h7.7398l2.4298,31.0937h0Z" fill="#1a140f" stroke-width="0"/>
      <path d="M513.9558,84.1122h-14.9394c.4499,4.8598,2.6999,6.4349,5.8497,6.4349,2.115,0,3.8699-.6751,5.9399-2.115l2.3848,3.2849c-2.3399,1.8898-5.2198,3.1948-8.8196,3.1948-7.3797,0-11.3396-4.9049-11.3396-12.4195,0-7.2447,3.8249-12.7344,10.5747-12.7344,6.6596,0,10.4844,4.4998,10.4844,12.0145,0,.765-.0899,1.71-.135,2.3399h0ZM508.376,80.1075c0-3.915-1.3949-6.2549-4.6348-6.2549-2.6999,0-4.4099,1.7999-4.7249,6.5248h9.3596v-.2699Z" fill="#1a140f" stroke-width="0"/>
      <path d="M537.8727,77.0025v17.2343h-5.7598v-16.3343c0-2.97-1.125-3.8249-2.9249-3.8249-2.0698,0-3.5998,1.3949-4.9947,3.5999v16.5593h-5.7598v-23.8041h4.9947l.4501,3.15c1.8448-2.385,4.2297-3.8249,7.2446-3.8249,4.275,0,6.7498,2.6999,6.7498,7.2447h0Z" fill="#1a140f" stroke-width="0"/>
      <path d="M562.8204,77.0025v17.2343h-5.7598v-16.3343c0-2.97-1.17-3.8249-2.9249-3.8249-2.025,0-3.5998,1.3949-4.9947,3.5548v16.6044h-5.7598v-33.2987l5.7598-.585v12.9595c1.7999-2.2498,4.0948-3.5548,6.9296-3.5548,4.2299,0,6.7498,2.7449,6.7498,7.2447h0Z" fill="#1a140f" stroke-width="0"/>
      <path d="M587.9525,84.1122h-14.9394c.4501,4.8598,2.6999,6.4349,5.8499,6.4349,2.1148,0,3.8697-.6751,5.9396-2.115l2.385,3.2849c-2.3399,1.8898-5.2198,3.1948-8.8196,3.1948-7.3797,0-11.3396-4.9049-11.3396-12.4195,0-7.2447,3.8249-12.7344,10.5745-12.7344,6.6599,0,10.4846,4.4998,10.4846,12.0145,0,.765-.0899,1.71-.135,2.3399h0ZM582.3728,80.1075c0-3.915-1.3949-6.2549-4.6348-6.2549-2.6999,0-4.4099,1.7999-4.7249,6.5248h9.3596v-.2699Z" fill="#1a140f" stroke-width="0"/>
      <path d="M606.5595,70.1178l-.9898,5.5798c-.72-.18-1.305-.2699-2.1148-.2699-2.9249,0-4.3648,2.1149-5.2649,6.1646v12.6445h-5.7598v-23.8041h4.9947l.54,4.6798c1.125-3.4198,3.4198-5.3097,6.2099-5.3097.8549,0,1.6197.0899,2.3848.3149h0Z" fill="#1a140f" stroke-width="0"/>
      <path d="M628.9156,90.9969l-1.2151,3.8249c-2.61-.225-4.3198-1.125-5.2649-3.4649-1.665,2.5199-4.2748,3.5548-7.1098,3.5548-4.7697,0-7.6946-3.0148-7.6946-7.3347,0-5.1747,3.915-7.9647,10.8446-7.9647h2.9698v-1.3499c0-3.1049-1.3949-4.1399-4.4548-4.1399-1.6199,0-3.9148.4499-6.2997,1.26l-1.3499-3.9148c2.9249-1.125,5.9398-1.71,8.6397-1.71,6.3446,0,9.1344,2.9249,9.1344,8.1898v9.9895c0,1.9349.6303,2.61,1.8003,3.0599h0ZM621.4456,87.8021v-4.8148h-2.3848c-3.735,0-5.5798,1.3498-5.5798,4.1397,0,2.295,1.1698,3.5998,3.3748,3.5998,2.025,0,3.5098-1.0349,4.5897-2.9247h0Z" fill="#1a140f" stroke-width="0"/>
    </g>
    <g>
      <path d="M648.5183,90.615c0,1.9801-1.6199,3.6449-3.6899,3.6449-2.0248,0-3.5999-1.6648-3.5999-3.6449,0-2.0248,1.5751-3.6449,3.5999-3.6449,2.07,0,3.6899,1.6201,3.6899,3.6449Z" fill="#fff" stroke-width="0"/>
      <path d="M673.3663,81.6604c0,7.5147-4.1849,12.5995-11.2046,12.5995s-11.2046-4.7699-11.2046-12.5995c0-7.4696,4.1849-12.5544,11.2496-12.5544,7.0197,0,11.1595,4.7699,11.1595,12.5544ZM657.032,81.6604c0,5.7147,1.7549,8.2346,5.1297,8.2346s5.1297-2.5649,5.1297-8.2346-1.7549-8.1896-5.0847-8.1896c-3.3748,0-5.1747,2.5649-5.1747,8.1896Z" fill="#fff" stroke-width="0"/>
      <path d="M691.8796,69.466l-.9898,5.5796c-.72-.1798-1.305-.2699-2.1148-.2699-2.9249,0-4.3648,2.1149-5.2649,6.1648v12.6445h-5.7598v-23.8041h4.9947l.54,4.6798c1.125-3.4197,3.4199-5.3097,6.2098-5.3097.8549,0,1.6197.0901,2.3848.3149h0Z" fill="#fff" stroke-width="0"/>
      <path d="M715.8147,71.041c-1.7999.6299-4.0499.8097-6.8848.8097,2.8799,1.3052,4.3198,3.1501,4.3198,6.1197,0,4.6352-3.5999,8.0098-9.5847,8.0098-1.0349,0-1.9349-.0901-2.8348-.36-.585.405-.99,1.0349-.99,1.7549,0,.8551.4951,1.6651,2.8799,1.6651h3.6449c5.2649,0,8.6847,2.8349,8.6847,6.7496,0,4.7699-4.0948,7.6047-11.8795,7.6047-8.4597,0-10.8446-2.7001-10.8446-7.47h5.1749c0,2.3851,1.0349,3.42,5.7598,3.42,4.6348,0,5.9846-1.2601,5.9846-3.1498,0-1.7549-1.3949-2.8349-4.0497-2.8349h-3.5999c-4.7699,0-6.7949-2.1149-6.7949-4.5901,0-1.6648,1.0351-3.3296,2.79-4.4096-2.9249-1.53-4.1849-3.6449-4.1849-6.705,0-5.1745,4.095-8.5495,9.8547-8.5495,5.6246.1351,8.2346-1.125,11.1145-2.655l1.4399,4.5901h0ZM699.2104,77.5658c0,2.8799,1.5749,4.6794,4.2297,4.6794,2.7449,0,4.2299-1.7099,4.2299-4.7245s-1.4399-4.5-4.3198-4.5c-2.6098,0-4.1399,1.7999-4.1399,4.545Z" fill="#fff" stroke-width="0"/>
    </g>
  </g>
  <g>
    <path d="M128,32c-53.0193,0-96,42.9807-96,96s42.9807,96,96,96,96-42.9807,96-96-42.9807-96-96-96ZM128,208c-44.1828,0-80-35.8173-80-80s35.8172-80,80-80,80,35.8172,80,80-35.8172,80-80,80Z" fill="#5eaf30" stroke-width="0"/>
    <g>
      <path d="M72.6582,124.8154c6.5903-15.1865,12.2822-28.3018,23.3364-28.3018s16.7456,13.1152,23.3359,28.3018c2.3335,5.377,5.9771,13.7725,8.6582,17.4424,2.6812-3.668,6.3228-12.0615,8.6567-17.437,6.5918-15.1919,12.2832-28.3071,23.3379-28.3071,11.0234.001,16.7119,13.0513,23.2979,28.1616l.0557.1284c2.002,4.6144,4.9595,11.4216,7.4529,15.5899.7872-4.0107,1.2101-8.1522,1.2101-12.3936,0-35.3463-28.6537-64-64-64s-64,28.6537-64,64c0,4.2416.4229,8.3831,1.2102,12.394,2.4929-4.1675,5.4495-10.9726,7.448-15.5786Z" fill="#5eaf30" stroke-width="0"/>
      <path d="M168.6641,131.1846l-.0508-.1162c-2.3271-5.3403-5.96-13.6748-8.6299-17.3262-2.6816,3.6689-6.3242,12.0649-8.6582,17.4424-6.5928,15.1895-12.2832,28.3018-23.3364,28.3018s-16.7456-13.1152-23.3359-28.3018c-2.3335-5.3774-5.9771-13.7729-8.6582-17.4424-2.6816,3.6694-6.3252,12.0649-8.6587,17.4424-5.0038,11.5316-9.4918,21.8624-16.2012,26.1703,10.6425,20.5738,32.1038,34.6451,56.8652,34.6451s46.2227-14.0715,56.8653-34.6453c-6.7092-4.3079-11.1974-14.6387-16.2012-26.1702Z" fill="#5eaf30" stroke-width="0"/>
    </g>
  </g>
  <g>
    <g>
      <path d="M278.2241,144.1484h5.1841v7.248h15.4077v4.3672h-15.4077v9.1689h13.0557v4.2236h-13.0557v11.5195h17.04v4.3682h-40.8965v-4.3682h18.6724v-11.5195h-12.3359v-4.2236h12.3359v-9.1689h-10.6079c-1.4087,4.1289-2.9282,7.7129-4.5601,10.7529l-4.416-2.3047c3.0073-5.791,5.3115-12.1914,6.9116-19.2002l4.8003.8164c-.4165,1.9521-.8643,3.8086-1.3442,5.5684h9.2163v-7.248Z" fill="#000" stroke-width="0"/>
      <path d="M312.1792,165.6045c-2.624-2.4639-5.4717-4.8643-8.5439-7.2002l2.8799-3.4082c3.2319,2.3682,6.0962,4.7207,8.5923,7.0557l-2.9282,3.5527ZM316.3555,170.5479c-1.728,5.7607-4.1763,10.9609-7.3442,15.6006l-4.0317-2.6406c2.9116-4.3838,5.2954-9.2637,7.1519-14.6396l4.2241,1.6797ZM305.7476,148.084l2.8799-3.4561c2.9438,2.1445,5.5356,4.2725,7.7759,6.3838l-2.9277,3.5049c-2.2729-2.1436-4.8481-4.2881-7.728-6.4326ZM318.8032,148.1318c10.0156,0,18.6558-1.167,25.9199-3.5039l1.2002,4.3203c-2.9121.96-6.6562,1.7764-11.2319,2.4482v5.6641h12.5762v4.2236h-12.5762v5.6641h10.2241v19.2959h-4.9443v-2.3516h-15.8877v2.3516h-4.8003v-19.2959h10.2241v-5.6641h-12.5762v-4.2236h12.5762v-5.04c-3.3286.2881-6.8159.4316-10.4639.4316l-.2402-4.3203ZM339.9712,179.8604v-8.9277h-15.8877v8.9277h15.8877Z" fill="#000" stroke-width="0"/>
      <path d="M353.4399,169.8281l-3.7441-.7197c1.0874-5.5039,1.8721-10.9277,2.3521-16.2725l3.7441.3359c-.5122,5.9844-1.2964,11.5371-2.3521,16.6562ZM381.8076,158.4521h12.3359v3.792h-28.5596l-2.9761.624c-.2241-1.4717-.6562-3.7754-1.2959-6.9121v30.624h-4.9443v-42.3359h4.9443v7.8721l2.7358-.624c.3838,1.5049.8955,3.8242,1.5361,6.96h11.04v-2.1123h-10.2241v-3.6475h10.2241v-2.1123h-11.9043v-3.8877h11.9043v-3.168h5.1836v3.168h11.376v3.8877h-11.376v2.1123h9.9844v3.6475h-9.9844v2.1123ZM385.6953,186.2441c-1.1514,0-3.0879-.0801-5.8076-.2402l-.0957-4.2236c2.3354.1279,4.0635.1914,5.1841.1914.9272,0,1.4712-.0547,1.6313-.168.1602-.1113.2402-.4873.2402-1.1279v-1.0557h-16.1279v6.7197h-5.04v-22.3193h26.208v16.6553c0,2.5605-.3281,4.1279-.9844,4.7041s-2.3926.8643-5.208.8643ZM370.7197,170.2119h16.1279v-2.3516h-16.1279v2.3516ZM370.7197,173.7637v2.3525h16.1279v-2.3525h-16.1279Z" fill="#000" stroke-width="0"/>
      <path d="M424.8252,165.8438l3.9365-2.1113c.7354,2.9443,1.9834,5.9033,3.7441,8.8799,1.5352-2.9766,2.5918-6.3037,3.168-9.9844h-11.9043v23.7598h-4.7041v-15.1191h-8.0156v4.8477h6.96v3.8877h-6.96v6.8164h-4.8965v-6.8164h-7.2002v-3.8877h7.2002v-4.8477h-7.9199v-4.0801h4.5596c-.4795-2.6885-1.04-5.3594-1.6797-8.0166h-3.0723v-4.1279h8.1123v-4.3193h-6.8154v-3.8887h6.8154v-3.3115h4.8965v3.3115h6.7197v3.8887h-6.7197v4.3193h8.0156v-9.6963h21.3115l-.0957,1.9688c-.1914,2.9756-.416,5.0801-.6719,6.3115-.2568,1.2324-.5928,2.0166-1.0078,2.3525-.416.3359-1.1211.5039-2.1123.5039-1.248,0-4.1123-.0801-8.5918-.2402l-.0957-3.8398c2.5596.1279,4.752.1914,6.5752.1914.4482,0,.7363-.1436.8643-.4316s.2559-1.2314.3838-2.832h-11.8555v9.168h16.416v4.1279c-.7041,5.0879-2.3203,9.7607-4.8477,14.0166,1.7588,2.1436,3.792,3.9521,6.0957,5.4238l-1.6797,4.3682c-2.5605-1.4727-4.9131-3.4404-7.0566-5.9043-1.6963,2.1445-3.6797,4.0635-5.9521,5.7598l-2.3994-4.0801c2.0156-1.4395,3.8398-3.2314,5.4717-5.376-2.2402-3.3594-3.9043-7.0234-4.9922-10.9922ZM407.0654,167.1885h3.2637c.832-2.4639,1.5361-5.1367,2.1123-8.0166h-7.0078c.5439,2.3047,1.0869,4.9766,1.6318,8.0166ZM419.0654,167.1885v-8.0166h-2.208c-.5762,2.8164-1.2803,5.4883-2.1123,8.0166h4.3203Z" fill="#000" stroke-width="0"/>
      <path d="M468.3418,177.9883v3.4082h17.7607v3.9834h-40.7041v-3.9834h17.7598v-3.4082h-11.4238v-2.1123c-2.0488,1.0889-4.2246,2.0322-6.5283,2.832l-1.6318-4.1279c4.6396-1.5361,8.2559-3.2637,10.8477-5.1836h-9.5996v-3.9844h7.1523v-14.0156h-6.6729v-3.9844h6.6729v-4.1279h5.0879v4.1279h17.376v-4.1279h5.0879v4.1279h6.6719v3.9844h-6.6719v14.0156h7.1523v3.9844h-9.6006c2.5918,1.9199,6.208,3.6475,10.8477,5.1836l-1.6318,4.1279c-2.3994-.8643-4.5762-1.8242-6.5273-2.8799v2.1602h-11.4248ZM476.8867,174.1006c-2.0166-1.376-3.8252-2.9443-5.4248-4.7041h-11.3281c-1.6318,1.792-3.4551,3.3594-5.4717,4.7041h8.4961v-3.5049h5.1836v3.5049h8.5449ZM457.0625,153.8926h17.376v-2.4961h-17.376v2.4961ZM457.0625,157.1562v2.4961h17.376v-2.4961h-17.376ZM457.0625,162.9639v2.4482h17.376v-2.4482h-17.376Z" fill="#000" stroke-width="0"/>
      <path d="M499.873,160.4199l-1.7275.1445c-.1279,2.6562-.4639,4.8232-1.0078,6.5039-.5449,1.6797-1.3604,3.2402-2.4482,4.6797l-4.2236-1.9678c.96-1.2793,1.6797-2.5684,2.1592-3.8643.4805-1.2959.7998-2.9521.9609-4.9678l-2.7842.2402v-4.0322l2.9277-.2402v-11.04h5.376c.1602-.4473.4473-1.4229.8643-2.9277l4.9434.3359c-.2881,1.0879-.5439,1.9521-.7676,2.5918h6.2881v9.6963l1.9199-.1445v3.9844l-1.9199.1436v6.0967c0,2.0479-.2568,3.3203-.7686,3.8154-.5117.4971-1.8232.7441-3.9355.7441-1.248,0-2.6885-.0635-4.3203-.1914l-.2393-4.1279c1.8877.1602,3.1836.2393,3.8877.2393.5117,0,.8154-.0635.9121-.1914.0957-.1279.1436-.5762.1436-1.3447v-4.6553l-2.2559.1914v5.04h-3.9844v-4.752ZM495.6494,181.876v-10.3682h33.5996v10.3682h4.3682v3.9844h-42.3359v-3.9844h4.3682ZM502.2734,156.2441c-1.1201-1.6318-2.3516-3.1992-3.6963-4.7041l2.9287-1.8721h-3.2646v6.9121l4.0322-.3359ZM505.6338,181.876v-6.4795h-5.1846v6.4795h5.1846ZM502.8496,156.1963l3.2637-.2881v-6.2402h-4.0322c1.1836,1.2803,2.4004,2.8008,3.6484,4.5605l-2.8799,1.9678ZM515.041,181.876v-6.4795h-5.1836v6.4795h5.1836ZM513.2656,159.9883v-3.7441h19.0557v3.7441c-1.4082,2.1445-3.1045,3.9043-5.0879,5.2803,1.9834.6719,4.2725,1.2637,6.8643,1.7754l-1.2002,4.0322c-3.584-.7031-7.0078-1.7764-10.2725-3.2158-2.752,1.2158-6.1436,2.2402-10.1758,3.0723l-1.5361-3.8887c2.624-.3838,4.9756-.9121,7.0566-1.584-1.6318-.96-3.1523-2.0791-4.5605-3.3594l3.2646-2.1123h-3.4082ZM519.1699,148.3721v.5762c0,1.4082-.3525,2.7441-1.0566,4.0078-.7041,1.2646-1.6963,2.2803-2.9756,3.0479l-3.8398-2.4482c1.248-.8311,2.1436-1.7998,2.6875-2.9033.5439-1.1045.8164-2.4883.8164-4.1523v-1.9199h13.3916v6.4805c0,.2871.0312.4561.0957.5039s.2715.0713.624.0713c.7041,0,1.1201-.1113,1.248-.3359.1279-.2236.2236-1.0391.2881-2.4473l3.9844.3359c-.1279,1.6641-.2402,2.832-.3359,3.5039-.0967.6719-.3926,1.248-.8887,1.7275-.4961.4805-1.0635.7441-1.7031.792-.6406.0479-1.7451.0723-3.3125.0723-2.0479,0-3.3604-.1357-3.9355-.4082-.5762-.2715-.8643-.8398-.8643-1.7041v-4.7998h-4.2236ZM522.6738,163.4443c1.8555-1.0566,3.3594-2.208,4.5117-3.4561h-9.8877c1.4707,1.2803,3.2637,2.4316,5.376,3.4561ZM519.2656,181.876h5.1836v-6.4795h-5.1836v6.4795Z" fill="#000" stroke-width="0"/>
      <path d="M538.7676,149.9082v-4.2725h16.9443v4.2725h-7.248c-.4482,3.3281-1.2646,6.6885-2.4482,10.0801h9.6963v21.6475h-9.4082v3.7441h-4.6084v-17.04c-.96,1.7285-1.9844,3.2646-3.0713,4.6084l-1.4404-5.7119c3.4873-4.6084,5.7275-10.3838,6.7197-17.3281h-5.1357ZM546.3037,177.5078h5.04v-13.248h-5.04v13.248ZM561.7119,161.4277c.0635-2.9434.0957-5.4238.0957-7.4395v-4.0801h-4.3203v-4.2725h24.0967v4.2725h-4.4639v11.5195h4.9434v4.2246h-4.9434v20.208h-4.9443v-20.208h-5.8564c-.3516,5.5039-1.0479,9.7441-2.0879,12.7197s-2.5996,5.6162-4.6797,7.9199l-3.5518-3.7441c1.7275-1.8555,3.0068-3.96,3.8398-6.3115.832-2.3525,1.3916-5.8799,1.6797-10.584h-4.6553v-4.2246h4.8477ZM566.5117,161.4277h5.6641v-11.5195h-5.5195v4.0801c0,2.6875-.0488,5.168-.1445,7.4395Z" fill="#000" stroke-width="0"/>
      <path d="M620.3916,181.3965c1.6318,0,2.6162-.3438,2.9521-1.0322.3359-.6875.6475-3.0156.9355-6.9844l4.5605.5283c-.1289,2.0479-.249,3.6318-.3604,4.752-.1123,1.1201-.3281,2.1836-.6484,3.1924-.3193,1.0078-.6318,1.7109-.9355,2.1113-.3047.4004-.8486.752-1.6318,1.0566-.7842.3037-1.5762.4795-2.376.5273-.8008.0479-1.9521.0723-3.4561.0723-3.1367,0-5.1123-.2803-5.9277-.8398-.8164-.5605-1.2246-1.8477-1.2246-3.8643v-9.4082h-8.3516c-.9922,3.6807-2.8486,6.7041-5.5684,9.0723s-6.6084,4.3682-11.6641,6l-2.3516-3.9844c4.3838-1.3438,7.6797-2.8477,9.8877-4.5117,2.208-1.6631,3.7441-3.8555,4.6084-6.5762h-11.2803v-4.2236h12.0957c.0967-1.248.1445-2.5752.1445-3.9844h5.0879c0,1.5361-.0645,2.8643-.1924,3.9844h12.624v12.8164c0,.6396.1279,1.0156.3838,1.1279s1.1523.168,2.6885.168ZM619.0479,164.5479c-.2568,0-.6719.0088-1.248.0244-.5762.0166-1.0078.0234-1.2959.0234-1.1846,0-2.0332-.0156-2.5439-.0479-2.4326-.0957-3.96-.3428-4.584-.7441-.624-.3994-.9365-1.3027-.9365-2.7119v-8.9756h-3.9844c-.2559,6.7197-5.9678,11.1523-17.1357,13.2959l-1.2002-3.9844c8.9287-1.5996,13.3926-4.7031,13.3926-9.3115h-8.2559v5.5195h-4.8008v-9.6475h17.376v-4.9443h5.1846v4.9443h17.4238v8.2559h-4.8477v-4.1279h-8.208v6.96c0,.7363.0713,1.1758.2158,1.3203.1436.1436.6641.2324,1.5596.2637.3848.0322,1.0088.0479,1.8721.0479.8643,0,1.4883-.0156,1.8721-.0479,1.3438-.0635,2.1357-.2314,2.376-.5039.2402-.2715.4238-1.1592.5518-2.6641l4.8486.5283c-.0957,1.1201-.1768,1.9756-.2402,2.5674-.0645.5928-.2158,1.1689-.4561,1.7285s-.4883.9443-.7441,1.1514c-.2559.209-.6953.4082-1.3193.6006-.624.1914-1.2803.3115-1.9688.3594-.6885.0488-1.6553.0889-2.9033.1201Z" fill="#000" stroke-width="0"/>
      <path d="M632.1084,152.0205h4.7041v-7.7764h4.6074v7.7764h2.7363c-.2246-.2559-.5117-.6006-.8643-1.0322-.3525-.4326-.6074-.7441-.7676-.9365l3.168-2.4473c.1279.1602.3438.416.6484.7676.3037.3525.5195.6084.6475.7686.8955-1.6641,1.792-3.4883,2.6885-5.4727l3.6953,1.1523c-1.0557,2.3359-2.3516,4.7998-3.8877,7.3916.1602.1611.3838.4326.6719.8164s.4961.6562.624.8154c1.248-2.208,2.4482-4.4639,3.5996-6.7676l2.5928.8164c-.0322-.7998-.0479-2.0166-.0479-3.6484h4.4639c0,1.0244.0312,2.4648.0957,4.3203l1.4883-1.2002c.2559.2881.6396.752,1.1514,1.3916,1.248-2.3994,2.0801-4.0957,2.4961-5.0879l3.6963,1.1523c-1.3125,2.8799-2.5283,5.248-3.6484,7.1035.1279.1611.3203.4082.5762.7441s.4482.584.5762.7441c.8643-1.4717,2.0645-3.7441,3.5996-6.8164l3.6963,1.1523c-1.5039,2.9766-2.8799,5.5039-4.1279,7.584l2.5918-.7197c.9277,3.4248,1.7285,6.9287,2.4004,10.5117l-3.5039.96c-.1924-.832-.3359-1.4717-.4326-1.9199l-2.3516.2402c.415.6719,1.0391,1.7119,1.8721,3.1201h4.3203v3.9834h-6.8643l2.832,1.9199c-1.0566,1.6973-2.3047,3.3125-3.7441,4.8486.6396.9287,1.2236,1.624,1.752,2.0879s.9199.6963,1.1758.6963c.6396,0,1.2314-1.9688,1.7764-5.9043l3.7441,1.9199c-.8008,6.1113-2.4004,9.168-4.8008,9.168-2.3359,0-4.6719-1.6484-7.0078-4.9443-2.6562,2.0801-5.6963,3.7598-9.1201,5.04l-1.8721-3.9355c1.0244-.3838,1.9043-.7363,2.6406-1.0566-1.9844-.8945-3.8721-2.1914-5.6641-3.8877-1.1523,3.7441-2.832,6.7197-5.04,8.9277l-3.5996-2.9277c3.0391-3.04,4.7832-7.0234,5.2314-11.9521h-3.792v-1.6797c-.0322-.0957-.7363-1.8076-2.1123-5.1357v21.8877h-4.6074v-16.7998c-.8643,2.5918-1.8721,4.96-3.0244,7.1035l-2.5918-4.6553c2.7197-5.0879,4.5918-10.416,5.6162-15.9844h-4.7041v-4.2236ZM641.6602,156.2441c.3193.6406.7998,1.6318,1.4404,2.9756.6396,1.3447,1.1348,2.3691,1.4873,3.0723l.8643-.0479c.7041-1.0234,1.7285-2.5918,3.0723-4.7041-1.5049-1.9512-2.5439-3.2793-3.1201-3.9844v2.6885h-3.7441ZM659.1328,167.5244c-.0967-.416-.209-.96-.3369-1.6318l-2.5439,1.0078-.624-1.8721-9.3594.8643c.0635.1279.1836.376.3594.7432.1758.3682.3125.665.4082.8887h12.0967ZM654.4287,161.5723c-.0967-.2236-.3203-.8398-.6729-1.8477-.3516-1.0088-.623-1.7529-.8154-2.2324-.7686,1.248-1.7441,2.7197-2.9277,4.416l4.416-.3359ZM657.7881,180.6758c1.8242-.8955,3.4238-1.8877,4.7998-2.9756-.8955-1.8242-1.6963-3.8877-2.3994-6.1924h-8.3037c0,.1289-.0088.2969-.0244.5039-.0166.209-.0322.4014-.0479.5762-.0166.1768-.041.3447-.0723.5039,1.9199,2.0488,4.3359,3.6807,7.248,4.8965l-1.2002,2.6875ZM657.9326,160.8037c-.4492-3.168-.7363-6.6875-.8643-10.5596-1.4082,2.624-2.4961,4.5596-3.2637,5.8076l2.1113-.8633c.9277,2.5283,1.5996,4.4004,2.0166,5.6152ZM662.54,161.2842h.2402c.3838-.5439,1.3115-1.9355,2.7842-4.1758-1.6006-2.1123-2.9121-3.8076-3.9365-5.0879.1924,3.584.4961,6.6719.9121,9.2637ZM663.7402,167.5244h3.6963c-.3838-.6396-.96-1.5674-1.7285-2.7842l-2.5439.2402c.1279.6084.3193,1.4561.5762,2.5439ZM666.0439,174.4844c.7686-.8643,1.5361-1.8555,2.3047-2.9766h-3.4561c.415,1.1846.7988,2.1768,1.1514,2.9766ZM671.2764,160.6602c-.4482-1.9199-.7842-3.2959-1.0078-4.1279-.9922,1.6318-1.9521,3.1045-2.8799,4.416l3.8877-.2881Z" fill="#000" stroke-width="0"/>
      <path d="M715.0088,182.2119c.7686,0,1.2314-.1035,1.3926-.3115.1592-.208.2402-.8398.2402-1.8965v-1.5361h-18.2402v8.1123h-4.7998v-8.1123h-3.0723v-3.8877h3.0723v-6l-2.7363,2.0156c-.5127-1.4395-1.0879-2.9912-1.7285-4.6553v20.6396h-4.6074v-17.1836c-.8965,2.7832-1.9521,5.2793-3.168,7.4873l-2.6885-4.6553c2.7842-5.248,4.6719-10.5762,5.6641-15.9844h-4.6074v-4.2236h4.7998v-7.7764h4.6074v7.7764h3.6484v4.2236h-3.5039c1.9834,4.5762,3.4238,7.9521,4.3203,10.1279v-3.5518h11.5195v-1.7764h-13.3916v-3.7441h7.1514v-2.0156h-5.1836v-3.2637h5.1836v-2.0166h-6.4795v-3.6475h6.4795v-2.3525h4.9443v2.3525h7.7764v-2.3525h4.9434v2.3525h6.2402v3.6475h-6.2402v2.0166h5.5205v3.2637h-5.5205v2.0156h7.1523v3.7441h-13.7285v1.7764h11.5205v11.7598h2.7842v3.8877h-2.7842v1.5361c0,2.9121-.248,4.6963-.7441,5.3525-.4961.6553-1.752.9834-3.7676.9834-.7051,0-2.8164-.0801-6.3359-.2393l-.1924-4.1289c2.6553.1611,4.1758.2402,4.5596.2402ZM698.4014,168.7246h6.7197v-2.5928h-6.7197v2.5928ZM698.4014,171.9883v2.5918h6.7197v-2.5918h-6.7197ZM703.8252,152.0205h7.7764v-2.0166h-7.7764v2.0166ZM703.8252,155.2842v2.0156h7.7764v-2.0156h-7.7764ZM716.6416,168.7246v-2.5928h-6.6729v2.5928h6.6729ZM716.6416,171.9883h-6.6729v2.5918h6.6729v-2.5918Z" fill="#000" stroke-width="0"/>
    </g>
    <g>
      <path d="M259.416,124.1084v-2.4722h21.168v2.4722h-21.168Z" fill="#000" stroke-width="0"/>
      <path d="M293.832,125.9321l2.0161-1.1519c.752,1.104,1.7676,2.2002,3.0479,3.2881,1.104-1.0239,1.9839-2.1997,2.6401-3.5283h-7.8242v-2.1357h10.4399v2.1357c-.832,1.9204-1.96,3.5684-3.3838,4.9443,1.4077.9443,2.8955,1.7041,4.4639,2.2803l-.936,1.9922c-1.8081-.624-3.5918-1.5449-5.3521-2.7607-1.52,1.0723-3.3921,1.9922-5.6157,2.7607l-.8643-1.5361c-.0801.7197-.2759,1.1758-.5879,1.3682-.312.1914-.9321.2881-1.8599.2881-.2725,0-1.0244-.041-2.2563-.1201l-.0479-2.1602c.96.0635,1.6479.0957,2.064.0957.2881,0,.4561-.0518.5039-.1562.0483-.1035.0723-.459.0723-1.0674v-5.9766l-1.0078.0962v6.2886h-2.1602v-6.0967l-.792.0718c-.0479,2.2725-.2041,4.1006-.4683,5.4849-.2637,1.3838-.6758,2.6191-1.2358,3.708l-2.0161-1.3926c.4639-.96.7998-1.9756,1.0083-3.0479.2075-1.0718.3438-2.584.4077-4.5361l-1.248.0957-.0239-2.04,1.2959-.1196v-8.4243h2.5923c.1118-.8315.2075-1.5757.2881-2.2319l2.4717.144c-.0161.1284-.0562.4438-.1196.9482-.0645.5039-.1123.8843-.144,1.1396h3.3359v7.6562l.7437-.0479.0244,2.0396-.7681.0723v6.1685c0,.5762-.0083.9756-.0239,1.2002,1.6797-.5439,3.1919-1.2559,4.5356-2.1367-1.2803-1.1357-2.3521-2.3359-3.2158-3.6001ZM286.416,122.7881l3.936-.3359v-5.9761h-3.936v6.312ZM286.5601,118.0601l1.8481-.8877c.5117.9121,1.1196,2.168,1.8237,3.7681l-1.8721.8877c-.7842-1.7598-1.3838-3.0156-1.7998-3.7681ZM294.4561,122.1641l-1.6318-1.6797c.7515-.624,1.272-1.3359,1.5596-2.1362.2881-.7998.4321-1.9917.4321-3.5757v-1.3442h7.1279v5.6401c0,.208.0161.3281.0483.3599.0317.0322.1597.0479.3838.0479.3677,0,.5918-.1157.6719-.3477s.1597-1.0361.2402-2.4121l2.064.2397c-.0322.6562-.0601,1.1562-.084,1.5-.0239.3442-.0684.7124-.1318,1.104-.0645.3926-.1201.6685-.1685.8281-.0479.1602-.1558.3359-.3237.5278-.168.1924-.312.312-.4321.3604-.1201.0479-.3359.104-.6479.168s-.5923.0957-.8398.0957h-1.1401c-.8481,0-1.3921-.084-1.6318-.252-.2402-.168-.3604-.5156-.3604-1.0439v-4.752h-2.4956v.2881c0,2.9761-.8804,5.104-2.6401,6.3838Z" fill="#000" stroke-width="0"/>
      <path d="M313.0562,116.3564h3.168v2.2319c-.5923,1.4722-1.2803,2.7681-2.064,3.8877,1.3594,1.3125,2.6318,2.6162,3.8159,3.9121l-1.6562,1.584c-1.0078-1.1357-2.1118-2.2959-3.312-3.48v9.5039h-2.4717v-7.7998c-1.0244.8638-2.0801,1.6001-3.168,2.208l-.6001-2.6162c3.168-1.8237,5.4238-4.2236,6.7681-7.1997h-6.1201v-2.2319h3.168v-3.5283h2.4722v3.5283ZM324.4082,130.9961h4.5356v2.2324h-12.936v-2.2324h5.8804v-11.2319h-4.9443v-2.1841h4.9443v-4.584h2.52v4.584h4.1758v2.1841h-4.1758v11.2319Z" fill="#000" stroke-width="0"/>
      <path d="M334.416,132.9883v1.0078h-2.4722v-20.688h20.1123v20.688h-2.4722v-1.0078h-15.168ZM349.584,130.9961v-15.6479h-15.168v15.6479h15.168ZM348.8159,118.1802v2.064h-2.1602v6.3599c0,1.6167-.1318,2.604-.396,2.9644-.2637.3604-.9956.54-2.1958.54-.8003,0-2.0562-.04-3.7681-.1201l-.0479-2.04c1.52.0801,2.4961.1201,2.9277.1201.5283,0,.8359-.0562.9243-.168.0879-.1118.1318-.4878.1318-1.1279v-6.5283h-9.0479v-2.064h9.0479v-2.2319h2.4238v2.2319h2.1602ZM336.8159,122.0923l2.04-1.1763c1.1357,1.5361,2.1602,3.1924,3.0723,4.9683l-2.0645,1.1279c-.896-1.7119-1.9121-3.3516-3.0479-4.9199Z" fill="#000" stroke-width="0"/>
      <path d="M359.04,123.5083c-1.312-1.2319-2.7358-2.4321-4.272-3.6001l1.4399-1.7041c1.6157,1.1846,3.0479,2.3604,4.2959,3.5283l-1.4639,1.7759ZM361.1279,125.9805c-.8638,2.8799-2.0879,5.4805-3.6719,7.7998l-1.9922-1.3193c1.4238-2.1445,2.6079-4.5845,3.5522-7.3208l2.1118.8403ZM355.8242,114.748l1.4399-1.728c1.4717,1.0723,2.7676,2.1362,3.8877,3.1924l-1.4639,1.752c-1.1362-1.0718-2.4238-2.144-3.8638-3.2163ZM370.6558,125.9561l2.2563-.9116c1.4238,2.5278,2.7598,5.1841,4.0078,7.9683l-2.2559.8643c-.1763-.4004-.4722-1.0322-.8882-1.8965-4.624.6074-9.0562.9844-13.2959,1.1279l-.1201-2.1602c1.4077-.0635,2.48-.1201,3.2163-.168.96-2.1919,1.8555-4.6079,2.688-7.248h-5.3281v-2.1841h6.48v-3.936h-5.4722v-2.1118h5.4722v-2.52h2.52v2.52h5.832v2.1118h-5.832v3.936h6.8882v2.1841h-7.8721c-.7842,2.5122-1.6323,4.8643-2.5439,7.0566,2.1274-.1758,4.2476-.3926,6.3599-.6484-.6562-1.3281-1.3604-2.6558-2.1123-3.9844Z" fill="#000" stroke-width="0"/>
      <path d="M379.1279,131.6445c3.0879-1.5684,5.4561-3.728,7.1035-6.4805,1.6484-2.7515,2.4727-5.9595,2.4727-9.624v-2.7119h2.5918v2.7119c0,3.6646.8242,6.8726,2.4717,9.624,1.6475,2.7524,4.0156,4.9121,7.1045,6.4805l-1.3926,1.9922c-2.1113-1.0078-3.9883-2.5-5.6279-4.4766-1.6396-1.9756-2.8916-4.2119-3.7559-6.708-.8643,2.4961-2.1357,4.7324-3.8164,6.708-1.6792,1.9766-3.5991,3.4688-5.7593,4.4766l-1.3921-1.9922Z" fill="#000" stroke-width="0"/>
    </g>
    <g>
      <path d="M267.7129,207.7754h-7.1763v7.8252h-2.0645v-16.5137h2.0645v6.9609h7.1763v-6.9609h2.0884v16.5137h-2.0884v-7.8252Z" fill="#000" stroke-width="0"/>
      <path d="M283.8892,215.6006h-1.7285l-.168-2.04c-.936,1.5361-2.1362,2.3281-3.96,2.3281-2.2324,0-3.5283-1.3926-3.5283-3.8643v-9.0488h2.0161v8.832c0,1.8008.624,2.4727,2.064,2.4727s2.4961-.9365,3.2881-2.2559v-9.0488h2.0166v12.625Z" fill="#000" stroke-width="0"/>
      <path d="M304.5293,206.5518v9.0488h-2.0161v-8.7607c0-1.9443-.8159-2.5684-1.8481-2.5684-1.416,0-2.2319.9355-3.1201,2.3281v9.001h-2.0161v-8.7607c0-1.9443-.8164-2.5684-1.8481-2.5684-1.3921,0-2.2324.9355-3.0967,2.3281v9.001h-2.0161v-12.625h1.7285l.168,1.9199c.8638-1.3203,2.064-2.208,3.6963-2.208,1.5601,0,2.7119.8643,3.168,2.3281.936-1.3926,2.1123-2.3281,3.8164-2.3281,2.0645,0,3.3843,1.4883,3.3843,3.8643Z" fill="#000" stroke-width="0"/>
      <path d="M318.5205,214.4727l-.4805,1.416c-1.2241-.168-2.0161-.6963-2.3521-1.9443-.8643,1.3438-2.208,1.9443-3.7925,1.9443-2.4961,0-3.9839-1.5605-3.9839-3.8164,0-2.6885,2.0161-4.1289,5.4722-4.1289h2.0645v-1.0078c0-1.8721-.8882-2.5918-2.7124-2.5918-.96,0-2.1123.2393-3.4082.6953l-.5044-1.4873c1.5122-.5762,2.8804-.8643,4.2725-.8643,3.0005,0,4.3687,1.5361,4.3687,4.1523v5.8564c0,1.1758.3838,1.5361,1.0562,1.7764ZM315.4482,212.3125v-3.0244h-1.8003c-2.3521,0-3.6006.8877-3.6006,2.6875,0,1.5361.7925,2.377,2.3042,2.377,1.3682,0,2.3525-.6963,3.0967-2.04Z" fill="#000" stroke-width="0"/>
      <path d="M331.6001,206.5518v9.0488h-2.0161v-8.7607c0-1.9443-.792-2.5684-2.0884-2.5684-1.4878,0-2.4961.9355-3.3604,2.3281v9.001h-2.0161v-12.625h1.7285l.168,1.9199c.9121-1.3203,2.2559-2.208,3.96-2.208,2.3042,0,3.6245,1.4639,3.6245,3.8643Z" fill="#000" stroke-width="0"/>
      <path d="M335.2954,207.2236h6.6963v1.7285h-6.6963v-1.7285Z" fill="#000" stroke-width="0"/>
      <path d="M345.6875,213.2002v-15.3135l2.0161-.2402v15.5059c0,.6963.2397,1.0557.8398,1.0557.312,0,.5762-.0479.8159-.1436l.5283,1.416c-.4561.2402-1.0562.4082-1.6802.4082-1.5361,0-2.52-.9365-2.52-2.6885Z" fill="#000" stroke-width="0"/>
      <path d="M355.2153,198.415c0,.792-.5762,1.3916-1.4399,1.3916-.8403,0-1.4165-.5996-1.4165-1.3916s.5762-1.3926,1.4165-1.3926c.8638,0,1.4399.6006,1.4399,1.3926ZM354.8071,215.6006h-2.0161v-12.625h2.0161v12.625Z" fill="#000" stroke-width="0"/>
      <path d="M361.6953,201.1514v1.8242h3.1201l-.2158,1.5596h-2.9043v11.0654h-2.0161v-11.0654h-2.2324v-1.5596h2.2324v-1.8008c0-2.0879,1.3677-3.5283,3.8403-3.5283,1.1758,0,2.0161.2168,3,.6484l-.6479,1.4639c-.8159-.3594-1.5601-.4795-2.2324-.4795-1.416,0-1.9438.5996-1.9438,1.8721Z" fill="#000" stroke-width="0"/>
      <path d="M376.7915,209.9834h-8.1367c.1919,3.0488,1.6323,4.249,3.5283,4.249,1.272,0,2.208-.3604,3.3125-1.1279l.8877,1.2002c-1.2241.9834-2.6162,1.584-4.3442,1.584-3.48,0-5.5205-2.4727-5.5205-6.4805,0-3.9609,1.9683-6.7207,5.1846-6.7207,3.3843,0,5.1362,2.376,5.1362,6.1924,0,.4316-.0239.8398-.0479,1.1035ZM374.8472,208.3037c0-2.5439-1.0078-4.0088-3.0962-4.0088-1.752,0-2.9282,1.249-3.0962,4.2012h6.1924v-.1924Z" fill="#000" stroke-width="0"/>
      <path d="M389.1982,215.6006h-2.0645v-16.5137h2.0645v16.5137Z" fill="#000" stroke-width="0"/>
      <path d="M403.5029,206.5518v9.0488h-2.0166v-8.7607c0-1.9443-.792-2.5684-2.0879-2.5684-1.4883,0-2.4961.9355-3.3604,2.3281v9.001h-2.0166v-12.625h1.7285l.168,1.9199c.9121-1.3203,2.2559-2.208,3.96-2.208,2.3047,0,3.625,1.4639,3.625,3.8643Z" fill="#000" stroke-width="0"/>
      <path d="M410.2695,201.1514v1.8242h3.1201l-.2158,1.5596h-2.9043v11.0654h-2.0156v-11.0654h-2.2324v-1.5596h2.2324v-1.8008c0-2.0879,1.3672-3.5283,3.8398-3.5283,1.1758,0,2.0166.2168,3,.6484l-.6475,1.4639c-.8164-.3594-1.5605-.4795-2.2324-.4795-1.416,0-1.9443.5996-1.9443,1.8721Z" fill="#000" stroke-width="0"/>
      <path d="M426.2061,209.2637c0,3.9609-2.04,6.625-5.5684,6.625s-5.5449-2.5684-5.5449-6.5771c0-3.96,2.04-6.624,5.5684-6.624,3.5527,0,5.5449,2.5439,5.5449,6.5762ZM417.2529,209.3115c0,3.3369,1.2002,4.9443,3.3848,4.9443s3.4082-1.6074,3.4082-4.9922c0-3.3359-1.2002-4.9443-3.3848-4.9443-2.1602,0-3.4082,1.6084-3.4082,4.9922Z" fill="#000" stroke-width="0"/>
      <path d="M436.5498,202.8311l-.3604,1.9688c-.3838-.0967-.6475-.1445-1.1035-.1445-1.6328,0-2.5449,1.1523-3.0967,3.624v7.3213h-2.0166v-12.625h1.7285l.1924,2.6396c.6719-1.9443,1.8477-2.9277,3.4082-2.9277.4316,0,.8877.0479,1.248.1436Z" fill="#000" stroke-width="0"/>
      <path d="M455.126,206.5518v9.0488h-2.0156v-8.7607c0-1.9443-.8164-2.5684-1.8486-2.5684-1.416,0-2.2314.9355-3.1201,2.3281v9.001h-2.0156v-8.7607c0-1.9443-.8164-2.5684-1.8486-2.5684-1.3916,0-2.2324.9355-3.0967,2.3281v9.001h-2.0156v-12.625h1.7285l.168,1.9199c.8633-1.3203,2.0635-2.208,3.6963-2.208,1.5596,0,2.7119.8643,3.168,2.3281.9355-1.3926,2.1123-2.3281,3.8164-2.3281,2.0645,0,3.3838,1.4883,3.3838,3.8643Z" fill="#000" stroke-width="0"/>
      <path d="M469.1182,214.4727l-.4805,1.416c-1.2246-.168-2.0166-.6963-2.3525-1.9443-.8643,1.3438-2.208,1.9443-3.792,1.9443-2.4961,0-3.9844-1.5605-3.9844-3.8164,0-2.6885,2.0166-4.1289,5.4727-4.1289h2.0645v-1.0078c0-1.8721-.8887-2.5918-2.7129-2.5918-.96,0-2.1123.2393-3.4082.6953l-.5039-1.4873c1.5117-.5762,2.8799-.8643,4.2725-.8643,3,0,4.3682,1.5361,4.3682,4.1523v5.8564c0,1.1758.3838,1.5361,1.0566,1.7764ZM466.0459,212.3125v-3.0244h-1.8008c-2.3516,0-3.6006.8877-3.6006,2.6875,0,1.5361.793,2.377,2.3047,2.377,1.3682,0,2.3525-.6963,3.0967-2.04Z" fill="#000" stroke-width="0"/>
      <path d="M478.9336,215.0479c-.8164.5527-1.7285.8408-2.7842.8408-2.0889,0-3.3369-1.2246-3.3369-3.5283v-7.8252h-2.1836v-1.5596h2.1836v-2.9043l2.0166-.2168v3.1211h3.0479l-.2158,1.5596h-2.832v7.7285c0,1.3203.4561,1.9443,1.584,1.9443.5996,0,1.1279-.168,1.752-.5518l.7686,1.3916Z" fill="#000" stroke-width="0"/>
      <path d="M483.6846,198.415c0,.792-.5762,1.3916-1.4395,1.3916-.8408,0-1.417-.5996-1.417-1.3916s.5762-1.3926,1.417-1.3926c.8633,0,1.4395.6006,1.4395,1.3926ZM483.2764,215.6006h-2.0156v-12.625h2.0156v12.625Z" fill="#000" stroke-width="0"/>
      <path d="M498.1338,209.2637c0,3.9609-2.041,6.625-5.5693,6.625s-5.5439-2.5684-5.5439-6.5771c0-3.96,2.04-6.624,5.5684-6.624,3.5527,0,5.5449,2.5439,5.5449,6.5762ZM489.1807,209.3115c0,3.3369,1.2002,4.9443,3.3838,4.9443s3.4082-1.6074,3.4082-4.9922c0-3.3359-1.1992-4.9443-3.3838-4.9443-2.1602,0-3.4082,1.6084-3.4082,4.9922Z" fill="#000" stroke-width="0"/>
      <path d="M511.3809,206.5518v9.0488h-2.0156v-8.7607c0-1.9443-.792-2.5684-2.0889-2.5684-1.4873,0-2.4961.9355-3.3604,2.3281v9.001h-2.0156v-12.625h1.7285l.168,1.9199c.9121-1.3203,2.2559-2.208,3.96-2.208,2.3037,0,3.624,1.4639,3.624,3.8643Z" fill="#000" stroke-width="0"/>
      <path d="M533.0527,204.1514c0,3.7686-2.7119,5.3047-6.3359,5.3047h-2.1602v6.1445h-2.0645v-16.5137h4.2246c3.9355,0,6.3359,1.6084,6.3359,5.0645ZM530.8447,204.1758c0-2.5449-1.6084-3.457-4.1523-3.457h-2.1357v7.0811h2.0879c2.5205,0,4.2002-.7686,4.2002-3.624Z" fill="#000" stroke-width="0"/>
      <path d="M536.124,213.2002v-15.3135l2.0156-.2402v15.5059c0,.6963.2402,1.0557.8398,1.0557.3125,0,.5762-.0479.8164-.1436l.5283,1.416c-.4561.2402-1.0566.4082-1.6807.4082-1.5361,0-2.5195-.9365-2.5195-2.6885Z" fill="#000" stroke-width="0"/>
      <path d="M552.6367,214.4727l-.4805,1.416c-1.2246-.168-2.0166-.6963-2.3525-1.9443-.8643,1.3438-2.208,1.9443-3.792,1.9443-2.4961,0-3.9844-1.5605-3.9844-3.8164,0-2.6885,2.0166-4.1289,5.4727-4.1289h2.0645v-1.0078c0-1.8721-.8887-2.5918-2.7129-2.5918-.96,0-2.1123.2393-3.4082.6953l-.5039-1.4873c1.5117-.5762,2.8799-.8643,4.2725-.8643,3,0,4.3682,1.5361,4.3682,4.1523v5.8564c0,1.1758.3838,1.5361,1.0566,1.7764ZM549.5645,212.3125v-3.0244h-1.8008c-2.3516,0-3.6006.8877-3.6006,2.6875,0,1.5361.793,2.377,2.3047,2.377,1.3682,0,2.3525-.6963,3.0967-2.04Z" fill="#000" stroke-width="0"/>
      <path d="M562.4521,215.0479c-.8164.5527-1.7285.8408-2.7842.8408-2.0889,0-3.3369-1.2246-3.3369-3.5283v-7.8252h-2.1836v-1.5596h2.1836v-2.9043l2.0166-.2168v3.1211h3.0479l-.2158,1.5596h-2.832v7.7285c0,1.3203.4561,1.9443,1.584,1.9443.5996,0,1.1279-.168,1.752-.5518l.7686,1.3916Z" fill="#000" stroke-width="0"/>
      <path d="M566.9873,201.1514v1.8242h3.1201l-.2158,1.5596h-2.9043v11.0654h-2.0156v-11.0654h-2.2324v-1.5596h2.2324v-1.8008c0-2.0879,1.3672-3.5283,3.8398-3.5283,1.1758,0,2.0166.2168,3,.6484l-.6475,1.4639c-.8164-.3594-1.5605-.4795-2.2324-.4795-1.416,0-1.9443.5996-1.9443,1.8721Z" fill="#000" stroke-width="0"/>
      <path d="M582.9238,209.2637c0,3.9609-2.04,6.625-5.5684,6.625s-5.5449-2.5684-5.5449-6.5771c0-3.96,2.04-6.624,5.5684-6.624,3.5527,0,5.5449,2.5439,5.5449,6.5762ZM573.9707,209.3115c0,3.3369,1.2002,4.9443,3.3848,4.9443s3.4082-1.6074,3.4082-4.9922c0-3.3359-1.2002-4.9443-3.3848-4.9443-2.1602,0-3.4082,1.6084-3.4082,4.9922Z" fill="#000" stroke-width="0"/>
      <path d="M593.2676,202.8311l-.3604,1.9688c-.3838-.0967-.6475-.1445-1.1035-.1445-1.6328,0-2.5449,1.1523-3.0967,3.624v7.3213h-2.0166v-12.625h1.7285l.1924,2.6396c.6719-1.9443,1.8477-2.9277,3.4082-2.9277.4316,0,.8877.0479,1.248.1436Z" fill="#000" stroke-width="0"/>
      <path d="M611.8438,206.5518v9.0488h-2.0156v-8.7607c0-1.9443-.8164-2.5684-1.8486-2.5684-1.416,0-2.2314.9355-3.1201,2.3281v9.001h-2.0156v-8.7607c0-1.9443-.8164-2.5684-1.8486-2.5684-1.3916,0-2.2324.9355-3.0967,2.3281v9.001h-2.0156v-12.625h1.7285l.168,1.9199c.8633-1.3203,2.0635-2.208,3.6963-2.208,1.5596,0,2.7119.8643,3.168,2.3281.9355-1.3926,2.1123-2.3281,3.8164-2.3281,2.0645,0,3.3838,1.4883,3.3838,3.8643Z" fill="#000" stroke-width="0"/>
      <path d="M623.9873,204.127l-.8643,1.2725c-1.1279-.7441-2.0879-1.1045-3.2881-1.1045-1.4883,0-2.4482.6963-2.4482,1.7764s.7197,1.5605,2.8086,2.1123c2.6641.6963,4.1523,1.7041,4.1523,3.9121,0,2.5684-2.3281,3.793-4.873,3.793-2.1357,0-3.624-.6963-4.7285-1.6562l1.0801-1.2246c1.0322.7686,2.1846,1.248,3.6006,1.248,1.6807,0,2.8086-.7676,2.8086-2.04,0-1.3203-.6484-1.7998-3.1445-2.4717-2.7119-.7207-3.792-1.8486-3.792-3.625,0-1.9922,1.8955-3.4316,4.4639-3.4316,1.7285,0,3.0244.5273,4.2246,1.4395Z" fill="#000" stroke-width="0"/>
      <path d="M636.2266,215.6006h-2.0645v-16.5137h2.0645v16.5137Z" fill="#000" stroke-width="0"/>
      <path d="M650.5303,206.5518v9.0488h-2.0156v-8.7607c0-1.9443-.792-2.5684-2.0889-2.5684-1.4873,0-2.4961.9355-3.3604,2.3281v9.001h-2.0156v-12.625h1.7285l.168,1.9199c.9121-1.3203,2.2559-2.208,3.96-2.208,2.3037,0,3.624,1.4639,3.624,3.8643Z" fill="#000" stroke-width="0"/>
      <path d="M662.6504,204.127l-.8643,1.2725c-1.1279-.7441-2.0879-1.1045-3.2881-1.1045-1.4883,0-2.4482.6963-2.4482,1.7764s.7197,1.5605,2.8086,2.1123c2.6641.6963,4.1523,1.7041,4.1523,3.9121,0,2.5684-2.3281,3.793-4.873,3.793-2.1357,0-3.624-.6963-4.7285-1.6562l1.0801-1.2246c1.0322.7686,2.1846,1.248,3.6006,1.248,1.6807,0,2.8086-.7676,2.8086-2.04,0-1.3203-.6484-1.7998-3.1445-2.4717-2.7119-.7207-3.792-1.8486-3.792-3.625,0-1.9922,1.8955-3.4316,4.4639-3.4316,1.7285,0,3.0244.5273,4.2246,1.4395Z" fill="#000" stroke-width="0"/>
      <path d="M672.4902,215.0479c-.8164.5527-1.7285.8408-2.7842.8408-2.0889,0-3.3369-1.2246-3.3369-3.5283v-7.8252h-2.1836v-1.5596h2.1836v-2.9043l2.0166-.2168v3.1211h3.0479l-.2158,1.5596h-2.832v7.7285c0,1.3203.4561,1.9443,1.584,1.9443.5996,0,1.1279-.168,1.752-.5518l.7686,1.3916Z" fill="#000" stroke-width="0"/>
      <path d="M677.2412,198.415c0,.792-.5762,1.3916-1.4395,1.3916-.8408,0-1.417-.5996-1.417-1.3916s.5762-1.3926,1.417-1.3926c.8633,0,1.4395.6006,1.4395,1.3926ZM676.833,215.6006h-2.0156v-12.625h2.0156v12.625Z" fill="#000" stroke-width="0"/>
      <path d="M687.7295,215.0479c-.8164.5527-1.7275.8408-2.7842.8408-2.0879,0-3.3359-1.2246-3.3359-3.5283v-7.8252h-2.1846v-1.5596h2.1846v-2.9043l2.0156-.2168v3.1211h3.0488l-.2168,1.5596h-2.832v7.7285c0,1.3203.4561,1.9443,1.584,1.9443.6006,0,1.1289-.168,1.7529-.5518l.7676,1.3916Z" fill="#000" stroke-width="0"/>
      <path d="M699.3213,215.6006h-1.7285l-.168-2.04c-.9355,1.5361-2.1357,2.3281-3.96,2.3281-2.2324,0-3.5283-1.3926-3.5283-3.8643v-9.0488h2.0166v8.832c0,1.8008.624,2.4727,2.0635,2.4727,1.4404,0,2.4961-.9365,3.2881-2.2559v-9.0488h2.0166v12.625Z" fill="#000" stroke-width="0"/>
      <path d="M710.2168,215.0479c-.8164.5527-1.7275.8408-2.7842.8408-2.0879,0-3.3359-1.2246-3.3359-3.5283v-7.8252h-2.1846v-1.5596h2.1846v-2.9043l2.0156-.2168v3.1211h3.0488l-.2168,1.5596h-2.832v7.7285c0,1.3203.4561,1.9443,1.584,1.9443.6006,0,1.1289-.168,1.7529-.5518l.7676,1.3916Z" fill="#000" stroke-width="0"/>
      <path d="M721.8809,209.9834h-8.1367c.1914,3.0488,1.6318,4.249,3.5283,4.249,1.2715,0,2.208-.3604,3.3125-1.1279l.8877,1.2002c-1.2246.9834-2.6162,1.584-4.3447,1.584-3.4805,0-5.5205-2.4727-5.5205-6.4805,0-3.9609,1.9688-6.7207,5.1846-6.7207,3.3848,0,5.1367,2.376,5.1367,6.1924,0,.4316-.0244.8398-.0479,1.1035ZM719.9365,208.3037c0-2.5439-1.0078-4.0088-3.0967-4.0088-1.752,0-2.9277,1.249-3.0957,4.2012h6.1924v-.1924Z" fill="#000" stroke-width="0"/>
    </g>
  </g>
</svg>